<mxfile host="65bd71144e">
    <diagram name="azure" id="Vmsq33tzJXxONNSSVio0">
        <mxGraphModel dx="-411" dy="1448" grid="1" gridSize="10" guides="1" tooltips="1" connect="1" arrows="1" fold="1" page="1" pageScale="1" pageWidth="827" pageHeight="1169" background="#FFFFFF" math="0" shadow="0">
            <root>
                <mxCell id="RKjZyVbcrB04m-q0hB96-0"/>
                <mxCell id="RKjZyVbcrB04m-q0hB96-1" parent="RKjZyVbcrB04m-q0hB96-0"/>
                <mxCell id="RKjZyVbcrB04m-q0hB96-3" value="VNet" style="points=[[0,0],[0.25,0],[0.5,0],[0.75,0],[1,0],[1,0.25],[1,0.5],[1,0.75],[1,1],[0.75,1],[0.5,1],[0.25,1],[0,1],[0,0.75],[0,0.5],[0,0.25]];outlineConnect=0;gradientColor=none;html=1;whiteSpace=wrap;fontSize=12;fontStyle=0;shape=mxgraph.aws4.group;grIcon=mxgraph.aws4.group_vpc;strokeColor=#248814;fillColor=none;verticalAlign=top;align=left;spacingLeft=30;fontColor=#AAB7B8;dashed=0;" parent="RKjZyVbcrB04m-q0hB96-1" vertex="1">
                    <mxGeometry x="1237" y="-718.63" width="533" height="288.63" as="geometry"/>
                </mxCell>
                <mxCell id="lZSVfmJxcrVhb7ZIjuOB-0" value="Private subnet" style="points=[[0,0],[0.25,0],[0.5,0],[0.75,0],[1,0],[1,0.25],[1,0.5],[1,0.75],[1,1],[0.75,1],[0.5,1],[0.25,1],[0,1],[0,0.75],[0,0.5],[0,0.25]];outlineConnect=0;gradientColor=none;html=1;whiteSpace=wrap;fontSize=12;fontStyle=0;shape=mxgraph.aws4.group;grIcon=mxgraph.aws4.group_security_group;grStroke=0;strokeColor=#147EBA;fillColor=#E6F2F8;verticalAlign=top;align=left;spacingLeft=30;fontColor=#147EBA;dashed=0;" parent="RKjZyVbcrB04m-q0hB96-1" vertex="1">
                    <mxGeometry x="1600" y="-690.5" width="150" height="250.5" as="geometry"/>
                </mxCell>
                <mxCell id="RKjZyVbcrB04m-q0hB96-2" value="AWS Cloud" style="points=[[0,0],[0.25,0],[0.5,0],[0.75,0],[1,0],[1,0.25],[1,0.5],[1,0.75],[1,1],[0.75,1],[0.5,1],[0.25,1],[0,1],[0,0.75],[0,0.5],[0,0.25]];outlineConnect=0;gradientColor=none;html=1;whiteSpace=wrap;fontSize=12;fontStyle=0;shape=mxgraph.aws4.group;grIcon=mxgraph.aws4.group_aws_cloud_alt;strokeColor=#232F3E;fillColor=none;verticalAlign=top;align=left;spacingLeft=30;fontColor=#232F3E;dashed=0;" parent="RKjZyVbcrB04m-q0hB96-1" vertex="1">
                    <mxGeometry x="1020" y="-750" width="760" height="330" as="geometry"/>
                </mxCell>
                <mxCell id="RKjZyVbcrB04m-q0hB96-5" style="edgeStyle=orthogonalEdgeStyle;rounded=0;orthogonalLoop=1;jettySize=auto;html=1;exitX=0.929;exitY=0.353;exitDx=0;exitDy=0;exitPerimeter=0;entryX=0;entryY=0.54;entryDx=0;entryDy=0;entryPerimeter=0;" parent="RKjZyVbcrB04m-q0hB96-1" target="jucucpusSahh-SXNiXdP-0" edge="1">
                    <mxGeometry relative="1" as="geometry">
                        <mxPoint x="896.45" y="-568.644" as="sourcePoint"/>
                        <mxPoint x="1050" y="-568" as="targetPoint"/>
                    </mxGeometry>
                </mxCell>
                <mxCell id="RKjZyVbcrB04m-q0hB96-6" value="Private subnet" style="points=[[0,0],[0.25,0],[0.5,0],[0.75,0],[1,0],[1,0.25],[1,0.5],[1,0.75],[1,1],[0.75,1],[0.5,1],[0.25,1],[0,1],[0,0.75],[0,0.5],[0,0.25]];outlineConnect=0;gradientColor=none;html=1;whiteSpace=wrap;fontSize=12;fontStyle=0;shape=mxgraph.aws4.group;grIcon=mxgraph.aws4.group_security_group;grStroke=0;strokeColor=#147EBA;fillColor=#E6F2F8;verticalAlign=top;align=left;spacingLeft=30;fontColor=#147EBA;dashed=0;" parent="RKjZyVbcrB04m-q0hB96-1" vertex="1">
                    <mxGeometry x="1267" y="-690.5" width="300" height="250.5" as="geometry"/>
                </mxCell>
                <mxCell id="RKjZyVbcrB04m-q0hB96-8" style="edgeStyle=orthogonalEdgeStyle;rounded=0;orthogonalLoop=1;jettySize=auto;html=1;" parent="RKjZyVbcrB04m-q0hB96-1" source="jucucpusSahh-SXNiXdP-1" edge="1">
                    <mxGeometry relative="1" as="geometry">
                        <mxPoint x="1370" y="-568" as="targetPoint"/>
                        <mxPoint x="1227" y="-568.5" as="sourcePoint"/>
                    </mxGeometry>
                </mxCell>
                <mxCell id="RKjZyVbcrB04m-q0hB96-10" value="Internet" style="outlineConnect=0;dashed=0;verticalLabelPosition=bottom;verticalAlign=top;align=center;html=1;shape=mxgraph.aws3.internet_3;fillColor=#D2D3D3;gradientColor=none;" parent="RKjZyVbcrB04m-q0hB96-1" vertex="1">
                    <mxGeometry x="930.5" y="-593" width="50" height="32" as="geometry"/>
                </mxCell>
                <mxCell id="RKjZyVbcrB04m-q0hB96-12" style="edgeStyle=orthogonalEdgeStyle;rounded=0;orthogonalLoop=1;jettySize=auto;html=1;exitX=1;exitY=0.5;exitDx=0;exitDy=0;" parent="RKjZyVbcrB04m-q0hB96-1" source="RKjZyVbcrB04m-q0hB96-18" edge="1" target="IjuyNILD1vDByLSJeYLJ-0">
                    <mxGeometry relative="1" as="geometry">
                        <mxPoint x="1497.8000000000002" y="-624.8" as="sourcePoint"/>
                        <mxPoint x="1617" y="-625" as="targetPoint"/>
                    </mxGeometry>
                </mxCell>
                <mxCell id="RKjZyVbcrB04m-q0hB96-13" value="" style="fillColor=none;strokeColor=#5A6C86;dashed=1;verticalAlign=top;fontStyle=0;fontColor=#5A6C86;" parent="RKjZyVbcrB04m-q0hB96-1" vertex="1">
                    <mxGeometry x="1287" y="-660" width="260" height="210" as="geometry"/>
                </mxCell>
                <mxCell id="RKjZyVbcrB04m-q0hB96-14" style="edgeStyle=orthogonalEdgeStyle;rounded=0;orthogonalLoop=1;jettySize=auto;html=1;entryX=0;entryY=0.5;entryDx=0;entryDy=0;" parent="RKjZyVbcrB04m-q0hB96-1" source="RKjZyVbcrB04m-q0hB96-16" target="RKjZyVbcrB04m-q0hB96-18" edge="1">
                    <mxGeometry relative="1" as="geometry">
                        <mxPoint x="1458" y="-620" as="targetPoint"/>
                    </mxGeometry>
                </mxCell>
                <mxCell id="RKjZyVbcrB04m-q0hB96-15" style="edgeStyle=orthogonalEdgeStyle;rounded=0;orthogonalLoop=1;jettySize=auto;html=1;entryX=0.005;entryY=0.63;entryDx=0;entryDy=0;entryPerimeter=0;" parent="RKjZyVbcrB04m-q0hB96-1" source="RKjZyVbcrB04m-q0hB96-16" target="RKjZyVbcrB04m-q0hB96-17" edge="1">
                    <mxGeometry relative="1" as="geometry"/>
                </mxCell>
                <mxCell id="RKjZyVbcrB04m-q0hB96-16" value="Istio&lt;br&gt;ingress" style="sketch=0;html=1;dashed=0;whitespace=wrap;fillColor=#2875E2;strokeColor=#ffffff;points=[[0.005,0.63,0],[0.1,0.2,0],[0.9,0.2,0],[0.5,0,0],[0.995,0.63,0],[0.72,0.99,0],[0.5,1,0],[0.28,0.99,0]];shape=mxgraph.kubernetes.icon;prIcon=pod;labelPosition=center;verticalLabelPosition=bottom;align=center;verticalAlign=top;" parent="RKjZyVbcrB04m-q0hB96-1" vertex="1">
                    <mxGeometry x="1327" y="-593" width="40" height="40" as="geometry"/>
                </mxCell>
                <mxCell id="RKjZyVbcrB04m-q0hB96-17" value="App Pod" style="sketch=0;html=1;dashed=0;whitespace=wrap;fillColor=#2875E2;strokeColor=#ffffff;points=[[0.005,0.63,0],[0.1,0.2,0],[0.9,0.2,0],[0.5,0,0],[0.995,0.63,0],[0.72,0.99,0],[0.5,1,0],[0.28,0.99,0]];shape=mxgraph.kubernetes.icon;prIcon=pod;labelPosition=center;verticalLabelPosition=bottom;align=center;verticalAlign=top;" parent="RKjZyVbcrB04m-q0hB96-1" vertex="1">
                    <mxGeometry x="1458" y="-540" width="40" height="40" as="geometry"/>
                </mxCell>
                <mxCell id="RKjZyVbcrB04m-q0hB96-18" value="keycloak Pod" style="shape=image;verticalLabelPosition=bottom;labelBackgroundColor=default;verticalAlign=top;aspect=fixed;imageAspect=0;image=data:image/png,iVBORw0KGgoAAAANSUhEUgAAAIEAAACBCAYAAADnoNlQAAAACXBIWXMAAAsTAAALEwEAmpwYAAAAGXRFWHRTb2Z0d2FyZQBBZG9iZSBJbWFnZVJlYWR5ccllPAAAFOJJREFUeNrsXXtwVNd5/7TvlXZXj9ULCSSBDRgCxnIDTYld7MZ1/4iLcZoMxXEMpnGHuPEY/+G2wbWHjqeua2daPJNgZvwAg0PCOIyx0iZpncQQO5kkfiHe4PCQhDCgt1ba96Pnu+yVltW993z33rMrge43s7O2uHvvuef8zu/7/b5z7m5JJpMBK6Z32KwusMICgRUWCKywQGCFBQIrLBBYYYHACgsEVlggsMICgRUWCKwYD8dUacjKlSs3srf/mmb9/3hbW9uWyW5EyVRYQGIAqGBv59irfBpOxNkMCOesdACwZZoCQL736c0EjAVuYW+fTPO0fCdjg/3TmQm2gBU7pm06YCywjr2tsDAAzVlhPL3SQVYMHsQOsDAgxRB7tbC0MDidmGCjBYCrAoXx5mnDBIwFWrIsUG6N/eRbxsligs0WAKaOSCw6EzAWuIO9vWuNtWbcx9hg3/XMBJYlnGJ9ZCsyC6AlXGKNMckyFk0kFi0dTPP1gSltGYvJBBstAOi2jFuuGybIWsKz1rgailbGBgevByawxOAU7ruCM4FoSzhcVgUnm2+GhMOleVzC7YXWsx9BoPe8mOtWz4Twyr8DRyzM5/Ff/Aicl7pEduNDjA12XMsgQDEorDx84NZ7GBAqucc5KoLgrKyGu3b+i5jrrt4EFTW1UOP3cY+1D/VB3dZ/EtmNHex1S6FEoq3AABC6PnCmcQEJAPZMGpKNcyDiZ6yx7Mvmr7vkLyQm6AYXpKN8JkiVByF0+0qhljErrK8tTZC1hMK8LtL/qSZiiaGB6VD7le2TZ9kAYmowfF322VNZIKUYaXYnS0ifG136l5D2lAp1V1mBfU0xwWaRlhABkHA4uce5IAOpmsbxQXR54ehtXzN+3aX3SOeQ43LaDonQEPdzaQae4bv+VrRl3HzNgCCL2MdEnS/s8bFUcBPp2PicRRP+1nXTFyQ6131df5Clgjsn/P2svYz2+cXLIVE3S2TXrs0K7WuCCYQq2YPzlpOOc7mYY/AFFP/tyO362eDgXQ8q/j2UTMPIEE2jDYllg4JYRlsBWGAVCNwydjE4C/rK6/hiMJ1SZAE5+hrmwsU59GWLvsZ50mfUQmKDRJzPTE3zIXzzF0V28ZLsGoywEP7wSU1NzfcqKipMncPtdkM0Gr1izWpvpd1IdT2kXG7NY07esQZus42SzvfJ0q9qD246A/3xJFQ5XdxzRe/8CixMDIEjEb3q3qiBDBeLxcZnrs32PRYzy8vLU+xcETN9nUqlPhNaJ9izZ8/Ply9f/ldmzzM6Oip11ovHLkgvXvg9bgjdcPOYI1CLRmcG3pudJLVhTZcDfh/hO4E/CzggTiDUe50jcI99CHw+H+jp83A4fCXNKQSeR8T4CUsHr7zySvOSJUvuNnsevCkEwHAiBa99eolm42pncQGA8VgwTW7HQ5W0Y89Face9kyyDsNcvDACS3hgaEjJ2wkDQ0tLyy3g8XmL2PMPDw9L7Mwc7IcSAwE0/5QGIVtRwj/tTbwa+GqCD4G5fWvoMLz6Lp8ED/POGMyWwN+wRBgA5bU4ZEGzduvWbCxYsuIHlKtNpoKysDI4NhmFvRx/pMz1BmgV7LJjS3Z6nammf+WSUdtyvYy44lnAIAQCG1+udOiBobW19wSwykSZLSq4QyTPttMWX6uoaVUuYG3/DGOALpfpz50J3Rvosd9BSGUgkaVpjV9grBABjolOnyCwICN58881XmpqaJDtQWmq8TBoKhaSb//G5Xvh9T4h7vMdhh966Fr5otOnTAkps4Cf00tFIGpzAB1pH0i4xgggASHookZhcEKAYXLhw4drcv8mzWU+g/UEAoRikuAEMZ80MkhhczwTeTKdxBR2w0VIJritciNHSws5Rr6QRzAIAg9nEyQVBXV3d6xUVFY78m9Eb6fSVmbqduYHuML8AI1nCGr4WQEtoRAsoAamRAKTOWBrcBDZAAPws4jYNADMTTwgItm/ffhtjgT+fUESJx3WdB92A0+mE86MxsiVMzmghHfdUTRpExQt1NDAdDtOO2xvxQE/aZhoAIqyiYRA0NDTs9ng8JWqzWk8awMA0QLWEuE+AYgnR5okKFJafd/PFH64rODK0624d8pgGgAiraAgEb7zxxsZFixYp8rHf7yefR2aN3zEhSLaEtUQWqE0JA8DIyAgkmfp/vpYmwqiW8WTaBceTTtPtM2sVDYGApYFn1f6NimxMA3LjnzlIs4RVdfXsjvnLuGjr0N6JCLmEjRa20ZGBBwN8NsB1hZEEDQgvR/xC2mnGKuoGwb59+3YyQeg1I1SwQ+U0gJbw+BBfTKIl7K/mi0G0cyJYQJ79+aB+tDLBrsEH2B+jKXAQRGIv0wX/GzNf9DFjFXWB4OWXX25maeABnvhDz8/rYIkN2GyhFoYyddT1gZRk60TN/omWMQObgvwOR8t4nmgZ34qVTrCMxbSKurqrtrb2dTYzShwOh6YLSGpUz7CD5TSAlpAiBtESxoIzSJZwfWVa+OzPj6/4knCTi3+d7hh9XQGBYDaMWkUyCF599dXbWltbV8h0rgUEtZUyeYUQAy0htTAUarhRqI3TO/uV4skgjX4PhWmgxJTQmTK3vcOoVSSDoKWl5a38AVUDQjAYVDzH4OD4lqwnPjxHum5lIEBaH0BLaGR9IBKJkGZ/fizzpOBLpXzQoWXMJGmAeSNaZgoERqwigp8Egl27dm2cO3dutdLM5qWG3JqAbB/RElLWBzAGqCxQn9JdrUTtgu03ujHjyWAcfCX8zx5hwp2yrnCC2cWfRYxbRr1WEQGA4CeBYMmSJS9oKX0lIOTmJzwmlRqfNU98QHs21T9jJvOcfHTjAhGuD1Bzojz7PR6P7o7u7++HgYEB6X5qM3F40E/YZ5jdisZV+KxN/zlorvBDtYroJmTm4IJg7969b+WvD1CAgJ2VO+Nkun2NuD7gZpYwVMUXg2gJH6pMkWeCntmPHYUDjrkWQYP/j2yGW8Tkyug3fDFosPPz/ulYBp9fUv13tJO4EnkhaYPvDxkHAtUq4v3IfWDjWcLFixffS7JweUCQZ2VuaVjPKmFJw2ySJcSaQK4lxEEzOvsxnSB4cTbJDgcHHNuvBhqsGTwSiJEsY6fGVjRcgUxlL7Ez5IRhgxqXYhVxTHCsSMKwoaFhn9L6AAUI8kVy1xKo6wNVvlLSlrEF7olbxiorK8mzP5facQbhQhbOdLvdrksnrCqLk9YVuuNpcGUm3j8yRFds/D5GMjZ4dsANfX19hvSKVlqUhGDeDjBVEOzYsWM1Y4Fb9DZABgLOHnQD2LEYuGVsO3GVsL92Num4p2pSqrM+f/ZTqN1M/AOBDTDaFSzjEYW//STihlOeoNRWBLFcYDNjFdVWLFVBwNzANqMdgjMLAYCI6+3tlV5Pf3iGRmf4zALBEq5wxWBupFfZ97Lr4toEdp4MBAq1m4mljAnuLeVrHdyKBqkc1kinJBupFC+NXNE4CGIUcTiI2K+89itZRZnpyHWC3bt3//usWbMq9DIAzjSkWMw52HBMCwHm8//AnNvHg3zV6mVicKh+DkEMZuBp3PbFZjJeI/+FAMB33LSql9rNxD9XRMFHWFc4GB7finZYo5j0UdwJbTmbT3AQ8Z4Q1AgGNQbLF8jYF1opQhEEzc3NG6gDjx2OuQvFFA58bgNkkfjsYZoYdOCWMYIlXBtISit6SoEdg+1ANsIXbx1DZCA4H/Tx2QDJoJ9po+FEUrKPWvHSiHI5GcGA94f9j3leyypin2hNBEN1SqRYvDjOckSnGs3oqWD5Z7ZAZd0MmOflV+6qNOr2OEOwg5D+EJD4wnyKfzO7DYsSscvdTOrznww7W1EN6SD/GctQuoRUIML7RTCgO8D7xP/HyYCTQMsRYd8oMkFHR8c2pRl26dKlsYdDEADUCtamxQ3aBzIrmKiqg54kjNkkrXg35pa2ZimhHwdbUtw5AkhmhkKzAjqfPWd6WM8Oa78iYbBX1ZDu9R8Do+Try6kChSH2PU5WvHccaPwbpmp5kQxBgkytWjG8//77v9PV1TWYn+flma837qoPwNKgel28evaNEGVNibBOGY7zix3S0zwRr6L/1SqhyqxQKI3w3PFLMJLkO42q5jnS/fLiT1wJWOmN6W4Hil8UkTgp5IHGe0dhjP+dnx5UW3L+/Pk1Snleb8h2ZdMiFTZgTqC3dNzbn4llVNVybrwXc8HxnKd5cHDzaU+pelYoVjgxHIW3zxO+s8BbBv2+IOmc3/Lpf+AY+wHHTa4FUKylKghWr17986NHj5r+EkW5MQvKvbBq1sRCTnXTxJpAOEF7mkeJDfJ9sVaqEskKzx27SDou2HID6bi/ZgzweRd9txBSP2oC2Q3JEwBnPg8Impx08eLFVQxVpnopd+MpsoHfaR+fldV10OuYqH7PJ4BUWTyedEhP8+BNKqUpnjAVxQq/vBSCD/sJW+Qqg9Dn5C8X48rkt3y0FVEcbLx/FIO5lcBcx8ADgiYIHnnkkY5jx469LYoyAwwAa+dUj4lB54wm1WMvx1Mk4YRskHC4SX65EKyAYP0PIgs4Z9IqoQ+URUmLUthmBLFSLSTfCWkBgatO1qxZcx/L60kzg5870749vw4amA3EZeJQibpDHUxhB/Mvixs130mY35pllBV2netnjpBP277GJna/fFE9gw3+10sjXOpHEaxVCFMqJKkBgbSf4MiRI0+Y6eD8Bj3XOhOSVfXcz52OprnFFIy3Ez7ozdi5ABTNCt1s8HeeJTwv4XJDkrBHUrKE/lHV3cwy9asN8lUFIIfyBFMCAgkE69ev33L27NmLRkGQ/7TysmofLPLQFm0G4zQS+mEsoClMjbACb6fS1k97SJYw2NRCtoR3euKqLkumfiqYVTGZBwRyD507d87wN0Iqibbnqmn+tytOs4yfpNxwIjWx2oje2GhgZ2FxTIkVPugbpVlCZoH7SquILDARdCjwkPqxLSLrG7lAIINgw4YN7x86dOiA0Yvme/YrT/PQLNAQlQ3iARAdyGJKrPB9xgKUULLAapZwvjN5VX/hNZHJjCx1UwAjA0EXV/b09Kw1ahmVFjm+XUF7mudSkmYZu9IO+E3Sa1oX8FhhH2MAiiV0q1hgJUuIWiC3vQi8Yqx1kDea5lrGw4cPv2bkYkqeHZ/mQSBQojNKs4y7GRuEMzbTukCNFQZjCVphiFlgl4YFzreEOBlw8OWtX2aoX88GFF3pYKzBDzzwTcYIuuuZakJlLUsJlKd5kH9ChHWFSKZEcguidEF+/KBjgCQG/TMaNS2wHPUlSVhr75OYEgdfxC6nZDJZWBBgnDp1apNIStpURftiC9yxS7GMWDdQs4xmAusB207TLGGoqoF0zqfLBidU+8yG3jRi6MpoGRkQTuv9nNpOYOrTPFJxKEpLH6/GyrmaRG88f5ImBiuaaesDtzrj0GqPCl/M0ssmhuHX3d29Tq9I1EL7piqaZfwsCSTLeJLZxVzLaJZmUQjuv0zItcwSDnppTwg/6e676vlMkY6mKCBAy8jY4Nd6PqO1Jx4tI1UkXjbABpRNMEJYoInGAl9zhmCG7UruRi0g4qvoxjSp3V4cEMiW0ey6Qm5g3YBiGQfTJTAQ56ePPqYL3kmUmW5X24VhOBXiM5W7tgEGHfxH29AS/r336hSQ+5hescMUCLKrjN/V8xmtUqz0BRBEkfhZLEmyjPuYU5AtoxFdgKnn+ROXSZawpJ74FbueASiDFNdCGw299tK0JF23bt13mD4g/1Qb7wnm+3xJWOrhzwq0gsOxOOm4H8b9hmfbtj/2kSxh5axm0vrAjbY4fNmpDEYR31puJK0I8SWnT5/eQD1W3giqFY8StcGZePZhDk5gFbEz7dQtmNAS/qBzgGQJBwK1pHM+7lUfaLO6xSjbCQHBww8/vIdqGSkbVdEyrvLRpAaFDTCQDfRukn3qCG3htGLOfNJxX7SNSpZQK8x+YbWRUrOwCkVXV9eXqJaRQlmPVtC+AAJ/pzCc5NM8WsaPU56x5xQplvCjAcKxaAldNPG5PtE5tmVfVD43WyMQCgIUie3t7f9nVhyO9e3ooFRTJ4nEKHXPgZ+cM186TftyTf/seTQAuIagLhOXBGDu1vj8kB+eNRpqm0k02UP0HnyRv42Mv056YPWTpK+xbYQ41Ae01wj0/Ibxb2++m/srbI7qOkg28J+d9Ib6YcWefwNnLCKqm1FYrGpra9s/6RZRzTCIOhF22qL33yQdi8vNvHUF//tt5GvP6T7OtYSZnF9i1Yr5f/hvkQDA2CgKAAUBQbZxB0Sdr/5MOwQvfMo9LulwwcV+dSXv6jwJpYd+Q79uXxcEh9S/TwH3CqScfG+PbZ914nciu7id9fGOKVMsKgYbYCx6j8YGPS6f6rqC/702/dc9/aEKv5dBrK6JyAL/I7pvhf96ekFAwJCKuuBFUecL9J4nz6ZLCmxQevi34GZMoPu6o/0sLZxQZAFKYJuD3adEdu3rItNAoZkAY3NWwAiJzzFt4Izz8+qQxw/94XFXYWO5OPCLHxm+7rzOdnDmfBmlnVnCWCUfBNjWeWJZYAiupV9Nz7LBoMhGo7CidmpXzjeBlX3wDtiiYePXTcYlIMhi0EbcMja7/VdQGuoT2aVbsgwL1xITIBDwF77bRZ1vDutYtFtckWh3Qk9oRLKERrSAklPwxkbBURmEhJf/+wTYRsFaoAMK8GvpY1YXCh8oZN4VdbJlP90GR27nPwIRdpdC+cc/FXYTy47uh/aGZrATnEoBxODmLLMWJEqK8aVOK1eu3Mfe7gUrjMQBBoA7CnkBW5FuZKM1llO374oCgqyg+VdrPA1ZwoPXBQhkdSvSMk6DGCoWgxYNBFlhY6UFfZZwsBgXKinWt33miMT97G2FNcbalpABoKVYF7NNwg1utsZ4agnpooMgW/t+3RpnTUu477oGQQ4bWCJROdYV+4KTAoKsZdxijfeEeLFQ6wNTkQlky9hhjftVlnBS9NKkgcCyjBNTZLEs4aRbRMsyTr4lnErpYFLskCUGpyAIsrXx6WwZ3y7ElrFrjQlkNpiulnHSmXBKgED0VrRrKB6fDEs45YShFZMfNqsLrLBAYIUFAissEFhhgcAKCwRWWCCwwgKBFRYIrLBAYIUFAissEFiRE/8vwABcmUOh+5re/gAAAABJRU5ErkJggg==;" parent="RKjZyVbcrB04m-q0hB96-1" vertex="1">
                    <mxGeometry x="1458" y="-645.5" width="41" height="41" as="geometry"/>
                </mxCell>
                <mxCell id="RKjZyVbcrB04m-q0hB96-19" value="ログイン、JWT発行のためKeycloakへのアクセスはJWTの検証無し。&lt;br&gt;Appへのアクセス時はJWTの検証を行う。" style="whiteSpace=wrap;html=1;shape=mxgraph.basic.rectCallout;dx=113.98;dy=20;boundedLbl=1;direction=west;align=left;" parent="RKjZyVbcrB04m-q0hB96-1" vertex="1">
                    <mxGeometry x="1197" y="-520" width="230" height="80" as="geometry"/>
                </mxCell>
                <mxCell id="RKjZyVbcrB04m-q0hB96-21" style="edgeStyle=orthogonalEdgeStyle;rounded=0;orthogonalLoop=1;jettySize=auto;html=1;exitX=1;exitY=0.5;exitDx=0;exitDy=0;exitPerimeter=0;" parent="RKjZyVbcrB04m-q0hB96-1" target="jucucpusSahh-SXNiXdP-1" edge="1">
                    <mxGeometry relative="1" as="geometry">
                        <mxPoint x="1090" y="-568.5" as="sourcePoint"/>
                        <mxPoint x="1190" y="-568.5" as="targetPoint"/>
                    </mxGeometry>
                </mxCell>
                <mxCell id="RKjZyVbcrB04m-q0hB96-22" value="React" style="shape=image;imageAspect=0;aspect=fixed;verticalLabelPosition=bottom;verticalAlign=top;image=data:image/png,iVBORw0KGgoAAAANSUhEUgAAAgAAAAG9CAYAAABjxM7MAAAABGdBTUEAALGPC/xhBQAAACBjSFJNAAB6JgAAgIQAAPoAAACA6AAAdTAAAOpgAAA6mAAAF3CculE8AAAABmJLR0QA/wD/AP+gvaeTAACAAElEQVR42uydZ3hcxdXH/+eWlWTLhQ4GF9nalWzZVJPQa6ihBkQztnfXRgGCKYEECEkQkAIkoZkq7N21TQuGQIDQwXRIMMVg2dKubLnTwV3S3nLeDxJ5CRissnP33tX5PY8/JGjvzD1zZs5/5s6cIQhCN6lZxX3a1tq76Trv6TLGakR7MiMMgHrw2A0AlgJYzsBCjWguHHvukIqiTC2RK1YX/E4ts7YknY2Qpo9l5j0IGAlgMIBhAPr04NEugDSY54LwNjSau77IeG/2YGoRqwvdgcQEQmepZtZLm+z9wDiGgcMJGAXA8Kj4tQDeBTCXQG+5pv5CqoxWS6sI+SbazAM1yzmUwXsBGAtgdwD9PSreBlDPwLNgPL4hYrwxm8iRVhFEAAi5GeAas3tq0KJMfCqArXxSLZuBN4jxNBM/lQqb80DE0lqCcphpUpO1q+vSkSAcBWBvD4Xw5vgcRA+45KZmlIfekcYSRAAIXWZKhovWwRpHoAvBGOP7MRn4iEBPEeOhIav052oPJltaUcgVtXPYWDbIOYwJJzP4KAJ2CECf+IDAN5WSed/UMLVJKwoiAIQfpGYV97HW2+eBcREI2wf0NT4B8HdmvidVEXpbWlXoLpMasz9yicYBOA3AtkF8BwY+0oAb15UYt8p+AUEEgLDpGc6OVpxBVwIYVECv1kjAva5jz0qNLFkiLS1sjni6dTiTfiYB45gRKaBXW8nMVw1bZSZlhUwQASAAAGKZ7O5guhPAngX8mi6AF5nollS5/oTsFxC+E/gbrf1AOJ+BnwHQC/U9GfhAI5ydCJtvSquLABB6KefWc2mL6VwP8M8BaL3o1esBnmqWmrPqBtFG8YTey/h53NcsscYz6Hy0H9frLbjEdKfVqv961i60QTxBBIDQm2Y7Ddmx0OneAlvi7Krzf+UC0wwybpkWphXiFb2HCYt4iO7a54MxCcDAXmyKRo349Onh0HviFSIAhF5ANJ2dQqC/AgiJNQAAbQAlHF2/duYIWibmKFwmLeChruFcDnBM/P///Z+Jf5kKh24XU4gAEAqU2jlsLNnJuYmYfyHW2CQWMT/gaO5VM8LFi8QcBTbjd+yLAdQAKBaLbCIYEN29LqufN7uKsmINEQBCAVGziAdkHfsxAg4Qa2yWLBHNcG3rT3JyINhMbmgps8m8gognADDFIpuBMSerGSfcG6a1YgwRAEIBMKmet3RN+0kAPxZrdG1FAKCkrem/m1VOn4o5AjTjX8hbGbpzJYPPlsDf5agw13SNo+oq6HMxhggAIcgz/0be2iL7FfSuHc657iRfuYw/bLCNW2V51N9MyXDReranALgCvXtzX09Z4DjGATNH0hdiChEAQgCpXs4lpRvt50HYR6yRC3gZsfa7RESfJXkE/Ec0Yx9LjBsBHiHWyIG3A/9xWoxD5JigCAAhaMGfWS/N2I8AOFaskXNeY+ZfSpphfxBLZ38MphtE6CoIEIRH15UbJ8sNgyIAhCANihl7KpjPE0uomyAR8z22a14ky6R5mvE380Cy7KsAnIfelcjK6zBRl4wYPxc7FB7SaQpyRmT9VoK/+lGRicbrmj0/mrbPEHN4Kb2Yohl7PFl2I4DzZRxTbvCaWKN1udhBVgAEv8+K0tZhBDwjbes5L+twz5kWKVooplDHpKbWcsfVbyPgcLGGtyqAmH6aqDCeElOIABB8yBlLeYuiNmseQIPFGnnBIuAG1zRqU2XUKubIobBt5mIta1/GhMsAFIlF8sJKzTJ2nl5FX4opCgNZOisgitrsOgn+ecVk4FKy7Heijdk9xRw5Cv6Z7F5k2e8z4UoJ/nllRzdkSbpgWQEQ/Ea80Z7AxDP8UBcGPiLgbQAfMPhTsPYZNP6YidcRUz+NYQCAS7QFXB5MhCFEGMqMoQCqUBg52m0A1623jKsld0D3mJLhonWuXUuEX6EwrufNApgPYCmAZSBeCmjLiXl1e3+AzcTrdFB/dml7hrs1gbYDsDMDYwnYwRdBg+jMRNi4VzxUBIDghxnSwpZhpBvzAPTPUxU2APwYoD2uk/5qT27Wq67nUF/D2oU0jAVrYwHeF0BFgJtnHjFPTFSE5omndp5YJrs7mGYAGB3g11jITG9o5M6Fi7nrHPODnojByRneyWFnf4J7HIOOA9AnT++12tGNXeTiLBEAgh8Gy7T1TwDH5aHoRoBvJNe8L1FJ61QVMrmhpczW9aOI6SgAh+Rx4OvJzO+aoSuNa2sPJls89vupmcum3c++ggm/QfBS+G4A8CKIn2LbeUrlPRLjMtw/BGscmC4CEM7Duz6SjJg/E48VASDkdaZkHQjGS96WysuJtd8Oiej31BK5nq52NHMxWc5PCO44Bh0PoCRAvW2uzu4EOSmwaSZm2qo01mYC2D1A1d4I8D81aPf2If35qWFq87Lwama9NO2cCXKv8Xr/DzH2T1SYr4nnigAQ8gEzxZrs/4Ax1qMSXRButDcaV/ohPei4DPcvYutnAJ3JwMEIxqbWjUR8fiIcmi4O/A0hm87+HKAbAyLoHAAvEtM9YP0RlatfneXcei5tMeyrQbjAw37wVjJs7CNpsUUACHkgmrbPILA3m3EYH4MxLllpvuhHW0xYxEM02z6HCGcB2Mr/PY//bmrmz+tG0Jpe7cPt2fzuBnByAKr7OQh36zBu78k+F5VMbLQO1Qj3AdjWEzcmOjURNh6U0VgEgODtwFlMlrUQoGEeFPe+Tsaxfh30vkn7BUjWOCaaQsDOfq4rg5oJ7unJSOjfvdGH4xlrb3b5fhAN9XlV5zHxLTDM+4KQ32HCIh6iOfbj3vg/LVpv6aPkpIsIAMFDYpnsRWC6wYMo9QaHjJ+mymh14ERSxjpIc3EpE470cTUtJvxuWLnxF6/3U+SLWmZtSdq+jAhXAe1HQn06Oj4F4Lpk2Hw5aDZuTwpmPwXgx+rHCJ6SrAjdKqOyCADBi1kus16asZo8mP3PZ9PYP4jB/3+FQHYvAv0ejKN8XM3ndMMYP204fVLIvhtt5u01y76HgUP9WkcG/qUzXz29IvSfINt6Uj1v6Zr2awBGql4FGBrWI71FwIoAEPJKPG2fxOCHFBezytGNvQvprG+8MbsLiK7g9u/NfvT9VdBQnSw33yhEv53YYO1LGmb7JaHNJnheY74i6IH/m7TnDrDeUH1CgImOS4WNx2V0DhaSCjiAMHiK4iJaHdc9qtASfSQqQvMSEfMUZv4xAD8u6w6CizmxTPacQvPZWGP2PE3DHF8Gf8YcV+OxyYh5WCEFfwCYFqYVGuF4AEqPJxLz+TIyywqAoJjowrYxpGsfKBYYF6YioZsL3ZbxtPUTBm5Ce/phv4m8e0OlZk3dINoYaH9tz9twG8Bx3w1+hLQL+m0qbMwudF+Ppa1LAPxFZRmO6+4ys7LoAwiyAiAoGrR0/SLFivCFVNi8pTfYMhExnzfXGrsR+OcAPvWXMqdx1nr79Xi6dXhQ7TthEQ8hy37Fh8H/SyZc1hfGzr0h+APA0LBxAwhKj/Dqmv4LGaFlBUBQN5saSJb9EYBiRUWs18kYGYTjfrnmjKW8RajN/j0B58FfO9O/AGFcMmw+EyhfbbKOJBf3AtjSR9WyiXCLaxjXBH1ja3cFme7YCwD0VVTERnKN7f2QGEmQFYDCa6ysc5zC4A8Q/tIbgz8A3DeUvkpFzIsYvCcAP53L3wqMf0Uz1qVBsWU8Y11GLv7ls+D/puO6eyTC5sW9MfgDwMwRtIwBlUeH+7iac6yM1CIABAUw8akKH7/K3mj8rbfbOBUJvZ8MG3sT00QAX/ikWjoxro2ns/dHm7nYr7abkuGiWDqbYsaffTS2rGbwhevDxv7yfRroYxnXg/GxsoBCXC0jdXCQTwABoWP5/xMAISWOQDxZ8tN/x+bba1nreiY60zd9hfGGrRsnzionX+1ZmLCQt9J1+2EAB/pocJutGcaUQs+t0FVimew5YLpd0ePbsmRse2+Y1oqlZQVAyNVglnWOVxX8AV42ZIU5Q6z8rdWAMvo4URGaAMJRAC/3SVTbR3edtyZm2nxzciG6sG2MrltzfRP8mZcScFgiYp4iwf+7mGvMaQBWKnp8kcnOMWJlEQBCTgd+PkXhw2+Te+q/n2TYfCZL5miA6vyhAbhMY+2taMbO+/fWaJN1JOnaqx7dSdGpWX9bsblbImI+L567aerGkgXgDmVBRT4DBCesiAn8T80iHmA59qeKVgA2apYxeHoVfSmW3jyxtH0Mg+t8ktDGYfDF+crZEG+0LmbCdQB0H9hiJTGdlagwnhIv7YQfZ3gbsL0MajYVt5ZYxja3V9F6sbSsAAg9xHKc/aHs2z/dK8G/C6sBEeMJ3TJGA3y/D6qjE+imaMa+tZrZsyBczazH0vadTPirL4I/8z1tRcYYCf5d8OMwfQaQKh8ubgnZ+4qVRQAIOYnSfJCyR7vuNDFw15heRV8mI6EzCHQygC/z7x78i9KMPbt6OZeoLqtmFfcpzdj/QHvypHzzBTH9LFkRGn/fUPpKPLOroz9PU+eTOFgMLAJAyE1nUiIAGNQ8PWK+LRbuHomI8bBOxi4MvOKD6pxY2mLPqWnkrVUVMKmet7Q32M8COM4H7/uyTsauiQrjEfHEbq4CjDDeBFjJfR/so9MgggiAwFKziAcwsKuaxucHQcRi5e4zLUwrNoSNQ4hxFQAnz9X5sUXOm5OaWstz/eDJDS1lrmm/wYx8L+06xLhqfdg4tLcmrcrdzIKYQf9Q9PSx4zLcX4wsAkDoAVnXOQCKvrM6Gs8WC/ec2UROosKsBeFQqDte1dm5V7nr6K/GMtndc/XE6MK2MY5mvAqgIs+mXqEBhyQqzNrZRI54Xg40gAZVY4BR5DqyD0AEgNCjDgpWtJTGS2aMMN8VC+eOZNh82WRjVwCP59lptgfTnImN1qE9fVQ8Yx1OuvY6gB3zq2vwT80ydpkeMV8RT8uhz44w3lQlWlnh3iVBBEDvwMXeiqT/87L8n3vqKujzZNg4noBfA8hnboX+GuHJWNo+vbsPiGXsM5nxBIB+eXwPmxkXJyPGiXJaRcU4QAziFxQ9fW8xsAgAodsSmgmE0Yqe/rIYWN2gmoiYf9GAQ1XmXe8EIYDvjaWz53d55p/Ong3mGQDMPNb/c5dxZKrCvEHEqsJhRt1YsDOYJdeMCAChO0xsahsOQMlGGkfTZSlVMdMj5isOjLEA3sqnHAHopnja+lVnfxDNWJcy6I58jg8EvKPZxtgZFeYL4klqMRxnjqJHD5i0EEPEwiIAhG6gu8bOiobXppkjaJlYWD0zK2hlKRkHAbglnyKAgevjaevazc78G61aYlyLvFaWZ60rMfafPoqWigepZ1plSTOYldjaMZ2dxcIiAIRuwBqPUfRomf17yNQwtSUj5gVgPgtAW978Cbg0nrZv2dSybC2zFkvbtzPhyjyaqpWJJyUqQhNmD6YW8RxPI4GazwCusjFMEAFQ4AKAoUQ9E7uy+z8PJCtC0wA+kIGP8icCeEosYyW/mTq4dg4bSzLWTIDPyaN5VjHzAalwKCGekpexRsmYQBrLCoAIAKFbnQe0i6InzxPr5kkEREL/dtnYk4B38uhZE0sz9iPRZi6urufQ0h3tvxNoXB7NMs/Rjb1TFSHJSpmvQKDRB2qUBYkAEAEgdJXaOWwAXKaiS7ohY75YOH/MrKCVxZZxEBEezWM1joVl/7OfaT8J4Gf5W5HAw3aLsa/sSckvtmV8oOjRI2qZJc6IABC6wpLtW3eCkgyAvDRVRqvFwvnl9ipanyg3ftaRQjg/6wDA4Qwcmkcz3DIsbJwyaxfaIB6RZ1E6kr6AmoRAoWWN2F4sLAJA6AK6big6PkMfiHV9AhEnKsxaZjodQGsvevM2YpqYjJgX1BK54gh+8UcoGRtc3ZKjgCIAhC7N04kGK3ku0CjW9RepCuMBYhwG4PNe8LqfEuHgRIUxU1reZ2MOqxkbNGgiAEQACF1SzS4PVSLymeVbqw9JVJivueTsBSBTsAEG1Ow4zv6JsPmmtLgvG2i5GmHBIgBEAAhdi9RqVgBI00QA+JQZ4eJFbBoH5PeEgCp/xlxH0/eaObI4LS3t0ybSlG3EHCzWFQEgdGm8VKSaXVeyq/mYVBl9bLUYB4LwVAG91nPkGIfMKqdPpYV9vACgaGwgknTAIgCErrKDks5om8vFtP5m1i60wVxjHA/iAvhOTsmhK42jE5W0TlrW3ximqWQFwGUMEuuKABC6pse3UPDQ9XKlajCoG0tWstyM5vOYYI9DP3BdMqxPqj2YbGlR/zOtDJ8CyHkKZo0wUKwrAkDo0uBJAxQ89WOxbJCcoP2YIDGfByBIx+VcAp+TiJiXyTW+wfI3MOf8Mw2zCAARAEKnqWXWGFAgAPgrsW7wSFSEbgPoTABWAKprgymeiITulJYLpAhYreCpIgBEAAidZckS9FfUNqvFusEkGTHuB+hn8HfCoDZiOiVZYcyQFgssKsaIUPVyLhHTigAQOkNrqxLFTCIAgi4CnmDCUQD8uKFuAwHHJCqMR6SlAgyrGSO2WCerACIAhM6h62o6C8kdAEEnFTZfYuZDAXzhlzoR8BURDktEzOelhQIOsZIxwjWyIgBEAAidiv+g/krEPfMasW4BiICK0NvULgI+yf+EER+R5h4g2f0KRgEoGSNsUrGpWRABUIAwEFI0U1sr1i0MEhWheY7jHABwHvM68BImZ//p5UVyvXThoGSM0JlCYloRAEIncDUYalYAIOexC4iZI4vTYP165OOgHTOI8NcZ4eJF0hIFNPkgNWMEayquNhdEABQguktKOguRCIBCItZgHQJy/wryOkq0OxMz3RDPWIdLSxQOxHCUTGpcNZMaQQRAIapwJQLAVdS5Be+JNmb3hIZ/AijyPvj/93+FmPHQxKbsHtIiBSIAFE0SNCYRACIAhE4GajWdhVgEQAEwqam1nIgeB1Dq+dT/u4n9+mkuPRVvaK2QlimAyYeiz4SqPmsKIgAKUIarWQEgWQEIPPEGHuS62nMAtsuHY2LT3xu2cTXjqZoFvIO0UNBXAFjNCoB8AhABIHRWLkP2AAjfoWYRD2DNfhKgYf7TrFxmGfazZyxVcomV4NXQo2iSIJsARQAInQ/USrZ1MXm+XUzIEdFmLrYc+wkAu/i4mqOL2uxHpmS4SFosoGMPqzlTQhJrRAAInQzUQJuiRxeLdYPoEEywrGkA9gtAbQ9c71oza5llbAnk5INU5exvFeuKABA6pwDUdBaXRAAEkFjGvp5A4wIURU5Z2mT/QVoukCgaI1gEgAgAoXPxn5WsAJDXR8aEHhNPZ2sAXBJAJ748msmeKy0YtGZTM0YQywqACAAhrysArgiAQBFttI9m0G1BrT8x3RLP2MdJSwap0RStALCsAIgAEDqHoaizkOwBCAoTm7J7EPHfgUAfn9KZ+d5Jmexu0qJBmXuo+UxoiQAQASDkWy3LHoBAzPwXtgzTHHoCnif6UUKpw/SvSQt4qLRsAHBlBUAEgJBvBaCks2js9hXb+pszlvIWpBtPgrB9obwTATu4hv1EzSKWK2H93lbk9lHxXJOL2sS6IgCETlBkFW1UIu6JthTr+pfqeg4Vtdn/ADCyAF9vtO3YD9fMZVNa2tcSQMkY4ZrYKLYVASB0RgCY+FLRTEwEgI8pNZ1bABxUqO/HwKHZfs4d0tJ+jv/YSkXTD12Br8S4IgCETjA1TG0ANuS8b6vp3EIOiGWyFwH8c48D8jXMuNbT+EI8KdaYPU9a3KcijUnFGLGm9mCSNOQiAIQudMUvc9+5ZQXAn8HfOgJM13s81atLRczfpyLGb0A0zdui6aZoo320tLwfFwBYwRhBX4plRQAI+e80W0iKVn8RbWyrBOMBeHncj/HPoSv1X3w9JV9frp/NwMMevrZOxPdPzLRViQf4h9o5bADon/uhjEUAiAAQujhIq+g0enoZZCe2T5hUz1sS6Y8DGOhhsS9xyDjtm0uys4mcDZZxBoDnPaxHf2L98ZpG3lo8wR8sGowtgdxfGMZqxjJBBEABx39S02lKrDbZB+ADauay6Zr2wwCXe1jse1kyjk+V0XeOmc6uoqypGycDmOdVZQhcZmn23+VkgD/QnayST4RELBsARQAIXRsc6QsVz3UcfQexbv7J9vd8x/9KnYzj7g3T2u/7g7oRtMa0jaMAXuad0sUhcjLAJ2MOa4PUNLH2uVhXBIDQlU7Dar6bEdFOYt38Ek1nLyDw2R4Wudol94hpYVqxuT+sG0UfscPHAFjjWeCRkwH+GHN02lGNsJAVABEAQlcHxY/UrCywCIA8MrHROpRAf/WwSIuA6hnhovrO/iA1suhDJpwAIOuhw98Yb7IOFg/JIy4PVrS0sEqMKwJA6Ioah7ZCzXOxo1g3P0xawEM1wv3wbsc/E9PkRMTs8ua+VNh8iUGxdpfxBINdzJ7c0FImnpKvYKBmBUDVWCaIAChYdHZVCQBZAcgD0WYuZsN+GMA2Hhb7+0SFMbO7P05FjPvAuMbD+m7laMY/alZxH/GYPEw6SM3qoA5XBIAIAKFLnZFNJZ2GRADkB8u5g4E9vCuQEsmI+YeePiUZMWoBnuGhpXa11ll3icPkBSVjgwtTBIAIAKErDKnAxwAsBY+WTwBez/4brV8SOOqdesSc9ZZ+Tm50BLG51jwLwHPeaRc6M5rOThHP8RwVY0NbshxyCkAEgNAVaolcQMlGwB3k3LV3xJusg4lwnXexHx9kNeOE2VWUsw18dWPJMnWjGsACzzQA6G+T0tYB4kHeMCXDRVDyeYpWgojFwiIAhC6P5qRi6Ux3BrYNFeOqZ8IiHsIu/g7vNv19rsE58YfO+ndbBIygNezYPwXwmUfvYrrAg5MzcmrFC1o4O1xNPODlYl0RAEL3Oo+ajYCOERbbqiXazMW66+mmPwuEkxOR4sWqCkiNLFlCjJ8BaPPonbZz2H6sejmXiEepxSVdyZjAisYwQQRA4UO0TE1ndyNiXMVNZ1t3gTHWO61IZyXD5suqi0lUmK8R8S88NOVufTc6U8WjFAsAV1FKaiZZARABIHSz9zSp0RVaudhWHfF09mwwTfCwyOuTFYZnO/UT4dB0MG70TgfzpGgmGxfPUmpkNauCGmfEuCIAhO5N1dV0Hmb5BKAq+Ddmd2HQDZ6N24yn14eN33j9nkMjxiUAHvfuPem2WCa7u3iYqkCgZkzQmZrEuiIAhO5gGIrUM4kAUEC0mQcyaf8A4NU364WGYZw2m8jx+l1riVxyjXEgfOhRkcVg7e81i1ius1YyJ1DzCUC3DVkBEAEgdIfkCKwA0KKguw+trueQWDinIyiRZScAHu5RiV+45BxbN4LW5OuVE5W0jm37OHh2MoDLLceeCWYSh8sdUzJcBDWXhK2vG4mPxcIiAIRuTdSJQVCxhKb3NbLDxcC5I56xLwFwokfFZZlx4oxw8aJ8v3dqZMkSDTgZapJWbYrj4k3WBeJxOYzSyI4AoCt4dJPkABABIPRo0qNEAEAjvUqMm6vgb+3NwB8904XgC1IV5qt+ef/pEfMVYr7Isy7B9Jd4o7WfeF6OcPUxavwUsvwvAkDoIao2Ao4R0/ac8U28LTNmA/AmuyLxzEQkdKff7JCoCN3GTNM9Ks5gwv2xDG8jHpgTn1IyFrCa1UtBBEBvWgFQc4yGCSIAekgts2a49j3w7n6Ff5fCrPGtQUL6eQz8x6PSdgLsB6qZdfHEHqNmLGA5AigCQOgRLtPCQHX6XsTSjH0VgMM8Ku4TnYyTp4apza/2SJVRK2nGyQA+9UYc45DSJvsK8cQeLwGMVvJUogaxrQgAoQcUmcZ8ACo20owYP4/7ioW7RzRjHQTgco+Ks0A4dVqYfJ9WNVlOy10XPwOQ9aRAxpWxBusQ8cjuEW/gfgCXqWiZNhj1YmERAEIPaD/mpSSftmYWWSPFwl0nluFtwLgPanZOf3ckJb7QizS/uWJGpfk6g3/t2RimYWZNI28tntkNdHs0AAXHKqlZxaVUggiAXggpSbbCmnwG6LrRmMD2dAJ28KTlmWelwqHbg2amVCR0M0BJj4rb0SJ7huQH6I47886KHvyhWFcEgJCTvoQPFE0tRQB0efZvXwzgWI+Ke9sN+XjT32ZYX6L/AsC7HhV3dDRjnS8e2lWFqY1W81yIABABIOSkkTSar6iT7ibW7TzRxuye8O68/+fQjJNSZdQaVHvNHkwt7NgnEfCVJ7EMdN2kTFZ8uks2YzX2YkVjliACoLdhO44qNT1WjlF1jnPruVTT6B4AXqRQdlnD+GR58K9STY0sWUKg8QBcD4orcll7sH1jm7A5auewwaxmEqCT84FYWASAkANanFAD1OyqLi1tylaIhTfPRtO6kxkRTwpj/CFVbj5dKLabHjH+xYzrvSmNy1mzporHbp4lO1qjAfRR8Oi2nVaGJAeACAAhF8yuoixUZQR09T3Fwj9MNJONE2icR8F/zvqIcXWh2XBDxPgtgOe9KY0mRjP2ePHczfqaqr6/oPZgssXAIgCEnHVWfk/JYzWIAPih4N/YVklMt3hU3Epbz8/1vspFLJFj2sYEsDe3wxHzbdFFrXLt9Q/ZiLSxip78vlg3GBhigqD0VrwN4EwFwkIEwPdQXc8hIvt+AF4kTLKJ6SxyYE5Y2BohU+ung/rDhe4SlQAoJoZBcPu1T95oIBOIXPQhQhEzQiDaRD3dUgKZm2769v0MRJv+vMRgC9DWfzdw8HowLGa0sYaNGsMFeA0AuKythQaHGC0EbnUJNhOvY8td16phA2tUYzA/AvU5FPqRq99XM5f3qRtLlnjzJltYTd8n922xrQgAIadqnd5mBfkACdhlSoaL/JxiNl/0Ne0/ANjVq77IxE/qsAFdB9z/T/9I32h4/kbOFuL2BuSOhtx0wkj6/jSS9PUzf+gPeFPC4b//mfjrv6CvxcF/f8IddSSm9neCrSan5ffGN4y1+ttXAvitePP/Em3mYli2kiOALnl2H4TQQ+QTQEBwDeM9qLlzvWgtWaPFwt8aIDP2scR8sVgi8Fwey9jHixm+NfDb9m5Qc4NlW3825QigrAAIuSRVRq2xtFWvYkaqMX4E4J1eMvMZyHZ2R93Vh0BzB7mgnQi0E5gHMbATgG0I2AYuGyBJLKd6iq4kC+23JznMj8bSls3AZ2j/t1wjWuWCVwK8HESrmN3lZIRWpspoda+wPPOeimz/gawmigAQFND+GYBzLgDgYh8AdwTdPjVz2Wwb0DYErj5MA5eBaBiIBwO0ExiDAAyBZfchaGBigKljCPzmIvbXxhZ/88CjPR3rOtI37wBgZ+avP6a0f0MhaIBlI5a2NgJYRsBKJl4JpuVgXuKCmnVymo21RcsLYk8BY18V5mciWf4XASCowHXdt4noLAWP3j8oNog38CAHdpmmUxkxlzGoDOAyMJdZZO+ksa63D2xff+CWSC50iT4AKhmo/K/vEEEDwNBh9bedWDq7HKAlADUTuJmJml2Hm3UYzYlKWhWQ2cR+Sh7rQjYAigQXVBBNZ3clkJLjgNCMIX7JPDclw0VrkS0n6KMAHk5Mw4m4ihk7A5Asb4KfaQOwiIB6AIsBXgymBW2a8YFfbsebmGkdobHepCaiuFXJcNECcQNZARByzLCV5vylO9otAEpyv7zg7Afgfi/fJ9bEgxl2leagiokiAEcYqFjP9g5ax5yrYxoPZml/IRAUARjFwKj/zrEICLGNaNr6iIBGgNLEnHZ11BOMeq+Ft87a/oq60/r15aFGcQERAIICag8mO56x3mXGvgoev78qAXDGUt6iuNWuAvEoBlWhfXDcBa69DeHrVfpNfIcXhALi//cg8EFMALkAYCOWttYSkAHzAlejeoAWhCx9bt0o+khFPZi0fRUp6rmFmMRKBIDgHxivAQoEAHGPvwnWzmFj8Q7ZUYZGuzNoVwJGMzAGbfa2TBLeBeF76M/AHiDag7i9k1uGjVja+oSA+S7wITG9z67z7rCPQwt7nGaXWcmeHwZelaYMnCgVgkQsbR8D8OMq+q9mGVtPr6IvO/PH7TvusxHd1fdg4j2IsEfHzWJ9pJUEQRkWgAwxv+MS3tGY3lnXx3hn9mBq6dT4keFtwPYnKsZ+Bg5PRcznpIlkBUBQRFuR/npRm+0i90mcCKazN4B/bWpmv3wna4wL7MWutgcR727BHq2xZnL7lEW+0Xd2iBTNLfQME8AoJhpFwHgmoLTFtmJp60Nmeo809x1mvDlspTl/UysFzM7+pMYJHc013pLmkRUAQTHRtDWPgJ0VPPr6ZMS8NNrM28N29tRc3oMJewDYD8BAsbwgkiwwbCDC+8x4h5jecV3rldTIkiXRtHUjARcqCCTvJCLmWPEoEQCCYuKN9m1MfK4Cd/gScNcDNEQGf0EoNIfnpSAaCGCAgr50UypiXiRGDhZyF0AQ+zHhNUVP3rK3BH9Rv0Lvm+7RUBXBv+PhsgFQBIDgBQ7rr4gVBEHwDab+hhhBBIDgATMraCWYl4olBEHIN0RIp8roY7GECADBq04HyCqAIAidR9FJHdeV5X8RAIJnTKrnLV0dGwI3UgiCkNdZg5IgQth4xlLeQgwsLiEoIp5uHe5CO5ZAxwA4EO3ngQVBEPyAQ8D7YDzh6Pz4jPLQO2ISEQBCN6lm1vul7b1BOIaB4wCMFKsIghCQ0LIYwPNMeGJDVn9mdhVlxSYiAIQfYFyG+4fY+SnBPY5BR0KS7whCXpAcETkNMl8x+Glm7TGN9X8lKmmdWEUEgACgZhEPyLrOccR8MoDDARSLVXoF6wBsBGgDgb9ygQ0aYyMI65hoDZg3gLCRgTUAoDGvAeC6pLUAaNVc2CBuH0hdXu0YYNPljS647dsFGXZRy/q+aO1K5Uo3oNg22r5z7bQGKrI06qPbIGjULlCZ+rkaDADFGrslADSXaEDHADMAjL4g6kPMA8Do5xL6aEBfBm0BcF+03x/RT1yiV9BKhKcBeqgN+uP3hmmtmEQEQK8i2swDKescD+KTARyG9jvEhWDPGD8i4leYta+I+CswviTir+BqX7oaf+U67pe6EfrKJKytG0FrxGKbFsMWo79jZ7fQdG1LzaUtoLlbMtMWIGzJTFsQu1tCowPA2F4sFnjaADzDRA+FNP0x6RciAAqWcRnuH3KdE0F8CoCfAAiJVQon+OuWMbqzNykKPWPCQt5K1+z5IBEBBSYGniOm2WD9EflMIAIg8NQya8sy9iFgnsBEJwIoFasUYCdi+lmiwnhELOEd8Yx9HDP/UyxRkLQS8LhLNCu0Rn+6bixZYhIRAIFhUia7m+vSeACnyyzFUz5joJmIm8mlAUw4Uv3sn1KpiBET03tPNJ29h0DjPCjqSTCvB1EZgDIAW4v1vYGBjzTC/S7zrFQk9L5YRASAP2ckDTyINftMAOMBjBaLKBoPmJeBKM1EabCbAWmLdXKai9pCS26vovXfaIt6qD9FsZJNY3SqjFZL0+RBaNfzlo5pzydgB8WD5FeuaYz6Ot1tvIH72ciWGbo+DHCHw9XCTBwBOALQYBlXlTEfwCxyjXsSlbRKzCECIK/8d4kfqGHgBEhynlyxmoBFABYDWAymBY7u1vdtMxu/DvI/RCxt/QPAico7D9PRiQrjKWmu/BFL28cA/LgHRT2UjJjVm/uj6noO9TPbdnLJqAJ4FDENB3g4gDEAtpMWywkugBeZqG7YCv2R2oPJFpOIAPCMCY28o0F2nJkndVyxKXSPtQAWENGHLrv1zDTfNI3504bTJ90OCBn7ZDDPVt5xiO5OhI0aaUI/iIBsCqCJHgi+Hu31iDbz9pplj3bBVUTaaDCPATAKcgSyB/ASgKaRayRlVUAEgDKqmfW+aecIAteA8FMAhn/6gO9bMgtgAZjns0bzdab5jmPVp0aWLMllITWLeEDWsReqXhIGeFmWzDFyhtkfRJt5IFn2fAA7Ki5qZZaMUTltd2aKNrQOJd0cTcSjXebRBKoCUAVZUewKNhGegEt1QyL6M7VErphEBEBugoptTyLiKQANE4tslhYA8wB6D+y+Cw3vrs+a871IBRrL2FPBfJ5quUXA4YmI+bw0tX+IN9pHMfGTHhR1czJiXqh8wlHPoT5F1hhysDuRthvAuwPYGUCJtPZmw9piIndqG8yEiHQRAN0bUNKtwxn6+QDikCW672MDA+8Q8B4xvUu68+7g5aGGfHyTm9iU3UNz6d8AdKXRn2l6qsKYLE3vP2KZ7AwwTVBcjAPiHyXDoXe9fr/aOWws2T47kjR9dxDvBmD3jn99pfU3yVowputsT51WWdIs5hAB0KlAoju4gIlOh5+W+X0AAx9pwGsu+HWN6Z11tvEfP1zyUcusLc3YbwD4sWIDfNxWbIy6byh9Jd7gPybV85auaS+A6s12hLnry429ZhM5+X7nama9T1O2Unf1PZiwL8D7AaiEXPX+TVwATxJws6zciQDYZCfqm3aqNeJLGNhDLPIdL8m0hYwf+zXwxdLZ8wG6Wb0AopNSEeMf4hA+XgVotE8F8QPKfYH4F6lw6Ha/CiHHdOYSuEw84rviDS79dWhEny37BHq5AKiZy6bdzzmdiS/vUM3C94x3jm4MmzmClvmtYtFm3p4seyHUn/l/PBkxjxNX8D/xjPUIM05QXMxaco2Rftx5PrmhpczRjMXiCT8Y+hYT3OuMtWayN2ca7JXLRNX1HIo32hOs/nY9E8+Q4L/53qI71gm+rFjWutmD4L/GYeMccYOA4Bi/ALBacSn9WbP+4svX14yTxAk2O6cZzqC7rH5WJprOXhBt5l55C2uvEgA1q7hPNJ29oNS0F3cE/rB0hE6H2hP9VqNYxjoCRKeoHyv4kpkVtFJ8IBgkKmkVgS/3oE+cEU1bh/mup5Ly1Y8CGtZoKIFuIsvOxNLZ86uXc686ZdErPgFU13Oor2n9nEBXQLJxdXtiATJ2SIbpMz9UZkqGizbA/oAZEcVFvZQMG4eAiMUFgjTBY4o12c+DcYjiIbSJTX1Mqoxa/fDakxfzdo5tr4JsAuym3+BjAv/BWGfW9YZPAwXtJLXMWjRtn1FqOgsJdEsvCP6NRHhF0bN1hnWsX150Pdu/9SD4t2iac5YE/0DO7NixnXPQnpdCZcQo17L2ZX55bde2TlQ4rr8MIFPgU+LtmehWq7+zINponwbmgp4kF6wAiKetnyzN2G8T+N6OXNwFOSsnwutMuAzkViUjZqVr2xPRnhtQwVhHP/NF2za0VgD4lRcacnp5cZNE02Ayc2RxGoxrlE8aCZdFF7X64nMig05Q9WidjDOTETNCcEYw+EIAz6M9y2chLgWUE/H9sYz9QTRjVxdqHyk4dRNtzO5JGl2rfukvbw32FYOfZtYeyxbrz2zqaF4sbb2D9gQhuSbbVmRsn+/jgLG09TSAIxQX8+7QlcaP5aKRYFM7h42lO9pvA9hVccd8Khk2j87nu9Y08tYW2R9BQf4SBv6TipjfybNxxlLeoqjNOZLgHgfQEQxsUaCu9Lyr8WUzykPviADwIe3fvqzrAJpQgMJmBYCHmfDosBXGa5sLSrG09VtAzcyHiCcnwqHp+RN49glE/IjiYlyA90lGQv+WEFogkwKiN6E6SyTRcamw8Xi+3jOWyZ4DptvVvBsuS4XN6zYntpYNtvdnFycAOAnq72bwfFkAoJSt6ZfNKqdPRQD4ROEv2dH6BYGuAjCggHxtOUCPEGP2kIjxRleSVkzMtFVprM1XVLHnkhHz8LwM5M1cDMtZoDrBCYGmJiLG+RI6C0gEpO07CHy24uF0MZt6Vb42BMbS1ksADlTyZq5TmagsbuzKbyZm2qp0V6tmojMBHlFA7rSawbXDVpq3BX2FMNACIJaxDgQwFYwxBRL0lwH0KDFmJyLG6z3ZfBZLWw0AKhRU0tENY8eeXNnbg/b+PRhXKdb4H3PIGJkqo9USNgsH726KxG+TEfOPnr/fAt7BMuzlilY56pMRc3RPHvANMTAO4PICcasGAqYEOb1wIDcBTmjkHePp7P1gvFQAwf9zEN0K8F7JsDksGTEvSFSYr/V05zkBjyqqr+5a1smeB/8mHgzGrz3QxBdK8C886kbQGiLywH9wRXRhyzCv3882rVOh7hNHjz+5zQgX1ScqzNpkWI8w8d5MdBuALwLuVpUMPBtNZ++pWcA7BPEFAicAohm72iD7QwadFmDHaQPwBBOdst4ydkyGjSnJSOjfuTxuxlD3nZyJTvV8bcS1b4T6W8+eS1YYf5dwWZgkw8Y9BLyguJgSTTeu97x/sMI+mcs9N0ScCofeSoWN89aHje0IOIyYZwHYGFC3IgKNswx7YTydrQnascHAVDbewINYs+8EcCyC6inAOy54VojNe+sq6HPVI0IsYy0FaLCCp7s6GUOnhWmFF3ab2GgdqhFUL7O1apozRo79FTYTFrZGdF3/AECR0oJcHJqsNF/0ZFK0sGUY6cZiNeM5L0mGzeGqc2FEm3mglnWOY+LxAA5FcD9PPwPNOCtZTstlBSBHgSyeztawZi8MaPD/hIDrNM0JJyLm2FQkdLPy4N+htEH0oCq/sV37FC+MVzuHDU3DjR6osz9L8C98OnIDXOfByDq1Zi6bnryUYZyqKmAy0wNeJMJKldHqRIUxMxkxD2PdqQBwPYAg7rQ/Aq79YTyTnRSE1QBfC4BJC3hoLGM/y6C7APQPkBMwgOeJaSKbxrBExLwsH8GFXVa3nE3w5DPA0p2sKR7s88iw4f2yrZAfSjXjTwAaFRczyh5g/cKL9yGGyuV/zz+JpUYUZ5IR89L1ljGY2+/6eB6qkpupYQAzTYtm7KcnLOIhfq6obxVKtNE+jYiDFvg/YUaSNWfajHDxIj9UKJa2mxQdwWHWnYrUiGJlqUE78po3QvHxTpfxkxkV5gsQeg3xjHU4M55RXMwa3TAqVJ6YiTa2VRJpC5UEB0I6ETYr/NBek5pay9nVJzMQRbBSuq9horNSYWO2rAB0gurlXBJL23cR8f0BCv5vA3SGudYYnKowL/dL8G/vxMoUPMHRx6usu2M7f1Id/Bl8rwT/3kcibD5L4AdUzwQ7fFhd/9a0Ccr6hosH/NJe08uLmxIR87L1ljGEiM4EYW5QVgOI+cFY2r7dj1cO+2oFIN7QWsGa/ncAuwSgYV0ATxJws5/PgUYXto0hXftAzQjBS5MRs0zFN8JoOrsrgd5RLFLXkWtUJipplYTE3ke0mbcny25UPNFwXY1/pCKFbC2ztjRjLVG00RcgtyoZLlrg1/ab2JTdQ3dwAROdDgXpjxVQ75J76oxwUb2sAHy7M2bs8azpcwMQ/NcBVEeuMyoZMY/1exKI1MiiDwGocTiioZMy9v5qlCn9RbV/EuMqCf69l1QZfcyEPykuRtNc+quKBzen7YOVBX9gnp+DPwDMKA+9k6gITdBdO0LAdQBW+9zlqjTW3oxn7HEiADqorudQLGPfTcwzAZT6tukYHwP4VZaMnZIR4+ddTYuZVwiqTgPAYcr5EmS80T4RwE8UWyXTVzNulTDYu9mQNW6E+g2BB8Uy9vG5VxasbPkfjMDkw5hWWdKciJiXmboxDMClAD7xcXX7MfM90bR9h2enRH4wNOSRSfW8pWvYD4FwsH/bi5cxcMOGErNu9mBqQQCZmGkdobGu6hTCWrPU2KFuEOUkkUd1PYdKTXs+AKXXqxLT0YkK4ykJgUI0bR1GwLOKh9pFpaRXTQ1TWy6eNn4e9zVK7I9VTZo0zQkH9VjslAwXbWBrIgO/VbhCkgteM9k40ZNj4X5bAZjU1Frumvbr/g3+vITBF7JpVqQioZuDGvwBoGNT4nuKHt8/u945IVcP62vY5ykP/oRHJfgLX5OKmM8BeEzxeDJiA6xzcvU0vY/zM6hbMX07yDkxpoapLREJ1a23zHJimggg49Oq7meR82a0sa2yVwmAeJN1sOvq/wZQ6b82oSYQjR+60gynIqGb83WzV87fCrhf3bNzsxQ5YSFvpRF+q9gUrZpj/1LCXvsFOTWLeIBYAiA4FwFQ29eZfj+pnrfMSX1Z4fJ/+wmswDO7irKJCmPm0JXGqHYhQIt9ONEsJ9Je67jYLh9xwePgn8lOYqY7AJg+a4lPmPjq0Brz7rqxZBXaANeRSnkZ1FwYkpPUwNGMfSsxq02ewrg6WWFe2RuCu8327uxyhIgizKgEMAKMASD0BdDvWz9ZB8YGEFYDWEyEBmZOM1GjBePde8O0ttBtFktb1wDKBegtyYh5QY+EciPvqJO9VFFfttk0BqfK6ONCa9/qeg71Na2fE+i3ALb1WfWyAJ+djISSBSsAYmnrEgB/8ZnhNxBwaxsZfyr0QS6Wtp4FcJgiR/p1ImJ2u207Epp8oFYY8nK7xRw5axfaUHABfxX3sTfY+4FxiAscTMAeOQwQDoC5zJijaZizrth4NcifxL43QCznktIWawFAwxQWY4PcXXqywz7WaF0OdacXnkxGzJ8W8jg4fh731fvY5xHjN/BfrhlPr5P2TADE09bvGLjaX4oLd4KMPyTD9Bl6AfGMPY6Z71H0+AXJiFnVbQGQtp4gQO3AQ1SdDBsPFUp71jJry9L2Pkw0HuDTNzGrV0ULAU+4RLM2lOtPziZyCkYkZ+yTwaw6a9vjyYh5XPc0LFMsYy8EoCRDHzOdnqowHkAvYHwTb2uw8zsw/xw+WpFmxhWpCvNPXpTliQCINVpXgfB737Q84UUX7vl+Ssjg1SzRWm9/rCxQaNg3WW6+0WX/aLAOgab4mlbCi8mweWhBtGMjb23BngLiWP53OfNyYkrYrjF15kj6ohDsG0tbTwM4QqnVgMM7Nh92iUlp6wAXeFlRtdauLzG2L8TVnR+cfCxqDWu2fgsTjvRPiMJ1iYh5mepy1G4CZKZYo3WDj4L/CmKamAybh/a24A8AdYNoI4MeVlaAS5O7M4uFjpsUv7rtwj2/EGYs8Uar1iJ7UXuf8sMRJxrMhCt13V4aS1s3T2jkHYNuZ5fciwHYigf462uZuzz+MvNkdZWiB3tb8AfaLx9KVJhHMdFxAC/xxSoAcGksbSn/XK5UAESbnKkgXOQDe7YycI1ZalQkKoyZ6MVoGit8fz4t2swDu/KLZRlrgurb/oipLsiCb1yG+0fT1o2Gay9jwpXw5x0ZfQGcr5PdFM9YfxuX4f5BtXe7r9DdiovZdWmTc0ZXflCziAcw0UnKeq/LvXpsTIWNx81Ss4ra91e0+aBKl0TTltKr0JUJgHja+p3yHd2dU9ovEJyqVMT8fa6S1QSZxAjjJQY1K3p8CVlWp68mjTZzMQNXKX7ldZqpXx3U9opm7GNDbM0n4EIARQGocjEzfmmy3RBvtCcE4U70TQ8c+pUA1qid5rnXTMlwp9vUsq3xAPooqsySVMR4rbePj3WDaGMibF7BujMGwEs+iF8XxhqtywMlAOIZe5wHA/vm2MiEy4aEjcMTkeLFEDo8ipjA9yl8fqeXKDXLngKQ6vuyr1Z5HasqJi3gofG09TwxP+bzbGbfN3DtwMQzYhn7Wb/fib4pOjYGK96IRcO6lByIaJKymjDNUHGpV2BXA0YUZ5Jh4xAC/xzAujx3pj/G09loIARArME6hJkTyGOaYQaedXRjZCpsXldL5Io7f8s+ujOj3UxKjD92Uia7Wydm/wO5PW+3yp6zuJSMqUFrn3jGPs417HcZKIRNiz/RHfuDWMY+OWgVX28ZNwGkNCMeM13RmWRM0cbsngB2VVUP23Xug/CdyVIiEqpjx94ZQD4vfSMG1cUyVs43puZUAMQy2d2h4Z8AQnky1FpmrkmFjSNnjqBl4sHfr24B/FvV8x1om5+pZO1LAWylWDlfmqvc615QO4eNeNq6lpkfBbBlAbncADA/GEtbN1fXcygolZ5dRVkm/EZxMVtbjv2rzcciTdnmPyK8PnNkcVpGxu8ZL0eWLEmGjcMJfE4eVwNMMB6MprM5FYE5EwCTM7wTXPoX8nSjHwHvaJqzR6oidLcsZXVm5sEJdXKVz6xZxd/7rTLewIOIoHZXPuONZLn+cFDaI9rMA5fsaL/QsSpCBehyBOD8UtN+Jkjph1NhYzaAVxUX88vJGd7p+/7j+HncF+DTFI4F02VE7NRqwJ2sO3sAeD9PtegP0JPxBh7kKwFQzaw7sGeAsH1+1kd41roSY/8gX2DhNX1s836FanZAdoPzvbuVXXKuhrLNTO1FMPjCoAjBaDNvT5Y9h4ADeoHrHWQ59muBOi5IfCEAlZ8SSxx2vjcFsdnHOg3qTn6sK7HM2RA6JwhHFGdKydgLwC15UtE7sGbfV82ckyyfOREA/Zrsq8E4JA/2WAum0xIVoQm98fxqT7i9itYz04Oqnq+1b575DrFM2ygijioesO9JVYTeDkI7xNOtw8lyXoXC77s+ZLRO1msTFrZGglDZZDj0LpgVfyPnSfGG1opNq1mqUdhZ7ru9itbLiNh5poapLRkxL2CmEwn4Kg9VOLBf2v6dLwRANG0dxozL8mCEebpr75qsMP4uLtnd1nenKRvOGPvGMtndv/sftD9DzSUmX9MCMn8bBPNPzvBODG0OwOW9z/lomK7rc6ILW4YFobYOzMsAqLxDwmBN/9N3BXN2dwJ+pKpQV3PvhtC91YAK41HAGQvCh16XzYTfxRqsHk+6eyQAJi/m7YgxEx5fK0yMp7NkHDCtsqRZ3LAHDhwOvaXSeQna2d/83xMbrH0BHKfYN65PltNyv9u+ppG3dth+zoNjkH5mEOnmc+ObeFu/V3RmBa0EcKPiYk6MZrJ7/a+Q1qYoLO+9GeWhd2Qk7D6JSPHikqyxD4DHvJ6+QcN9NQt4h/wIAGZybfter7/7E+GGdRHjmN5wPak3UpIVrgLwGd/MDKhp+LPad8HHxbbxV98H/1XcxyL7MQCV4oBcbrj2E+fWc6nfa0qucT2AT5UOb0z/7SMTFvJWBD5VmeVJXd/vTdxeRevXh42fMZSnNP8222UNO9WTZFvdFgCxtDPB43PKNjGflwibFxfS7WP5RrPMewC0Knp8X822ogDQcYZ1f7Uvw1f7/nsmM1nr7PsA7C3e91/23GjaKd/P9ippHZivUVzMQRMbrUMBQNftSQBKFJXTkg2Z94vr5YbZRE4qYl4E5rMAWJ6JUuDwaMY53VMBMC7D/Zn4zx7aN8tM1YmK0G3iarllehV9CfA/1MU77Re1zBpYbWZIIqTNNabvZzSxJutCEI4Xz/vOQHZSNJ2d4vd6muvMu1QnB9IIf65m1hl0tkIl+uB9Q+kr8bzckqwITWOmExROqr7bd5j/1t2jtd0SACE4fyRgB4/ebyMRjm3fcCEocSCNFAZOLl/W5P4OwI+VTqxBV9SNJcvPdo42ZvcE07Xicd8nAuhv3/4G7jfqxpLFjN8pLmbPfmn7dwQuUxc0SJb/FZGqMJ4kDUcDWO9Rx9k+69i13RTeXRzEFraNIV17F4DhwattgIvjkpXmi+JWKqMnUyxjNwIIKxrY1zCUJn95Oxk2fuznc//xBu7HmvUBQMPE4X7QWxaXWPouvv6Uw0zxjP02A3uoE7RYS+rO/jcmw8ZISZimlklp6wAXeAJAPw+Kc4h5j0RFaJ66FQBmIl27y6Pgv44Ih0nw92LMJQagbjOg2uAPJvza74MZk32VBP9OWWr4RtP+vd/7i8Nq77EglVc+E98lwV890yPmK66LozxaCdCZ6NaubgjskgCIpp3j4c3mJQuE6kTYfFPcyBscx5gOD79b5ZAnU2HzJV/PBJraRoNwnnhZp4PfRfHG7C5+ruOMCvMFBp4NoHk3allzhniZR35Sab5OTKcAsD0obr9ok3OMMgFA4F958BIM8M+TYfMZcR/vmDmSvgA4aEmVXMd1L/d1DZnJdbVbAZjiZZ3G6M5sxmt04sugNkWwitWL+9o3/gpekagwngJRDKpuYP1m8zJfoUQARDPWQSDs44G9fpeMhJLiNt6jMW4PVo151szKog/8XMNo2jkVwIHiXd2azfj6CuHp4dB7DA7YUTr3DnEt70mGjXtAqPWgqB/HG639ci4ACPi1+qk/35uMmH8Ud8nTgFYR+g+AtwNS3SzBvdrvs3/S+DfiWT2Yzfh8FQCO81sAwbhymvFGMhx6VzwrXyLAvBoeCEamzu9P6ZQAmNDQtjMYRyqud8Yi81xxkzwPuuBArAIwcHsiUrzYz3WMNTnHgTFGvKrb7NLVb5pekxpZsgTAXYHo2xrdLi6VX0osswZAg+JifjqpqW10zgSAQXQJ1N5R3krM1ZLeN//0JfN+AJ/5vJobDMPw/3l65kvFo3psQ99f7MSm8WcAG31ezc/6Qn9IHCq/3F5F6zXiM6B21YgcV784JwKgejmXMNGJimedF3X1/KKghqlhamMg1eP5uVqHuWXacPrE37N/ax9Iut8cNDV+FM9YvrZjqow+ZsDvWUrrpoapTTwq/0wPh94D8yWKY+rPos1c3GMB0LfFOQqAsos6iPB6ImzeJW7hH3TbuA2A0xP3U8gaLev/C3/g0gTxpFwtAtB43ze3Y1wHwK8rmI5mG3Ltr49IRszbwHhDYRH9yXaO6LEA0OBWK6ykDZd/IUkpfKZQR9FSAL48hsmEG/1+jCnazMUEPkU8KWetfuqUDBf5uYYzR9IXDNzsx7oR4fGOPi34p1GYXfdsKMwPwLz52K1tbiBj0NHq+jWmytK/b2ddflzS/MKCcaPvjWc7xzKwhXhRzthyHTs/9X0tTeMGAnx3wY4buOO9vYPUyKIPAXVtQ6DjqpdzSbcFgJZ1joK6lJSrTcO4StzAp84Z0Z+C+t2qXZ39/yUIG0U15mrxoBzbVO1KZG76TBmtZuAGn1WrPhU2nhcP8ulEyzSuBLBG0eP7lbY6h3dbADC5yq4tJcLtdSNojbiATyFiJp7qoxp94mw0bvV/j2Zi4GBxoBybFXSI73MCACixjJvgo1M0zHyzfGL1uWhk3KGu/XFC9wUAtAMU1avVNYyp0vz+JtTXTAH4wid65NpZu9AGv9ssnrZ2BrC1eE/O2XbSomyV3yvZcYvh9T6pzmcb+pj3iOv4G8M0bgLQomTcBPbrlgCIN/AgdfdR04xUGX0sTe9v6gbRRlJ4S2AXWLWuOBgnRVjDIeI5anBdCoRt2TRuBbAy7/UA7pw9mFrEc/zNtOH0CREpEmpcPnkxb9dlAeBqzl7KZnPMokoDgkbGrQCszQw0amf/4GsCM5Ax7S9eoyqg0QFBqGeqjFrBnO9EVW0h25C8/4Hxbb5XmXB2nB93WQCAeIyaF8VHQyLGG9LkAVGnYVoB8EM/HKCVdo3l6ywzESCTjRavUSUEURWUunLInJbfVQB+oG4UfSReEwyGlhuvMqCkvVyXR3dZABB4pJIZJeihWiJXmjw4uBr+lrdBn3Hd7CrKBsFONXPZBDBMPEYZIzpsHIhVACLOW8IqBm4SdwkOtUSuxvSIkjGUuKrrKwBMFUqCCeNpae5gMaM89A4RXs/DKPbxuj7Bmf1n+2VHADDFY5RhZrdoC4zAcg3zTlWzuh8e8fFiKhJ6X9wlYGiqkq9RZdcFADBIyZAe0mX5P4gweZ6AhzS+LkibmEjTK8RRlEfVyqBUNVVGrRpwY2/oq0LPMVxFsZG/P5ZvUgB0LLMpOMrEK1JltFqaOnisC+uPAuTl9bufF2fNaYEyErvbi6coFlmuu12Q6mu1GLfD27wAmaFh/UnxlOBRV0GfK1kxImxbO4eNTgsAuxTboJNXBXetIpSRZg4ms4kcItfL3A1/6ThTHaTw1E88RbHGAvUPUn1n7UIbwN6tAhDzzbLHKsACF2hU8FhtybBNT+g3GeTJaOuj5O1cXiVNHFw6ZuReXMTzRYllBC5/ObG6WzOF/45YgRNZWc24zaN+85nRz0yKkwRa4iqJkZq16Zj+PbN8KlbyapomqX8DzO1VtN6je89vDN7sP5jBKYAzpMDZ+N4wrWXCLR4UdUvdINooXhLg8A9NyV0nTJuO6dqmJ+oUUjNDYluaONjYhnEvmBV2ALBmGIFMFMVMJeIhqo1MfYJY7T5kJKA0ZxbDcYwHxUGCLnC5TdGTOy8ANOKsmr5LhjRxsDFtezyIFHYAkGvb4wPZeYkl7apyI3MgZ7itjj0JSnNmETTDPl0cJOgrAFSk6MmtnRYANisayNgdKE0cXOIN3A/AOR4UdWFHWcHCxTrxEtUDZPBsPC7D/UE4X702wnk1q7iPeEmQVwDcAWp8owsCQHeK1NxMRLSDNHGAB1/dmgxgSw+K2srV7XMDZx/CevESEVnfJsT2FAa28KCora11VlycJNASYJCSbmMWbey0ABjyET4FkPujJMxhaeBgUs2sM2tTPOsGjEvOreeA7apnWQFQPkPitUGq7/h53BfABd6JUO2X1cy6eEpQZ1lQkUzM2TBs07koNikAag8mG0qSV9BOk+p5S2nl4NG3yfmZuuuhNz2b2WjYNYEKTqTJ5SvKjawF6hpxvY99HoBtPBRIZaVNzjHiKMEjluFtQMh9MjHGZ7OJnE4LgA5UnEck13T2kaYO4LjLfJH3sz38qno5B2dnvWM3iqeoRdPshqDUtWYV9yHGL72fRXrfV4WcDCBKYiPR999K+UO3AaoZzAhHSEMHi3hDdiyAvb1XHdi+b4s1OSh2MtYXLQZgiccoIzt4edGSwFR2nX02gG3zUPSB0cbsnuIuAZtkuThciR78gVj+vQKAiRYqeUuXT5ZvVEGbduHivHUK0K+nZLgoCGaqG0sWEZrFYZSxqOPzpO+JNnMxCJfkr8tiirhLcKhl1lziE5UIAKb6rgsApvnKZnVpWz4DBIRYEw9m0Ml5rMJO62BNCoq9mFEvXqPItsCCwMzmLKuGgLydemKiU+MNPEi8JhgsabIPUOUvmvb9sfx7BYDm6m8p6xxEZ0qTB2TQde0pAPKbwInpt0HZC0DEr4jXKHOEl4NQy3ZfpUvzXI0Qa8E7SttrcdXFRE3X/91lAZCopFUMUrScyRNrFrDkBPA5Nau4DwHKZt+dzYtKwA6lrdbZQbCZ7fCL4jmqdGAwbFvaYk8B4IfZ9zkdxxAFHxNt5u2JeJyix2emDadPuiwAOlCluIuyun2+NL3Pg9k6KwaFiX+6lBeV6bIg5AWYWRH6EMCn4j0559MZ5SHffwLoyGD5K59UZ0uzxBonruNvyLIvAlCs6Omv/eDqwA/+lPCospcmnBNt5oHS/H6dbjExkZ82Em3bYtj+39hExGB+SRwo5w75AojY97XU7YuATd+9npf6gH5Zy6yJ//h29j8QgLLVTSY80m0BUAr9aQCqMm8NIMuuFRfwJ7GM81NASVaqniwZXFKziAf43niaNls8KNd6VPP9TXdnLOUtwPDbGfyKpU32YeJBPp0v2M41APorevxaGPpz3RYAU8PUBvATCt//vGg6u6u4gQ8dk/kXPqzWlrZt+z7Jyfqs/hiAL8SLcsaX/TT9Kb9XsqjNvhjAQP+pJ8hmQF9OsrK7g1nd5WrEj6bKqLXbAqBDeauczejEdBuYSdzBP0zMtI5gUpOUosdjGeHiWIa38bP9ZldRlkGyCpCzcYweaJ+M+JeaRt4agF/3NR0zuaGlTDzJP9Qya2C6FYC6nDidiN2b/zYU0p+Gyis4CfvE0tYvxCX8gw793E75Rn4oZdf+pd9tqBHPFE/KDa7mzvJ7HS3NvgyAX6+w1mwyasST/MOyJut8qM2uuqaUfnj5vz38dmapIp1NATRRYWVbNeJ9podD74lr5Jfq5VxS2mKvgDfX/naXDbphjPih4y1+INZovQ6CJL3qGf9ORsy9fD37X8A7WIbdBKCPj6v5OZvG4M0tCQvqiTdkx7JGrwMIqSuFEsmIsdkj3J2a5bHDf0Pnj213h2KXtQfHZbi/uEd+6dtqne7z4A8AfR3bvtzvtmSNrhWP6uHUFXSN72f/pvMbnwd/ANgatlMtHpVfzq3nUuh0r9rgD3bJuaFz/asTpEYWfcjAk4qHy/Iitu4SF8nzgMsUlA1D58TTrcP9XMFUuf4EgHfFq7rN+9PD+pN+ruDkhpYyMAdieZ2YZTNgXmcETK2mnWBGRHFJj88IF3UqJXnnv/MyrlNuH9Bp0Yx1pXhKfohmsnsxsEdAqhti1q7y94hLzCSrAD0YD67x+9l/V9P/pHg2l0v26rjZU8gDsYx9NQPqV2G0zsfqTguAVIX5KhFeV69SURvNZEWp5mP27wbsuBDRGfHG7C4+XwV4CIw54l1dDf54JRXWH/H3gJ7dnUGnBsqumnaOeFceJleN2bMA/NaLfpMsN9/IuQDoGHGv92RcZ7ollrGPF7fxjppG3pqJgvaNUAN8PsMmYldzpwCwxMs6TdaAe7bvM/8xXYcuZrT2QaVPn7CQtxIX845JafunRHS7hz7ZlQG08yTK9ce9WAUAoIP5nnijtZ+4jzfYmj0ZyvJRq/R3HBlrsA7xcx07vsfdLF7WyTZl3DAtUrTQ1zO6tHUYgJ8E0LwlmmZPFC/zKvhbB7jgB+HNjaqvpiJdS5jVtRUAIiZyzwZge/AypUx4Jp62fiJupHzEJWZSdusfCKsVy8Xr/J5MqsQyrgJosTjbZp2lyWk1/uD3/kKA0pUnAtYoezahRpKvqSeWsQ50gX/BmxMiNjFP6eqqWZeTvUwvL5oP4HaPbNiHgSfiGfs4cSd1TEzbhwBcrur5LuNvagdkjI03+fuI0+1VtJ5c91QAbeJx30sbyD111i60wc+VjDc5ZwDYXWkhrtI+UxFN27K6qpBok3UkGE8B8OQGUyLckqgIzevq77qV7S1Lxu8ArPLIlkXMPDveaJ8obqVoAk08WeHjMzPCxh8BvKV2UoY/V9ezr3djJypDcwH+tXjc97Qh8S+T4ZCvj01W13OIGWpPnzDeSFQYfyBCWlnA0JT2+V7NpLT9U3LxCIASbzoOPjY04+ru/LRbAuDeMK0F0aUe2jTExLOj6ewUca/cMmEhb8WgE9T5Jk8FETPwe8W9YHjfkOX7QS0ZNqcC+Id43ncU3IOpcOh2v1ezr2mdA/AIxQP670DEcFGnUG1Vn7GUtxDHy/HMvzF7lgt+BJ7up6IL60ZQtz4ZdTvfe7Jcv5eBZz2dqIJuiaWtm6uZdXG13GAY1niFzrohpJszASAVMZ8D8LLSbsD0+3PrudTXBidis9QYD8Yb4n1fxzv8x241436v57gM9yfQFYqNMSdZab4IAGQbSQAtikoqKW61zhDvyw3VzHo8bd9CRHUATO/GEzyVrDD+3t2fd//CFyJ2NGM8Ax95bOvz+2bsJwNxL3wgJl6kcNZM935TmRLhcqhNKb1dq2Ff4neb1w2ijY5rHAdgoXggFuiWcZTfv/sDQIjtXwNQeRMlg/i/Ka6nV9GXAN2vbhGAzhL36znxBu5XmrEfZbDXK9SfsGH0SDj36Ma3WeX0Kbk4E4Dr6SQKONxy7NcmNbWWi/v1wHEz1t4AqlQ933Gd2775vxNh800AjyoVNIRfT1jEQ/xu+5kj6QudjMMBXtaLXXClZhtHtwc6fzM5wzsBuEjxuPZQMhL69/8M0OTeqrDIXSQzYM+ILmoNs2a/CeAYj4t2mHBaqow+zpsAAIBkpfkiA3/Mg+1Hu67+bixtny5u6MfZP16bWVn0wXfLdH8DtcdIS3TXuiYI9p8WphW66xwEINPrfA/U7DjOIdNH0dIg1Ndh6zqoPc5l247znUxxHTek/ltZO2iarAJ0dwKVtk8iR/+PyknUD6jFq1Nh86WePiYnd74PCxu1BLyQhzboB/B98cbszJpV3EdcsvO0fytndUfniDZ5sVOqoqgBoITa6ELjo43ZPQMhAipLmtk0DgDQe67CJnzosr7/zJHF6SBUN5bO/hggxRMNuvv77cEKL0njM+IN3E9GxC7M+pu5OJa2bmbwQwAG5qEKL68vN3Iy6c6JAKglcuEaE+Dd0cBvjfc03lpvvxFvaK0Q9+wcLaY1rl1AKWG12Vf/3p3upq3XAlD5zZeI6OagJDtJldHHpm4c3BvuDCDghSyM/WZW0MoA1fqvUJvyd4Np69+7amW3mA8CWKuo7FJXt+Sa4M4G/8a2SrLt/wA4P09VWGnaxumziRzfCAAASFTSKgb/VKGjbo5dWNPnRjPZcyXLVacGtZjC8HtP3SDa+H3/uW4UfUSkPDXu3rEm56SgtEbdCFozdJVxOLWfMXcL0OEYwC3GWuOoe8O0NiiVjmfsUwCoTppzY90o+t7N1O0bJNVtBiRXYRbQAqGWWYums1OItLlgjMlTNdY4rnv0D/lKNwR5jjtMk3Uwu3gKQFHeQhvhdVdzYqkRxRlx3e8yYWFrRNf1RnUjPe+WioTe/0E/aeB+rNlNALZVVw9q7kf6yKlhClT2vVjaPgbgFIBCubTlCw00cXrE+FeQKl1dz6FS01mg+Nz/51kyRmxOFMUbsmNZo7fViQCnMlFZ3AjhO0xuaClzyJgOwsF5rIbFwE87jlPnDC3XtUyUm3M6Zpd5u8mLGfuSo8+LZqxLa5k1ceH/xTB0lZeBvL254A8AiUpaB2LF+dS5bAPb5wetfZIR4wlHN3b3OM+GKp6BZuwWtOAPAP1C9i+VJ/0BX9OZFZH2LJLq9okw6ZIT4LuBhOLpbI2jGR/kOfgzMU3OdfBXIgA6BrD7mdXffbwZSohx7dKM/eKEha0R8eZ2apk1Zj5TYdCd1tm/XZ81b1N9QQ4Dv4s28/ZBa6eZI2hZKmIewUTHBfSo4CpimpiMmEcmy2l50Cofy/A2zLhM8bi+pJTMTm/wI+bpCusyUT6d/j/RxrbKWMZ+hUF3waN8/j/AZYkKY6aKByubHacqzD/BH1egHqjr+gexjPWn8fO4b2937Oa0fTBAqs7Jb2gj84HO/vHsKsoyoVb1RI4s5/dBba9U2Hi8xDKrGPgL1GWFyyUtAK4vsYwKVYOWN3Mu5xoASpONMbQruvJ5yjDMewBsVKPcaeikjL1/bx8fz63n0ljauo5Imwf1ez860Sy4IRkxr1f1fKXL48mIeSEAP1ztWQTG5UaJnY432hN6s4NrxOMVuuvfu7rBa1i5fi+A9xWP5mdNzLRVBbXNbq+i9amI+WuQMbRjk+AaH1ZzPYBbyDXKkxHz0turaH1Q7d3uK6x6Y9x7w8L6A135Qd0IWgPih1RVyAVNRC8mmrGPbTGtegC/BuCHi8WuT4TNi5UKDG8Ma11KrPb+7C7ykqa5UzquNu41jJ/HfY0S+yMoOv5HhH06sv11iY6Noy+qldJ4MRk2Dy2EdpxUz1u6Ifs8ME9SuJrTSW3FS6FRQssatwYho19niKWtpwEcoXjgPSwRMZ/v8ljaaO1PhFcUVWutWWrs8EMneAqRjk3Rt6hu8y76x3WJiHmZB+V41qmu8MlqwNdYxHS3ZupXTxtOn/QShTuemFUty9YnI+boHvjHYwCOVevtVJ0MGw8VSnvWMmvL0vY+TKgGMA7enRpYS8z/BNHMIWHjxVqigjm2GMvYJ4N5tlrRhH8mK8wTetBXFgKoVFM1GpeKGPf1hvGwZgHvYBnO7wCeDC8v8Nn8ROryRNj0ZMLs6aaPeKN1MRP+4nW5m2EDAbcauvHn7l6pGKCZzXMAfqLEkRiXJCrMv3X39xMzrSM01hdA6dIbL7dbzJFBuHimq1Qv55I+G+19dA2HMOMQAGMBGDl6vA3gbQAvuow5FDJeT5VRayHasLTFWgDQMJUTD8dxRvckC6LKFVViPJ2oMI8q5HHw3Hou3Riyf0GMK6AuGVo39RdfnAyHbvRwpcHrIJSNAXQn/PGN5Zt8xuA/brDMO2ZXUbbQnH5CI++ok70UgIqrlB3TNgb3NEFFLG3dDMUZthi4JhUxf48CJ97A/Vi3d2eXI0QU6ZgxlgPoj/Zdzf2/PatH+3f8tWi/m6CRmdM6USO7xnuJSlpX6DaLpa1rALWnlxi4KRUxL+ph2w5izV6mqC+7DhtDgpWpsXNMyXDROtf+BRF+A//l2GgjphqvN87mZSYey1gHgvEwfJnohJcAuNpca95TN5asQnF+pfswCE8lw+bRPRYpC3krQ7czDGyh0BStBKcqESlejF7O11dqF/rKV2foWIGaD6BYYTFfapYRzsVeiVjaehbAYYpWAXq0muc3qus5VGpYE0D4Xd73zGyaz4lxYqLCfM3rgvOSJCcZNl92yfkxfHkfOg0DKGH1t5qi6ewF1cu5pBA6ATFOUyaZXMqJap05kr4A8dWKTVHMrN8AAXUjaI0E/46BkPUbFQd/MPjqnG2UJFI3UyQUxA2r1fUcijfaE0pNZwGI7vZp8M84jrNvPoJ/3lYAvuaMpbxFcZs9mwE/787+lBh3tGnGDUHKYf4/s//GtkoiTZXYyunO4Zq5bNoD7PnMUJq8iZiOTlQYT0noE+IZ63BmPKN4qF203tJH5erzouoTPaw7kaCmUh8/j/vqJdZkAv0KwI4+rupzbBqnpMpodd6Ebz7f/r6h9JWx1jgKoDt83EjbMuHKENtNsUbr8mgzDwzc7Aaastk/iB7M5bGhurFkMejXqm3ChFumZLgIQq+mup5DzLhF+UyL8Mtc7i2atQttYNDDyurr6KcGrS3PWMpbxNLWFUaJvYRAN/k5+BNo6tCVxtH5DP55FwBfD/jJiHEug04CsNrH/rUNCH8iy14eS9t3RRvbKoPSMZhwirJnu7k/VpgMG/8E8Lxiq5QH8Z4AIbe05/uH6mvEX0qEjcdyHkRcnqUyngalDSdmWkfE0tbNRW32crQfNd/ax9Vdy0ynJyLG+bUHk51/IeIjogtbhpFuPADgxwHwOxfAi0x0SypsPO7XSkbT2V0JpOgSEV6SDJvDQZTzi5/ijdldmOgdqNnp/DXryDUqE5W0SkJh76PjZEwD1OZ6d12NfzSjPPRO7rsfUzTjLCJwmZKKkzt6Rrio3q/tF2+09gPhfAZ+pnicyBXvappz6vTy4ia/VMhXN+WlRpYsKSXjQCa6LQCNqQH4CTE/Fktb70Qz9vjqeg75rpZMypbyiGmGiuAPAImK0DyAZqieALJm/VVCYe9Eh3UDlF/0QiklwR8AiJjAypL2aKzw02E3mZLhong6G42lrfeZ8CoD1QEI/gzg5vWWsbefgr/vVgD+R92l7ZO4/Wa5gQEaUz5jIAXdudsXG2iYKZZxmgAeruLpLjnhGeHiRaqqP3kxb+fYdiOUX8qCw1VctSn4l1jGOgKMpxUXs0Y3jAqVmUbjDa0VrOkNih6fSUZMX9ykOmFha0Q39BowJsLfS/zfDrBfuUzxVIXxqE/r519qFvAOlm7fAcLxQRtgCHgH4Lp1Jeas2YMpL7e4RTPZvYjpTUWPfysZMfdWP1BnLwKT4mN71MSmPqYQs9sJm55FboD9geqTJgy+MBUJKb8RNZ625jKwh4pnuxqPVbaCsRmq6znUN+QcT8w1aD8pFqzriglP6TBqpoVphV+rqPnZfnWj6KP2nNkch783CG5qVrkHg+4qbbGXRtPW9dFFrWHvK6Fw+Z/47168wtAV5lQQPlRsqHIta18GoVewnu3fqg7+ABaE1pq3e/RKyvoiueT5aYDootZwNG1dX2raK4j5QbSnLw9M8CfgK2KamAybR/s5+CNIRo028/aabd/BjBOCOvAQ8I4LnkVk3pcM02cqy6pl1pZm7KUAdlIxMfAyXWiswToEGl5QXEyb4zg79yRHu+B/OpbM5wFQegSUNBySKDfnePFOExbxEN2xlygZz5mXJiNmmaq9Pt8Y3wdqWec4br+uPHiz/f/nSZ2Mn/s98AdOAPzXUTJ2NTHfAV+mEe40WQDPEtPsdX302So+EcQz1t7MeENR/V9KRsyDvTRYLG3NBnCy4mJeToaNg1UPdkIeBUDael554jHivyfDIU830MUz1mvM2FfNKgDvmagMzc31c6dkuGgdnMM1161mopMBBDnr6moCX5qIhOqCVGktaFZOhY3ZbBqjiXkW2ndXBpEQgGOYeEZpi70ilrZvjzVZ+4A5Z4LMZZyoTjV6s/z/v55q/BKA6lv8DoxmnIJIgypscvIw3oOsoxs1y7zU63dzWWGf1Cl3YwkzxRut/WJp+84NbH9EzI8x0fgAB39mUMrWjIqgBf9ArgD8T4duzO4JolsJ+FGBjFErAPyDGLOHRIw3enLPejxjNSr6zmnbmrHjrHL6NA+zt98xoPqugE/YNCrznaFLyC01i3hA1rEXErCD4mhwRarC/JPnY2Ezb0+WvQIKjsQRIZ0Im91OllTLrC1L2/uAcAyDqhWdSsoH77suzptRab4e1BegoLdAu3M5ZzLx3xCg4yGd4DNiftrVtNnDVuhPdSVr1ISGtp11TZunqF7PJCPmkfkwyJQMF61n+0MASjdUMtFtqbBxnoTNwiGWtu8E+OeKh9NFbOqj83WaJJaxXgDjEDXCxh2Zqijq9HHDr4M+E6oBnAR/5+TvKqsZXLshbN46m8gJ8otQwXTwDG8Ddq4FOIoAftrYDKtA9A/X5UeL1hmvbO6a4mjGupIYtYrCYzwZCSXz18728WB+VHExLhPvmwqH3pLQGXyijdk9iegt1eOCBjpmesT4V77eM57O1jDoLjXdHr9JVph//qE/qa7nUD/TPsAlOgHMP1O92pIHXBAlTFe/vK6CPi+EF6JC6+yTmtpGs6v9viNDVCGyAcAcAj/umuZjqTL6+LuzHes9ALsqKLuNTWP7fC+Pxxutp5igehXivaErjR/5IV+30H1q5rKZ7W/PJWBnleUw8K9UxDwmn+86YSFvpev2RwBMBY9/Oxkxv/OpdVI9b+mEnEM11z2WiY5FsBK3dYXnQXxpMhx6t5Beigq1409ssPbVdVynamesT3AIeB+MJxydH59RHnpnckNLmaMZixWV93gyYh6X75eesLA1ouv6B1B9lItweSJsXithNLjE0tYVaL8gRiWtmuaM8UOa11jGehKMo5RoHM0Ymiyn5fF063AX2rEEOgbAgYoEh194Gy4uS1aaLxbiy1FB935mijc51cz8Byj+buyT5lxExB8rEz1M0WSFMcMPbxprtK4C4feKi2ljdnftyrdPwT90CMV5AIoVj6JXJsPm1f7oF9nJILpb0TLHayAaVECb+H6IRhD9NlmuP1zIx4K1gm5CIk6EjQfNtUYVgc9h4KPC9lkeoXDFwzGh/8svb1qqGX8C0Ki4mCIi7c5cHs8UvKGWWdN1fZry4A9k2DCu98t727r5GAA1G9MI+/WC4L+SwD8futIYnQwbDxV6TpBeNbBFm7lYy1qTmPBrgIbIMNklT3kxGTYP9VOV4hnrcGY8o/7V+edBPOPbm4lmsucSq79V1GX8ZEaF+YKf3j2Wtl4BsL94QVfmTrwUGq4rhZmYGqa23vLaWm9q41QZtSYqQreZa81yYppIBEn72tkg6PI//FanRNh8lsAPKB8bQH+ZnOGdxAuCQbyBBxHTHz0IGvf4Lfi3d1Z+RLyg0327mcEXlmpmRTIcuqM3Bf9eJwC+pm4sWYkKY+aQcmMkE50CYKF0hc0Mde1Li77DNc2LoP6iqP4O23eIGwTEWcm+Hep3o68xHfPXvnx/23kEwc2S6hULiGnisJV6JBUJ3dzbAn+vFgBfU0vkpsLG7KFhYzQTncLAf6RfbGpARcZ00OLHuqXK6GMw/86Doo6JZeyTxRv8TSxtn+7F9eEEvqxuFPlyTxEZxRsAahZv2CRvEejkoWFjTKLCmNnbj/nK5qZvMbEpu4fu4AImOh2AIRb5hhAAPtKA11zw6xrTO301420/KOeOmw9fB7CXYgN83FZsjLpvKH0l3uA/Os7BLwCwreKi3h4aNvbqSarunPn+HDaad8pW6K6+BxP2BXg/ACNlbP8fXABPui6uDXLaXhEAHjJpAQ91Dfs8AGcBGCAW2SQbifAemN4F3Hdtl98d/lFoQT5U9cSm7B6aS/+Gglzo3+oyiWTEmCRN78PZf2N2FojOVFyMoxHvOT0ces/r96uZy6bdzxrFhN1B2u4E3o0ZuwHoI62/SVYzcLerG7fOHEHLxBwiALpMvIH7uZoVJWjnA1wuFtksrQA+BOhdgvsuXLzbVzc/9GKlIJ62b2HwFNULIUQ4MhE2n5Wm9g/RRvtoIlZ/TJVxY7LC/KXy92nmYmStMUTYHdB2B/HuYIyB4uRXnTOB3wMHNYHdm0tsM3V7Fa2X3iECoMfUMmvLmuyfuIwaAo6Dr7Jf+b5LWiA0gHk+mD4kjerB9vxEuKg5l+dsx2W4f4jthQAGKbb3clM3x9SNoDXSM/LPGUt5i6I2+0Oov3BmBbnGqEQlrcudKzHFM21lIGO06/JojXgMg0YDqIR8guzaGAP8k4G6YWHjBT98nhEBUKizjWbeHlk7DqLJBC4Ti3Sb9QwsIKIPCG49mOa7pjF/U/cbdLptMvaxxOzBiQX5FOAX4o3ZmR13yquVfUwnpiqMR7v7+5oFvINt2FVMPIZdrYqId0b79/pSacVu98PFYJ7GISPZk3FDBIDQvVWBjH0IgBoGTkBh58T2klYAiwmoB7AY4MVgWgA25nVm9hVLWw8D+JkHAeGnqQrjSWmuPIpxrwQf8d+T4dBpm/uzKRkuWotsOUEfBfBwYhpOxFXMGA3ZS5QrHABzmKhuQ7n+j6BfySsCoADoUPdnMmF8x7c6QQ0rQEiDKUPMGZeoWSe32THM5q9vKexoi3oGtlBcl5VtRcYYORWQHyYs5K10zZ4PwvaKi/pCN4yqacPpEwCINvNA3bbKHNbKCDwcoHIwR0CIoLDuvfcVDHxAwCw2jXtkti8CwLfEG7O7QKMJLuP0ArwT28/O/BUDzQw0E6EUjCPUTwx5VqIiNEGsn4d+ls7ez6DT1DsWPQXmFgBlHf8GivU9YxWA+xzXnTWzsugDMYcIgMBQy6wtS9v7tH+f5NMB9BOrFOLMhE5KRYx/iCW8I5axjwfzo2KJgqSFgCdcolnDVuhP9fZkPSIACoBz67m0JeScAOZTABwOHxzn6Q2h2SMX/8zWjNGzyulTsbl6ahp5a4vs+QC2E2sUDK0AngXRbHuj/sisXWiDmEQEQEEyLsP9i+Acyy5Xg3AE1F9ZKqjuSIRPmPEqEX3FzF8x4UuN+SuXtK/Y5S81jb/SHeerjSXFq60hWCsbl/6XambdXIb+fVpaBzq6voXr0hak0ZYau1uAaEtmbEFEWzDzFgAOgPpsf4IHQZ8ITwP0UBv0x+8N01oxiQiAXkV7oiHnWAKfDOBIACVilV4z49kA0BqA14GxAYQNBKxm0HoQNhDzBhBWuwCDeaMGtDFgMWntyU2YV2sAg7DBIc6SxVlN5+/MnFyH3Wyf4i7lLAhtbB2g6aR991nUl00K6UwhMPq6AIFoIAAQu6UEmC5QBKI+5EIjwgCXqBSMvhq4LwMDwegLQl+A+gE8AEBfEcG9hhYATzHTbI31f+U0p4IgAiDInFvPpa0h52iX3eMIdBSALcUqgiAEnC/A/BRr2mPORv1JWd4XASBshmpmvc8ia1fdoWNBOIaBPcQqgiAEJLQsBvgJAh431hov140lS2wiAkDoJpMbWspcTT+MQccCOByMkLSeIAg+wSHCWy7wuMHuY9MiRQvFJCIABAXULOIBtuv8iZnPVVIAi2cIgtBpbjZ140q5GyN4aGKC4FE3gtaw6/YXWSgIQteUvZIBo78EfxEAgpcQDhAjCIKQf2XP+4ltRQAIHjE5wzsBNEQsIQiCDwjXLGBJeS4CQPACmx2Z/QuFD4sJgoJlOvuKFUQACN6wv5rH0hftx3cEwQfIXpRcG3QRA6vViDX5DCACQPCmGxMrUdsEnpaMGCNM3RhIwGHEuArAEwTIdbeCECw2EOF1ALcw0Sm2ZmyXjBjlxEgGa1IiiMYW/ssZS3mLojb7cxXijZl+mqownvz2/1/NrPdLW6OZsBeRtgeYd2dgDICQtIgg5J02AuYz6B2C+47t8lstFaH6Td03EW+0T2RiFTdXOqZubCWnAYKFISYIFqGssx/UrNy4uq2/tan/0DGQzOv4BwConcNG807ZCt3V92DiPYiwBzN2RXted0EQ1JAF0ETM77iEdzSmd9yQMTdZRq2dG/D1Vy3YKjJ96JZr7wXgGWkiEQCCIjTmfVXsjWJg/vQq+rKzf99xR3d9x7+ZX68U9GnKVhL03TXwrswYw8BoAmSHsCB0nVUMzCfChwC978J5b2N5qKEnN0nWVdDnsbTVCKBSwSCynwgAEQCCQpixv4oPNxrTaz19RsfA9LUomPX1/x9t5oHsWCN0R6ti4j0AjAKwM+RKV0EAgDUENIF5gUt4RwPVa4bx4bTh9ImKwojoVWauVPBo2QcQMGQPQIComcum1d9eAwVXBjPT6akK4wEv32dyhndyYFexiyoiioA5AkIEwI7S2kIBshKMNIjSzJwmDfU6jPppYVrhZSVijfZEEKcUPHrj0JXGgI7VQUFWAIRcYg2wxoCpRMWzSddf9/p9Oga+FfjWsuGUDBetRbacoI8CeDgxDSfiKmaMBjBAPEHwMa0AFlP7KthigBeDaQHYmJeopHW+mPWR/SpDV/HoPssHZysBzBc3EAEg5Hyajj0VPXhJspyW++U1p4apDf//KeF/Vw0W83a2Y5URa2XMXEYalRFzGYOGATwEgCmOIqjU4QAtA7iZiJrZ5WYGNRO5zbZmNs8qp0/9/gKJSPHiWNpaAWCnXD/bdWlPEQAiAAQl0l0bC879FkBivBoUE3R8F/0EwHdOLFQz6/0XYifHtMuIuQxMw5hoCMCDqH2wGwygnziS8AOsBbCCgRUArSLmZSBewkTNumU0rx2JFT3ZhOefyQS/AaJTcv9gbU9AWa4BQQRAb14B4LFqhAXeKATzdAzMSzv+vbSpv4k3cD/Ws4OZtR2JaRARD3FBgwi8E4BBALYDaBuAJcdBIWlnIMvAZx3icRWDVhB4JZiWE/FKDe7KkBVafnsVre8VQwnhNQJyLwCI9xRvC1S/EIJAzSruY62316gQbRrx7tPDoffEyv/PhEb7KJ34cUDNx1LBs0DnQMdRqeHmc2KN/yeWzv4YoLcUPDpbSkb/js94gs+RVMABwdpo7wo1Kzat+hpTvtl9i5kVxlNEuE4sEfABzsUfJPhvQhiZ5jy0JxXKNaF1rrWzWDgYyCeAoODyWEULNvPqxpIlBt5E51hj1Nr97SMY2MOD4mxiOs4N6e+x3dYXpA3UHSoBodjVYICpfe+C6w7UCMSEvgwKaYwQgL4MEEADN/UaBN7kvgdu/y2INh0IGLQOwCaOdPFqar+rb4NLyBI4S4wNLoOhaasBAMTrNBc2GK2Ozi1gdzUZRRvQ6uxJOj8Cb1ZW/j1klfEH8eTvkiqj1ljamg9gdwXTyj0BvC1WFgEg5EyyY08l8Z9IOur3UDeWrAkLW8/Qdf0dAKWq+6JLPB3A7jPCxYsK0Z7xBh7EOt/tUfBf65IzrvZgU86kf3/nfxvg3AsA1mQfQECQTwCB6au0mxpdgf+Icb+fmSOL08T0C0+aGNiBLPv+2jlccMK8dg4brNkPANjOm+5C5xaqkMqdjdy31fgx7ybWFQEg5Ijqeg4BCCtxAMcWAbAZEhXGTGKe5VFxBy3byb6q0Gy4dEf7z/AoVSwzTU+EjXvFc38Y22FVq3+VNXNZ8nGIABByQYmerYSaq3fXDKkoyoiFN4/Vap4DoNGbAIbLYxn7+EKxXSxtHwPgYo+Ky2isXyQeu3laKkL1ADYoeHSRNSAbFguLABBygKHrY9REGrxbS+SKhTfPrF1oA4jPAODF8SYCc2LSAh4adLvF063DAZ4Fb44ctxJztV9S7vqdjrwZSo7/sqvLSQARAEKOpoRjFLX+u2LczpMMh94F8eUeFbela9iP1qziPkG1V/VyLgH0BwEM9KI8Yr4kURGaJ57aFaVJSgQAEY8W64oAEHIyUYcaAeDSh2LdLoqAcvMmAI95VNyu2fVWXVBtVdpi3eHREUow8K9ExLxdPLSLQwC7qsaAMWJdEQBCboY3JZ3J1V1JANSNqY3JxiQAqzyaoY2LpbPnB81M8UbrYoAmelTcCtcxJoKIxUG7HAGUCAAGiQAQASD0lJpFPACgnRQ82inqYy4UC3edugr6HIQzAHh0KQz9LZqxDgqKfWIN1iFMuNarSSxpmDBzJH0hntmNQWCj+SGAnO8DIvCwcRnuLxYWASD0gDbLHg0FG6iIsKhuEG0UC3ePZNh8mRheZZkziPH3WBMP9rtdJi3godDwALxLMvb7RLk5Rzyye8zahTYAtESFai2CXSUWFgEg9KSBiEcqmTYx5Pt/DxkSMa4G8IxHxW0L1/5n+8Y6fxJt5mLXtB8CsI0nBRKeGho2/iye2EOY1XwGYK4U44oAEHo2VVdznpZEAPSUWiJXs4wzwLzUoyJ367fRusu3rmo5t4Mx1pvSeLnpGhPkGGsOLEn4IFBjlyACoBcRVtTrRQDkgOlV9CVrOA1qblbbRLPR+Hhj9hd+s0M0nb0A4JhHxVnQ6LS6CvpcPDAngVrJWECMcjGuCAChZzN1JZ1Ic+16MW5uSIVDbzHDq/wAYKIbYxnrQN8E/4x1EIH+4uGc9ZJkufmGeF5uMNhRchqIgYhYVwSA0O0exAQ1KtpZ5xQ1i4FzKAIixo0MPOxRcSYYD09qas37DGtyQ0sZMR4EYHrUJx5MRkK3iMfljhIKLYaaEy3lYCaxsAgAoRvEFmEnAAo2fdGS2VWUFQvn0qTEmmvE4NF9AQC2cl398WgzD8zXK4/LcH9HMx6DV5v+gExWM88SZ8stU8PUBuYVCh7dt2YhthcLiwAQuoNtK/n+T8xyAZACEpW0znHdUwB4dbyykiz7gWpm3et3rWbWTbbvA+BVytdWBp9yb5jWiqcpEbBKxgTHsGUjoAgAoXutw+EgdXYBmFlZ9AGYL/CwyCP6NdnXe/2e/TLOjQT81LP4BD4nFQm9Lx6mzMJKxgQmFgEgAkDoZqdU8o2X4TaJbdWRrAhNAyjpVXnM+GU8k53kVXmxdPbnDJ7iYT+oS0RCKfEslSZ21UwKWI4CigAQusswJX2dNVkBUB2UTf1cBv7jnQigO+JN1sGqy5mUtg4AyMtNeG+Vkn6+eJRi/4HWpOa5PESsKwJA6B47KhEAui0CQDGpMmoN2cYJDHzkUZEmu5it8mRAPN063G0/6RDy6J0+cdg4eWqY2sSj1GKwo2hVUMk9JoIIgF6hy1UIAFtfXbRUbKueulH0ERFOB2B5VORWrqv/U8XJgEn1vCVDfxLA1h69i+W6OGlmBa0UT1JPx1HAnGdVZBEAIgCErtO+s5sGKRAVH9WNJUss7A3JsPkywJd4WOQosuxHp2S4KGe+WM8hN2TPBlDh2VsQXzCj0nxdPMgb2o8C4tOcNyN4kOQCEAEgdFWRp7E9lNyoRivEuh6LgEjoFoASHhZ54Aa2UjkZeJmpn2FNA+MQ72I/z0qGQ3eI53geDVSMDUXjF3mWJ0IQAVAY6GQpWTojQARAHmBT/wWAtz0rD3RaLG3X9vQ50bT9JyYa76Gp3lvXx/y5eIz3qBobDLbkM4AIAKFrA7imZAMgswiAfJAqo1ZoxklA7pdZf2BE/308nT27uz+PZ7KTiHCZh2b6RCfjuNmDqUU8Jh9jjprVQYImAkAEgNC1TuOqWgGQTVV5IllOy4lxEjy6ObBjUL8lnrEO7/LMv8k6kpnu9NA8NginTgvLJ6r8jTmsZGxwFY1lggiAAu6NpCSHNssegLySqDBfA/PFHhZpMmP2hIa2nTv7g0mZ7G7k4kEo2YPyPX5JfEH7hkmh4FYAmHYQ64oAELqkxknJcStXzaUfQldWAipCtwLk5Sa3/rqmPRVr4sGb+8MJjbyjy/gngH4eit1bU+HQ7eIZ+Z5zsKLVQdpKrCsCQOiKGmfeQsVzdc35SKybf8y1+gUEvOBhkYPYtZ/4oRwBk+p5S53sZwAa7GG9nhu6Qr9IPMIH2M4qNfHf3VKMKwJA6BpKVgAMvegLMW3+qRtLFlnGKURIezbDA3Ymy35q/Dzu++3/Vr2cS1zT/ieAKg/N0NhWZJxaezDZ4hH5xyBFYwOTCAARAEKX+gygotPYdcMh16n6hOlV9CUc5zgCvvKw2L2MEvuB2jn83+/7NXPZLG2xHwKwn4di5CvHcY67byh9JZ7gD76K4CsoyAZIasYyQQRA4aKo03wJIhbr+odEZXGjC5wKwMtZ8DFLB1lJMBOYyerv3AXgaA/Ltx1G9cyRxWnxAP8wm8gBcj9BcCErAH7FEBP4FhUbZ74Us/qPVMR8LprO/pK8vGWP6Mx4xl7JBANAzFt1y+fPiIRekJb35dTjSyC3d0kQWDYBygqA0FmizVwMoCTnD2YRAP4VAaGpHp8MAAOXguHlkUQQaKqk+fUzrGIfQP+auWyKbUUACJ0g1AIlJwCYIN9bfUweTgZ4zTNDVuq/lJb2NUomCdYADBTTigAQOkGb2dZHSWMzywqAj6kbS5ahGycBmF+ArzcvS8YpsuPf9ysASsYIzUIfsa0IAKFTULGKp7qkbRDb+lwEjKA1DhtHorAubVoFzTj23jDJCRTfDz1qxgjW2orFuCIAhE51QlLUWbhVjOt/ZlbQSnbcowGsKYDXWcfgnybLabm0bADm/0CbImEhAkAEgNApbEUCgCECICCkRhZ9yBpOg7fHA3ONRYSTU5HQ+9KiAZl7KJokMEEEgAgAoZO9sFhRY7eJcQMkAsrNp4n47J4+h/Pmxnx+Imw+Ky0ZqCUAJQJAAxWJcUUACJ3AUPUJQJMVgKCRCIemg/DnngXivASSqxOR0J3SgkGbe6iZJMgKgAgAofMztmI1z2VZAQggyXLjCmKeFZwgwg8kI0attFwgUTRJIBEAIgCETgqAULA6t6A2ohL31cyzALzcZU/yPvq/uM4yJ0rK6YCOPcwtih4tAkAEgNC5Tqhm5CaGDMoBZWqY2rJkHAfgva5EY4+F6wdsGCfNrqKstFhAxx5S4zSs4JIhQQRAobaKo0hYyN0PAebeMK0FGUd4eYVwF8TGIpjGEakyWi0tFVyI1IwR7EISQIkAEDopl9UIAIIuxg02yTB9BnaOAuPjTU2z8sQq3bUOS5XRx9JCgV8CUDNGKJrUCCIACq9RSJFaVtW5BU9JRIoXs+seDmD1/wT/vGz3x1oG/3RaZUmztIysAHzvmCYrACIAhE52QkUrAJqsABQMqZFFHzLhRACtAAP52XPXogHHSqKfAloAUPSZ0CUWASACQOgMjsayB0DYvAgImy8R+KL20O/x9J8BJu2S6RHzFWmJAhIAiiYJmiYrACIAhM41iqLlMlXLe0J+iGXaRjHod5SPtX8CiJ3L4g2tFdIShQMpmiSQK3sARAAInR1blRyjYsIAsW5hMLEpuwdYexnAoDx66mDW9Fei6eyu0iIFQ38VD3WI5WioCAChU4GaWdEtcCQCoACINlr7ay69AGBrH1RnWwLNmdhg7SstUwgrALyFkge7vFqsKwJA6EwndEw1nYV5oFg32MQarEOI8CTgq9WcgZqGZ+MZ63BpoYBPPojUjBGhkAgAEQBCZ9CLoKqziAAIMPGMfRw0/AtAqQ+r14cZj8fT9knSUoFG1RghAkAEgNAZ6oZjLaBg0wyJAAjszD9jn8nMD8PfOdVDDP57LJ2NSYsFFDVjRFuqjOQeEhEAQuc6ITEBa3P+XFa0vCconvlnLwTzTCAQpzh0gKbFGrPnScsFEJdVbAKU2b8IAKFL/RAqcqrz9mLZAMFM8UarlpluRL7y/HV3XCGaGktbN9cyyxgTIH8D0XYKnvyVGFcEgNCVRQCwik5TOmEhbyXW9T/V9RyKZax7mHBlgF/j/GVpK1Uzl01pUf8TXYLtoOYT0xqxrggAoWsouVhF063BYlp/c249l5aa9mMAnRH4SSXReGuA/fS4jJKlZSGH6FlriJLJDOEjsa4IAKErAydomZIGJ22IWNe/1CzgHVpM+xUARxSQMx8Sgv3ahEbeUVrYv7iamrGBGcvEuiIAhK6oZmYlnYZdVwSAT5mcbhtp6dabAHYrQEU7RifrtWhjW6W0tE+byGU1KwAiAEQACF3sNJqaFQAQDRXr+o9oxjrIgfZaYbcPDSPSXos3WvtJi/uwdQhqJgcaLRfrigAQuoDrsirVLDMw3wX/bJwYzwDYshe87lZMeCGezkal5X22AgCMVPJcdpeKdUUACF1AdwxFAoB3Fuv6ZcRtP+ZHTNMBhHrRm4cYlJRjgr5jjIqHmrYpnwBEAAhdYfAnWAmouBaYBkeb5U6AfHNuPZfGMvY/83zM7wlmPJ3H8s9f1mQ/fG49l4pH5JeaRt6agB0UPLpt0Eh8IhYWASB0gdqDySbCYgWPJt2yZRUgj0xo5B1bTfslAMfmrRLEfzfXGj/bYBvHEzA7X9VgxgkbTfv1SQtY9qbkkTbYuyh6dFMtkSsWFgEgdH1w/EDNc3mMWDc/RDPZvXTYcxnYI2+xn+ju9eXmuLqxZM2uouy6sHE6QMm81QfY2THsNyc1Zn8kHpIvn+DRatqWPxTrigAQujcwqhEApO0u1s1D8G/MnkVML4GwfR6d6m+Jcv3ns4n+e9nUbCInGdYnAbg5j76+g0v0cqwxO1k8JR8CAErGBGb6QKwrAkDoBi6TKvV8oFjXO6ZkuCieseuIqA5AUR6D7HXJsHkJiHhTU8BkxLyQCZfl0VTFILo73pidWb2cS8RzvBxs1IwJGokAEAEgdAuDrXlqnswjJixiSQjkAbEmHrye7ZeZ+aw8VoOZcXEiYm42uKfC5nVgngKA81ZZovGlLfbrkxtaysSD1BNPtw5XlX/C1XQRACIAhO4wraJ4CVRcCwxAcx1ZBVBMNGMdBNeeC+DHeayGQ8RnpSrMGzr7g2RF6FZiikLJKZROs5ujGW/HM9bh4kmKJ/+kHaTo0auTI7BCLCwCQOgOREwEJZ8BiHGQGFjZfJuijdZviPE8gG3zWJM2EJ2WCIemd/WHiQpjJpjOBJDNY/23YsaT0Yx1KZhJHEtREHCVjQUfbvJzkyACQOhsLMGbinT/T2RQzT3jm3jbeNp+kgh/BKDnsSqrQTgiGTYe6u4DkhXG3+HiKOT3OledGNdGM/bjsQxvIx6WW2qZNSY6VMkkA3hDLCwCQOhZN3pZ0XOHTEpbe4p9c0e8yTrYcO33mHBknquyisEHJ8Nmj30nWWm+qGnufgDnNZ87AT8F2x/GMtYR4mm5Y1na3gfAICWTF8IcsbAIAKEHmLr+KgBHyRoAUbVYOAezqDlsxButWnbxvKrBtAsscHRj71Qk9H6uHji9vGg+ueZerOhYahfYDoynYmnr5pq5bIrn5SRIqxoDbHIMWQEQASD0hLoRtAaE9xR1/1PlM0DPmLCIhyzbyX6pI6VvvvvTm45jHDBzRO5vkkxU0qpskXEQA6/k+R0JwPnZ/vZr8XTrcPHAHgjX9nsYTlL0+LcTlbROrCwCQOhxnMZLisbSwbGMJdnXukm00T5Nd+x5zNg3/z7CD5aScfDMkfSFqiLuG0pfwTSOAPCPfL8uAT8C9LnRjC2rWN2kudHeG8COihroJbGwCAAhJ41EyjoTs3aWWLhr1DTy1vG09SAR3w9gYP71IW4aGjFPnxqmNtVlpcqodX3YOAVEt/rgvbcg5gfj6ez9ExbyVuKZXYzRGinLusgs3/8D4QNiAv8zLsP9Q2x/BjVXxraYbAypq6DPxdKbJ95on8jEdwDYzgfVsZn4glQ4dHs+Co+ls+cDdAPye9rhazXwMWtUkwobj4uXbp7xTbyt4drLoCYzZYtZamxdN4g2iqVlBUDoIfeGaS2AZxU9vsSCLasAm5v1L+IBsbR9FxP/wyfBf50GOiFfwR8AkpHQLUQ4GrkUsQsAAAuvSURBVMBqH0xltifmx+Jp68FJ9byleOwPY7B9tqLgDwaelOAvAkDI5fjGNFvhw8+pncOGWPn7Zrr2MZZjLwC4xife0MTs/mh6xPhXvmuSCJvPgtx9AVrsB8swUO2a9rxok3WkeO6mqa7nEDPOVtcI9JBYWQSAkEPaNP1RAK2KAsrgpTtak8TK35r1L+Ad4o3ZmQA/jvwf72tvKcLrIH2fVEVRg1/slAwXLXAc/UeAbzZ+7UQunoqlrcdjTTxYPPl/KTWsGgJ2UPT4lj62/oRYOSATSzFBkGai1mMAjlX0+E+zZIQ7Pjf0amqZtWUZazKD/gKgv4+6a2K9pZ8zu4qyfrRbdT2HSk3nToBjPqrWGgZfuSFs3vrNK5B7K/EG7seanYGiz1gMPJyKmCfLaC0rAEKuOxcp/AwAbBty7Yt7u40nNmX3WJax/8Ogu3wU/B1iXJKMGJP8GvwBYHYVZZMRIw7gUihKXtUNBhDoptKM/WYsk929148hmn0pVO5hkeV/WQEQ1FCziAdYjv0RAFV3pW9wdGOUikQyfmfCQt5KN5xaMJ8DP+xq/38+J+D0RMR8PlAzzYx1ODPuA+Cn43kOgNs0y7hqehV92dt8PLqwZRjpRj2APqrGjxLL2P72Klovo7WsAAg5pj0rIN2rsIi+umPfU82s9xab1sxlM57O1ui63QDm83wW/N/TXftHQQv+QMfmQM3YjYH/+KhaOoDz2bSbohnr0ikZLuotfl7LrJFuJBUGfwA0U4K/CABBZYORczMAlVds7t8vbV/YK2ZEGftYq7+zsGO5f2s/1Y2YZ60vMfadVlnSHFT7JstpeT8yDgDRND/Vqz2BEK5dz1Y63mhP6A3psJc12b8GlF4BzjqcqTJCBwv5BBBAYo3WiyAcrLCINo147+nh0HuFaL+JDda+moa/ANjbh9VrY+YpqYrQ3YVk83g6ezaDboKis+c9GgQJrwP4VSJsvlmI/h5tzO5JRK9BTSKxr0XVs6mIKTc1ygqAoH4GQ7coLqLIYfrXpAU8tKCEU5O1TyxtPa5peM2nwX8FEx9UaMEfABKR0J2uxvuCeanv+hNjX2a8Ec9Yr8WbrIMLye6TG1rKCPSYyuDfbkS6WUZmWQEQPKCaWe+bcTIELlNc1ALNMvYP+oapeKO1X8dtfT/xcTWfBBnRZJg+K2Tf7UhBOxOAb2eLDDzLLq6eUWm+HmRbT1jIW+m6/TqACsVFZYaGjcpaIldGZxEAghez2fY87F6o7n+3FRlH3TeUvgqUgZgpmrF/QoTLwDjExzXNMuPyVMS4EUTcK5yXmeIZ+xIG/gjA9HFNn3cZ186IGC8GrW0m1fOWjmk/1X5rouoowucmw6E7ZFQWASB4xJQMF61jZ6EHqwAA4UPNMo6dPoqW+t0u4+dxX7PEGs+g8wGM9Hn3ayLXPT1RGZrbG314UmP2Ry5p9wM83OdVrQd4qt1i3jNrF9rgd7t2HPd7AkCVB8VlzLVGVd1YsmRUFgEgeNnRG+3TOq6k9YJPXcYZMyrMF/xoi3i6dTiTfi4Yk+CDK3o3OwkG36u55jmJSlrXm314XIb7F7F1F4NOC8Bg+RUD03XXvt2vpzOiaeswAu4FsI03RqHqZNiQ5D8iAATvowhTNGO/5ckyXzsuGDeX2Mbv/XDet2YRD7Bd62RmGg9gfwRjU+t6Ak9JREIpceBvBK5MNk5MtwDoG4DqugBeYeJZIc18uG4Ercl3hc6t59IW0/4DgPM9HNffTIaNfXvNpysRAILfmJS2DnCBlz1WHssJ+P26sDnL6/zq0WYu1mzncDCfye33IhQHqLn+7TjOhJkji9PiuZto28a2SiJtJoA9A1TtVjA/xpp2Dwz9uVQZtXpZeDWz3i9jjWfgaoA8vfjIdbFf0DdKigAQAk+s0XoUhOPz4D5NTO6NIc28V+UsKLqoNQxHO5KIjgLjQCjNZqaENiLUris3/iIX0vwwtXPYWLqjfSmA30P10bXcsxHAS2B+StPdp6eXFzcpFMIDKWudCdIuBHhEHt71H8mIeZJ4rAgAIc9MWMRDdMf+AMCAPFWhhYAnQPRPW9Nf7cldAtXLuaRfq70rM+9JjLFM2j55GuByxbua5k6cXl40Xzy1Cz7d0LazrmkzAOwa4OG1CXBfB2Mua5i7odicN3swtfSkn2uucyAxHwfgGORv9Ws1NGPnZDktF08VASD4YRUgY58J5lk+qc6nAOYS8CGIPwa0z8D8iUu8XmMqBQAwmdCwpQveCaDBxDwEQBmASgBGATSJxYQ/htYYf5Id0t0Ug/Uc6mvavyXg8gLxCRuEhWAsYaJlAC/XQCsA/gwMFwAYvI5B/TWibQF3GzBtz8AYAGMBbOuTsHFGMmLcLx4qAkDwlQjIPgCmU8USee9VH2rgiYWaStlr4g3ZsaxRCt4caxN+EL4vGQmNEzsUBpIKuJC6pmGeDfAysUTeaCHGVaUw9pTgnzsSlaG55lpjNwZfCGCDWCRvrGgrMs8TM8gKgOBTJjZah2qEZ0Xcea2+MIfYOSdRWdwoxlC4GpBuHQ7Wb2PCkWINT3Hh4rBkpfmimEIEgODnQTJjXcaMP4slvIj7+EhjuixRYcwUa3hHtNE+DcQ3ELCDWMMTLk1GzOvFDCIAhAAQS1s3oz0piKBqRgSaliX9V/eGaa2Yw3tqFvEAy7GvBvALALpYRJXIpTtTEeMcsYQIACEgVDPr/Zrsh5hxglgj57wE4ouT4dC7Yor8M7Epuwe5dAMBB4g1ch388fCwsHGK3PQnAkAImghoP1P/HDP2FWvkoLMQ0i7ot6mwMVus4T/iaesnDNwEOS2QK/5tlhqH1A2ijWKKwkQ2ihUwswdTi20bxwNYINboEZ+DeYqxxhgtwd+/JCLm8+ZaYzeALwDwhVikR1PDDzXLOFqCv6wACAGnppG3tjT7KTDGijW6RBsDt8A0/pQqo9VijuBwxlLeoihrXwHGeQCKxCJdm/lrlnH09Cr6UkwhAkAoAMZluH/ItR8F4WCxRicCP9E0A/q108K0QswRXNrTZDuXARwXIdApni+xjBP9cNunIAJAyCG1c9hYtqNzA4OniDU2SRaglE76NRL4C4vJi3k717Yv4vaTMSVikU2GgzpzrX6epK4WASAUMNFM9lxiukFmRP+lBcDd5BrXJSpplZijgFcEGnlHg5xLGXwWgnWVtEraAL4gGQndJaYQASD0AiZlsru5TPeh/fKd3srnRKgzLOPWulH0kXhF7yHewINcsqcQ4SwAW/ViUywk5tMTFaF54hUiAIRexPh53Ffv41xHzOegd50IeZ+Jp8Iw70uVUat4Qu+lejmXlG60xjHRFAJ27kWv7hLoNqNUv0x2+osAEHoxsUx2dzDdCWDPQh7wADxJwM2JsPECiFhaXvgmE5uye+gOLmCi01EY1w9vEgY+APHPU+HQW9LqIgAEAbVz2FgyyIoR0ZUAdiygV6snwj0ajHtkY5/QGSYs4iGabZ9JhHEARhXQq60A81VDV5mp2oPJlpYWRAAI/0P1ci7pt9E+lwm/BDAooDOcjzTC/QS+R67lFXpCLJPdHS6dCeB0ELYP6GusZMYNCBm3yycvQQSAsHkhUM+hUsM5HcQXAtg1AGF/OZH2NMAPrSs3XphN5EgrCjnrD8x6aZP9E4BOBvNRCMYq2XvEdNM6W39gdhVlpRUFEQBC92ZBTBMBnA5gG59UKwvCa8R4mjT3qenlRfOlpQSvmNDQtrOuaUeCcSQI+wEwfVK1TwHcz+BUKhJ6X1pKEAEg5GwW1KfR3kvTcByAwwCMgXebpb5kYK5GmAvQv4uz+ouSrUzwA/EG7gfdOZjBe4ExloCxDGzhUfEWgA8JeI41PDZ0hPGW3NwniAAQ1AuC9tsGd3WZxxJhLJj2BFCBnh0pXA1gBYAlABrANNfV7LkzwsWLxOJCUJiYaR2hucZYaLwnMyoJGApgMIABPXisA6AB4LnEeJsJ/7cz/1lZL47O648CcgEAj2+6oFX1QeYAAAAldEVYdGRhdGU6Y3JlYXRlADIwMjItMDEtMjVUMTI6MTg6NDYrMDA6MDCT25IyAAAAJXRFWHRkYXRlOm1vZGlmeQAyMDIyLTAxLTI1VDEyOjE4OjQ2KzAwOjAw4oYqjgAAAABJRU5ErkJggg==;" parent="RKjZyVbcrB04m-q0hB96-1" vertex="1">
                    <mxGeometry x="850" y="-590" width="46.02" height="40" as="geometry"/>
                </mxCell>
                <mxCell id="RKjZyVbcrB04m-q0hB96-23" value="keycloak-js" style="verticalLabelPosition=bottom;verticalAlign=top;html=1;shape=mxgraph.basic.layered_rect;dx=10;outlineConnect=0;" parent="RKjZyVbcrB04m-q0hB96-1" vertex="1">
                    <mxGeometry x="840" y="-530" width="70" height="30" as="geometry"/>
                </mxCell>
                <mxCell id="jucucpusSahh-SXNiXdP-0" value="FrontDoor" style="aspect=fixed;html=1;points=[];align=center;image;fontSize=12;image=img/lib/azure2/networking/Front_Doors.svg;" parent="RKjZyVbcrB04m-q0hB96-1" vertex="1">
                    <mxGeometry x="1040" y="-595" width="56.67" height="50" as="geometry"/>
                </mxCell>
                <mxCell id="jucucpusSahh-SXNiXdP-1" value="&lt;span style=&quot;color: rgb(35 , 47 , 62) ; background-color: rgb(248 , 249 , 250)&quot;&gt;LB&lt;/span&gt;&lt;br style=&quot;color: rgb(35 , 47 , 62) ; background-color: rgb(248 , 249 , 250)&quot;&gt;&lt;span style=&quot;color: rgb(35 , 47 , 62) ; background-color: rgb(248 , 249 , 250)&quot;&gt;(Istio Ingress)&lt;/span&gt;" style="aspect=fixed;html=1;points=[];align=center;image;fontSize=12;image=img/lib/azure2/networking/Load_Balancers.svg;" parent="RKjZyVbcrB04m-q0hB96-1" vertex="1">
                    <mxGeometry x="1150" y="-593" width="50" height="50" as="geometry"/>
                </mxCell>
                <mxCell id="jucucpusSahh-SXNiXdP-2" value="AKS" style="aspect=fixed;html=1;points=[];align=center;image;fontSize=12;image=img/lib/azure2/containers/Kubernetes_Services.svg;" parent="RKjZyVbcrB04m-q0hB96-1" vertex="1">
                    <mxGeometry x="1289.33" y="-660" width="45.33" height="40" as="geometry"/>
                </mxCell>
                <mxCell id="IjuyNILD1vDByLSJeYLJ-0" value="Azure&#10;Postgresql" style="shape=image;verticalLabelPosition=bottom;labelBackgroundColor=#ffffff;verticalAlign=top;aspect=fixed;imageAspect=0;image=data:image/png,iVBORw0KGgoAAAANSUhEUgAAAZAAAAGQCAYAAACAvzbMAAAgAElEQVR4XuydB3wc1bn2n63SqnfJsuXebbCxjQ2mmBIDwfQSQhoJAQIkBLghN8kNyRdyb5KbchNIIKQQMAQIJLQQMME0Y4ptwL1btiWr916265szuzttZ6XVasvM7Pv/aXbOvHPOmdnV7vvM6aYRDhAEQRDEODGRgBB6h32FQ19j6V5pixSeyE/AZDJFHWZ7aVhpIwi9QQJCaAb2VfT7/fwmDUu3kF26NwJms5kXErV9pI0gUg0JCJEUmLP3+XyyvTLMNiJ6pGJisVjC9myj0g2RSEhAiLjAvkZMDLxeL7+XigXb6GuWGpiAhMREbSOBISYCCQgxLkICodxT6UGfSMXEarXK9gQxFiQghCpMGEJbSCjYRqQHoZILExPpRsJCSCEBSXPYvz8kDh6PRwjT14JQgwmLzWYTBCUUJtITEpA0IyQSbB8KE8REYKISEhOpuBDGhwTEwLB2iZBQuN1uKlkQSSNUUmGb3W7n99RgbzxIQAwEa6tgQkGlC0KLsFJJSEzYnsay6B8SEB3DShhMMEIbExCC0AshQQltVELRHyQgOoL9q1jJwuVyCVVSBGEUQiWTjIwMPkxoHxIQjROqlgqJBv27iHSAVW+FxISqu7QLCYgGYSULJhhsYyUOgkh3QmLCNhqLoh1IQDRCqGrK6XRSWwZBjAKr3mJCkpmZSWKSYkhAUggraTDBYMJB7RmJhW+g5bYRcBu3D0284jeZwX4AbPNhfI24Vj4VWI4wB39GLAc+POLnw/TzSixMTJiQsI2quZIPCUiSYT2nmGgMDw+TaEQJc/7M6fs4Z+81WeDmwi6YMcS56EFu7xzh9iPcnjt28WFgYCRwfniExR2fMMSbTE5gskx+OEwjyObCudw+k23sXNCew0magzuXwe3tnPjYmABxG2iOsahh1VwhMaEeXcmBBCRJsFIGEw22J4IwUTAzQbBgiNv6ODHo4Rx/54gFPX4zOjjn38sde1IsAKnGzglLMSc0RWY/8rl9CbcVmHzI5cQmixcbH8x+HyvuKJOmJUw8QkLCRIVIHCQgCYSVNoaGhnjhSMvZajlxcHHbICcOPbCgy29BOycIrdzWwoW9aS4M8YYJTYXZh0pOaEo5gWEik8+LjBd2JjBp+B1kbSRZWVlUxZUgSEASAOtuy4QjLUob3I/Sbbai32RFBycSTZww1PosaOFKEeNtUyASC2uzqeIEZqrZi0ncvoT7D2Vz4mLzeQ1fegmVSpiY0Dxd8YMEJE6wj5G1bTDhMGTbBvcDdFus6DPZ0MwJxQmfDUd8Vr6dgdA/rGpsLics0y1elHFlw9ygsBjRPbBqLSYkrCcXMTFIQCYI+/hYFdXg4KBxqqm4UsWQ2YYOrlRR57fiACcWbSPUXTLdYI8GUzhRmc9tVWYPikd8yPC5DVNaYSWRUPUWNbrHBglIjLCPjYkGK3Ho+SNkPxwXV7Lo4EoWNX4b9nFi0U5iQYzCZJMXi7mSynROVAr9Hlh9+h7sytpGsrOz4XA4SEjGCQnIOGEfFxMNJh56/OjYD2TQYkeDyY79nFgc5DaDlJuIFMEa70+yeLCA2yaNeJDp0+eUO6zBnQkJlUiihwQkSvRaVSUVjB1eG45xpQz6hxOJhPV1WsyJyckWNypHXMjQWVsKE5KcnBxeSIjRIQGJAtabqr+/XzdTjPgsVrSY7djly8Bun51KGERKYSWUFVY3TjK7UeJzwcS6FOsANso9NzeXZgYeBRKQUWC9qZhwsG65WsdpzUA191P9wJuBDmrDIDQMa5g/gxOU6SNO2Lzabz9hJRFWIqF5t8IhAVGBfSSsqoptWoVVTQ1YMrBvJAPvc6IxTN1pCR1SZPLjLKsTc+BCple7D2rs98ZEhPXaIkRIQBSw0kZfX59mq6ucVjsOjGTiHW8miQZhKJiYnGvjxMTv1GzPLladlZeXR4MRg5CABGEfw8DAAN/DSmuMmC2osTjwhieTutgSacE0sxfnW4cx2efEiMY6rbDSCOutxbZ0hwQEgbaO3t5ezY0gH7Rm4l2/Azt8NCEckZ6wHl1nW5041TSEDI21l7AR7aw0ks5tI2kvIKxrLmso18zHwD3dNFiz8KrHQaUNgpAwgyuVXGQdQonXqZnfKxuEyEQkXadFSVsBYW+bCQcTEE3AfRGPWLLxstvBr2tBEIQ6rK3kMtsQpniHNDOtCmtgT8cqrbQUEDYQsKenRxPrjZs44ThgzsJLniyavZYgxgFbnOtq+yCmebUxnRDr7stKI+k0ij3tBIT1ruru7k55Lyv2Jau2ZuMldxaVOAhiArCZhD9jG0C5J/W1CaxdpKCgIG1EJK0EhDWSM/FI9VQkPdZMPOPNoQF/BBFHWBvJ1Zb+lI8nYV18CwsL02IBq7QREC2IB+uO+xryqFcVQSSQT1mdON3fl9JqLdYzq6ioyPAikhYCwqqrurq6UioebTYHnnDnUnUVQSSBQpMfN1j7kONN3aqg6VASMbyAMNFg4pGyNg+TCZvNedjspZk9CSLZXGUbwkJvv9KcNNjIdSYiRm0TMbSAsLfGqq1S1dvKb7Fivb+AXyecIIjUcLLFg8vRk7IR7ax3Vn5+vtJsCAwtIGycR6qmJvFYbXjYW4C+EeMWXwlCL7AZgG8w9aRsKnnWvZeteGg0DOvd2BoeqRIPNycev/EUkngQhEZo8FvxR38h35ElFbCHWa1NlRQPDOnhWKGKzaibCrwWKx7kxMNNjeUEoSlYt/n1I4X8rA/JJpU+KZEk/5NMAmxW3ZT0uDKZ8LivAEMkHgShSRr9FryMAqU5KbC2WM1MnRQnDCcgrLdVqqquNpny0UyDAwlC0+zx2XDEmqM0JwX2cGukZmfDCUiqVhEctGbgfV96zshJEHrjOU8230sy2bCakVQ94CYCQwkI++ekqoj4D19qnmgIghg/rIL73ZHU/GZJQDRKqsRj2Grne3kQBKEfPvRlpKRXFnvQZb1EjYChBMTpdCpNSWHviPH6dxOE0WEtEU2W1FQ7p8pXxRvDCAhT9VT1s97usylNBEHogIMparekEojGSNV0JWyOm07qeUUQuuRoiqYZYj2xUjLUIM4YRkBSNVmi32SYj5Ag0o7eFM4WQQKiIVIlIGa+JpUgCD1iS+HvlwREQ6Tqn8Fm+LSm8EtIEETsVJpT8+DJMMKAQkMIiHuEban7ZyywpKbxniCIiTGffrsTwhACYjdxau5NTQmEscJijC55BJFuzEHqekM53akr/cQLQwgIw+NLXQlkss8JC1VjEYSuKDf5kJ3CJW+9KfRZ8cIwAjLoTGFR1O/HOltqRsETBBEbl9lSO6WI00MlEM3Q1J3aaqQlvgHkm1JXjUYQRPTMMXtQ7kmtgPQMupUm3WGYJW1/9+JufGZ1hdKcVAasGbjfk5q1BtKVDIzwXTFt3NfYypYr5UqDJtYjz+eH3+vlNh/8XNjjDgw0dTsDP1qX28v3oPN4vPwmhVUtOF3hP26rxYLMDPmcZ2wgqcMRGM1st9tgNptgsVoCm9kMs9UKq90KE3dsYgsZWcwY4fJh44e8XFw3t3eNmPjJ/YjkwL4v91i7YPGlsNaC40CLF+cumaw06wrDCMi6H7yGR7+xTGlOOmydgb97spVmIgrYmOAszpVmcEJg5pz/COfkfW43XEMuDHPbwOAQ+gacGBgYRm//MLzM8Rvj68sJjQVZnBDl5TiQk52J/PxsZGVlICMzA9ZMO8x2O+f5LPBYrHBxojNMi5bFzO22XhR5U1tjwZo/dtW5cPHKqcpTusIwAnL6XS/hqf84DdkZqf9hfWTJx0ZvptKc1jBxyIEPNjZfGVcK8AwNY7CfE4S+QXR2DaCje4ArHaSuQVNvmLmSTEF+DkqKclFYkINsTngycx2wZGbCy4nNECcyThKZML5gG8B0b2rWDJKyv2EQTp+VBEQrMAG54fwZuHJlaquxQmzlROTNNBMRB0bg4EoPVpcLLq6UMNDTj9b2HjS1dmN4MLVPfOkIq0YrKy1ARWk+Covy4MjLhikrE06rDQNpOIfC5znxmKEB8WDc+cgufGntAhIQrcAEpGfAhU0/PVcz1RoHrTl43oDVWbnwI9PjgX9oCP1dfWjhBKKuoQOuYPsCoX1Ye0x5WQGmVBajqCQf9twceDMz0GeyQP99g+SwnkI32vpQ4dVGT8lBlx/nfv9tPHzHWSQgWoEJSHPXEH57ywqsmpOvPJ0yOq2ZeMSTB48OqxOs3C3n+bwwc0IxyAlFU1MnaurahAZpwniwTgGlZfmYMbUchSUFsOblYJBViY3o7/vLyDH5cau1F5le7TzcPPjqcTzxznESEC0REpDcLDvevO9sBJaL0QY+ixVP+fNRp+FVC9lTWoHfC9PgEHpau3C8tgWtXMnCIF8PYoJk5TgwZ0YFyitLYC/IQ7/Nrvk2llMsHqxDD98zTysMukZw3r1v8ZUkJCAaIiQg3FvCd65diKs00hYSgj3Z7bfk4EVPliakzWEaQY7TiaGOHpw40YKaE23wp2hGY0KfFJfkYzYnKsWVpfDlZKPHlJq1NZTYuV/Y5+wDmJLicR5q/NeT+/HmrmY+TAKiIaQCwvriv86VQvIytfGFluKx2PCCPxfV/uSuYpjFCUb24CB6udLF4aMNaGvtUUYhiAmRmWnHgnlTUDGlHMjPRbc5+fNUn2px4wJTH0wafBg62DiIG+7fIlSOkIBoCKmAsL+5lbl44q5TNVvIbrM58IwnB30JWtCGTTCZ73ZigBOMQ4fq0NLSpYxCEAnFkZWJRfOrUF5VDlduDvoTOPEFm5b9M5YB5KR4fEckPP4RXPijzRgY9pCAaBGlgDC+unYWblk7TRZPS7BqraPWbLzozopLfTLrHWXr6cWJY004dKSeH4FNEFqhtLQAJy2eAUd5Mbqs9riMvi80+XGtbQBlHm30sFKDedhvPbYb7x/sYEckIFpETUBY4Hc3L8NKDfXKUoMJCRvB/k+3Y9xCUuT3wt3agf37avjutAShB1h11xJOTEqnT0K3IwvecXqhIk44rrINYpJ3WPMdPR7fVI/fv3okqBskIJokkoCw9pBn7jkN00p0MKiPE5J6axb+5clC1yhVWyHR2LXrGDo7e5WnCUJX2GxWLD15JspnVI4pJlVmL9ZZh1DqdWpeOBjvHezCPY/u5MMkIBomkoAwMm1mPPfd1SjNTW7D9UTosTnwjs+B/b7APbNG8IyubuzeUY3m5k5FbIIwBvYMG05dNhf5XMmk02LnbexXzBrHzzQPISuF63eMlwONg7jxgW2C0JGAaJjRBIS9ZtosvIiU5Gp3LIYaXosVu7o9eGDjXvSwBjiCSBMWzyjFjWfOxWyzByY207KOONQ0hK/8dhv8/KJRxhWQyPUkBoMt3nLNz7egrkObvTQiYfV5sSLPhL9euwR/uWYpLls4CWbT+NpJCEIvZFjM+PKKqXjyulPwszOnYg5rFdSZeGyt7sGXH9gKv98Qz+ajkjYlkEDABKvFhIdvXYaTpuaGrLpjhHsftT0uvHSgBe8ca9fK1F8EERM27jd5OfdgdOGcMlRksxoC/X6hX9vRhh89sx/Ce+B3xi2BpJ2AhHbfv3YBLlleHjqjW0Ji8u8jbdjIbd40eOoh9E+m1YzLFk3C2lmluheNACb86Y0a/IXbApCA6IrxCEjwAOtWTMK918yVm3WNCe3DXmyp68Fz+5rQPaSdCeQIYmqBA1efVInllXnIz7DAKEVntrT5XY/uxifV0sG6JCC6IhYBYcyoyMEfb12KPIf2pj2ZKE7ui328exjvHO/EW0fbuC+6If7VhE7Itltx8fxyrJ5WhOn5GbCajPf9a+5148bffoKuAbdCEElAdEWsAsJsdq44/ePrF+KcRUWS8waDe5/9bj8OdwzhvdpOvF/TCTeNVCfiCBOM82eX4vRphZhZmIksi2GK9mEwr/n81mb83z+PwB9yoSQg+mUiAhLinMVluO+z85DBFsIwOtz7HvKOoJYroXzU0ItNx9vROUhVXkT0sCqpc2aVYlllPqryMmA3G8KVjAlbEOrOR3Zjb10fBDVgkIDol3gICLPlOqxcaWQBTp9bILGnB6yzZJfTh6OdQ9hW142t3Dbo9iqjEWlIgcOGs2cUY/nkAswsykJ+hpk5D2U0Q8Pe7r93teOnzx+Cx+OXyYIQQTyQ7EhANE+8BCRkWjazAD/9wkLkG7BtZDz4uM+khxOVEz3D2Nvaj20nulDfq92J64iJwb77s4tzcNrUQiwsz+VKFpnItZvTcAV1OW19Htz96B4ca2FrqgdEgASEBETVFjCZ+P7pN62djs+fNRmWtBlyGQ0muPwj6Bjy8mJyqH0Qn9R382GhPpjQNFazCXNKc7CssgBzSrIxhROKIq70bWPfc/ofCri5YvkfXq/F396rk3wsJCAhSEBUbCEBCVGQbcN3r5qLsxcUyqMTYfhGTBjw+tE+6OYExYnq9gFOYAZQ2z1IvcCSDBtrMYcrTSzgShKzirMwOc+BQk4ksjmVsEgdHxHGCPf737CzDb988QicbtbZRCEOJCA8JCAqNqWABDBhRnkWfnDtXCyYnK04R0QDG/To5kSkj3us6xryoKXfhWZua+BKLsc7B7mwkwZCRomdKxKzRuxphVmYWuhARU4GyritKNOGHLuFOw+FQyOigX1kO2v78cNnDqKjLzhxo0QEBIOgAxI7CYh+SYaAhExzK3PwvSvnYP7kLHkUYuJwH76He+BzcaWYIS7Qz4lNr9ODrmEP2gZcaOW2zkEXH2Y2Fs8IOGwWFGfZUZKdgfIcOyryMvnjQocNBZwoZNvNcFgtyLSYEOgkaIifrabYVz/IC0dTV2i+vHAREAwkIDwkICq2sQQkFFg8NRffvnwW5k4iIUkp3D+M1Y6xKjJWgGHtM14uzMa5uHxMiHxwc0IzHBSbfmegZ1m/28OXeJycUA2z4cQq9Lu9sHD5Z9nUO1PkZlj5+dUyLJZAHFPAxnBYzfws0KwqiYVZm5qNKznYTIE52dgwCX6ohDF+grqEffT7G4bw388dwon24TFFQDAIOiCxj5FWeA2eIgHREKkQkEDQhOmlDty5biZWzc6jNhKC0AHM631wpBe/eLEa7cGqqoCvH10EBIOgAxL7GGmF1+ApIwgI9S2KA7Xck8t/rN+Py3+xA6/u6OCffgmC0B5sWNNLH7fjgv/+CN9+fD8nHjR4diJQCUTFNt4SiGgJvLKpUS5ZUY4b1kxGaZ6+FrAiCCPS2ufBI2/W8z2r+HU6VEoLgcJCuJ1KIJGhEkgCYPXtL2xr4Uok23HzH/bjo2P9fN08QRDJg031tvVoP65/YDeu+Pl2vLK9NS0WeUomVAJRsU20BCK1Bw+QlWHBRaeU4HNnVKKyUD9rsxOE3mjs9uDJ9xqxYXtbYMJQwcONXloIFBbC7dJShGAQChKj5ylNK7wGTxmhBEIComJLhICIOxOqijPx2TMqsPbkYuRkUCGQICZKv9OPTQe68aeNdehkU6sHGZE47LGcfcDXh9ulIiAYhGxHz1OaVngNniIB0RB6EhDRasKCKdm4bnUFzppfgEyb8poEQURi2AO8f7gH6zc1oKaV/fYR5uxJQBILCYiKLZkCEjo0c/FPmpqDq1aWY/W8fGTZldcnCGLQPYKPj/Xjr5sbcbBhQHIm3GEHQqLDHsvZB5KG25V5hkRAkipoHj2t8Bo8RQKiIfQuIMrrzZ6UhStWlOGchYUozKZqLiJ96R7yY/PBHjz9XjPq+VHiIec8usMOhESHPZazDyQNtyvz5MNCtqPnKU0rvAZPkYBoCKMJiDR9WZ4daxYV4uKlxZhVlkkzAxOGxj9iwrF2F97Y3YlXdrSjd8grOGeZ0x7DYQdCosOW2tXSBpKG25V58mEh29HzlKYVXoOnSEA0hJEFRMid21k59Ti5KhvrlpVixawcFGVblCkJQlcwD9Qz7MfO2kG++/vuEwPBbu/hzlnmtMdw2IGQ6LDV8gseiK8qdmWefFjIdvQ8pWmF1+ApEhANkS4CIsYL7HMcFqyclYe1JxdiydRs5GVS8YTQPv0u4EDDEDbs6sD7h3r4+ch41JwwH1Q4YYkteCDZiXYSkMRCAqJi05OAKPMsyLJi+YxcnLu4ACdxJZWibLMyZ4JIKmxtje4hHw41OfHugW5sOtCDQRerlorSCfNBhROW2IIHkp1oJwFJLCQgKjY9C4hgDJoyrRYsmOLAeYsKsHRaDiYXWmHnp4AliMTAChOtvT7sqR/EG3u6sKN2AD5+frgYnTAfVDhhiS14INmJdhKQxEIComIzkoDw1xDMgXBpro0XkzPn52HBJAdK8yywUs0XEQNsBcrOAR+OtDjx4ZFebD7Yix7W6C0Q7kgFQ7ROmA8qnLDEFjyQ7EQ7CUhiIQFRsRldQIIHkqAJZXk2LJqchdPm5GJ+ZSYqC2xc6UWMQhAunwltfV5Uc2LB5nfbcrQPXf0hsRDdiNylhDtSwSD4UoldLS0fVDhhiS14INmJdhKQxEIComJLRwERrWK+DrsF00rsOIUrrSyuysJ0LlyaY0EmTeVlaNx+E7oH/DjR5cbBxmFeLA42DgXXtA93pEI4FBrDkQoGIbnErpaWD0pjhvJUiau4DglIYiEBUbGRgPCB0ItwJnTIpqufWmTHwikOLKh0YGZZBsrzrMjNNMNmNsTXyfCwqqcBF/gSRR0nFIebh7H7xCBfugisZyP+HyM64Qh2EhD+QLKTxhQSkoBoCRIQKWK+iRAQ5fVMkvRsCddJBVbMnZSJOeWZXAmGE5d8KwqzzMi2s2VcDfF10zx+7n807AZ6h/1o6/eiocuDY61O7OdKFMfanMHSBMZ0eoGQ6PRkDjOCnQSEP5DspDGFhCQgWoIERIqYb7IFJPJ9BdKzdcFLcqz8lPZzyjJRVWLnBacoy4I8h5mfA8xuYXODsc6fhBT2Q2WfisdngtM7gn5OHLoG/Wjp9aCh24O6TjcONQ9xpQpfxF5PgVD0Ti8QEtNGylMWP4o8Q2kDFoldLS0flMYM5akSV3GdiPeukjaQNNyuzJMPC9mOnqc0rfAaPEUCoiFIQKSI+WpNQAIhdbsyPhOUYk5sJnNiwxr1S3Kt/Mj7Aq40w6rLsjMCgpNh5Uo25hFwO7AeyibWo0yrX2v+szLBz92fz8/EAHBzGxOEAdcIBp0+9Dr96Bn0ob3fx4sDW9/iRIcbgy422C7ckbEX0RruuASDcEpiH8PpBUJi2kh5yuJHkWcobcAisaul5YPSmKE8VeIqrhPx3lXSBpKG25V58mEh29HzlKYVXoOnSEA0BAmIFDFfPQuI1C4Go7sWi8ZKO1YzW8zLzE+Vn2U3w26z8Guw2K3gji1cSYcr7ZgD7Tri+BiuFMSpUWB6fTFf5vSZEw/8YkQ37PaMYNjjh9cfOM+m4egb8vEx+jlBGHaPoI/b820LEocSQHQoUvt4nLD0XsaOK489ltMLhMS0kfKUxY8iz1DagEViV0vLB6UxQ3mqxFVcJ+K9q6QNJA23K/Pkw0K2o+cpTSu8Bk+RgGgIEhApYr7pLCChsIxR0otnIt2T+ONnATE4uuMIhNTtyjyFUBR5imlJQCJdJ+K9q6QNJA23K/Pkw0K2o+cpTSu8Bk8ZQUBo+BhBEAQREyQgBEEQREyQgBAEQRAxQQJCEARBxAQJCEEQBBETJCAEQRBETJCAEARBEDFBAkIQBEHEBAkIQRAEERMkIARBEERMkIAQBEEQMUECQhAEQcQECQhBEAQREyQgBEEQREyQgBAEQRAxQQJCEARBxAQJCEEQBBETJCAEQRBETJCAEARBEDFBAkIQBEHEBAkIQRAEERMkIARBEERMkIAQBEEQMUECQhAEQcQECQhBEAQREyQgBEEQREyQgBAEQRAxQQJCEARBxAQJCEEQBBETJCAEQRBETJCAEARBEDFBAkIQBEHEBAkIQRAEERMkIARBEERMkIAQBEEQMUECQhAEQcQECQhBEAQREyQgBEEQREyQgBAEQRAxQQJCEARBxAQJCEHojNxMCyoLbZhbkYnFUxxYPj1b2JZOzeLtlYV25DksyqQEEVdMIxxKox45/a6X0Nw1xIVM/F+AQEA8FEKiVcUWMEntwWNFvoGg9Brh9uCBZCfaTZHy5A/D08vvSz1PwSiclpxTyTMQVNxTIBB6Ec6Ih/LrmdTyHSW97J4i5iu3i8HoriVGk9rZYeT04plI9zTC/4XCYlD6EwqG+Z1oF2Ir7Mo8GVl2M2aX2TG12IYpRXZMK7GhLM+G8lwrinOsMI/jsc/rG0F7vxetvW40dLlxosOF6lYnjjQPo63PE/29K+5RCKvY5S5FPc9Q2oBFYldLywelMUN5qsRVXCfivaukDSQNtyvz5MNCtqPnKU0rvAZPPXzHWbh45dTAgU4hAVGxkYDwgdCLcEY8lF+PBGR0xxEIqdszrMD8SRk4mStJLJqcwZUeMjCZK10kg45+D3bWDvLblqP9qO90Bk6o3bvkfYuo20lA+APJThpTSEgCoiVIQKSI+U5EQHIyrfyTb57Dirws7slXiBYIDLh8cLr9cHlH0DvkQ8+QFx6fNIriemr3JLFHii9LofYeVK4VjYCYuTB7yp9dzj3lF9k4x8094WdbuPdrhtViQk6GCU7PCLx+wMXtPdzTPHui7xn2o3fYh44BH/cU70NjtwcN3V50DrA3H+44AiF1+/kLs/HlMwp54Ug1DV0uvHOgF2/t68G++kHBHtEJR7CTgPAHkp00ppCQBERLkIBIEfONVkBYnfnJU3OwdFoO5lQ4MK00E4XZVjFOlPRxjrVn0IvWPg9aej1o4pxrc48bNe1unOh0YdDll99TxM9AbheDKu8h7DOILCDs6f6MOVlYNdOBJVUZnEiMoz5oDHqG/Khuc+Nwiwu7Triwp2GY+zz8/LlIAhJyKCtnZuELpxdg1awsybnUcbzNiZc+7sSGXV3oHmJVXaEz4feutACmUY8AACAASURBVJOA8AeSnTSmkJAEREuQgEgR840kIOzpewknFucsLMSahQWoKk7OE3ArJyrH21041OTkt4Pc1sLq4nkU71ny2YjB8M8l/DOQC0huphkXn5yDi07KwYJJyXmfIapb3figeggfHB3CvkYn/LyehDujUPiUaQ7cdl4xJ24OSZzUwUpdb+7rxmObWnGsdRij3bsQGsORCgYhucSulpYPSmOG8lSJq7gOCUhiIQFRsRlZQErzbLh8RSm3lXCljuQ600h0DXixvXYIu+uG+T0TmJER+WcjBsM/l/DPICAgU4ps+PxpBbx4ZFiVn1HyYVVeb+wfwMZ9/TjQ5ApaRYcidUarZ2fhzgtKMb3ELthSzaYDvfjT20043MR+Zwz1eycB4Q8kO2lMISEJiJYgAZEi5htyvdNKMnHjeZW4eGkxzGJjhiZhgrL12BC2HB3k9oPoHWbVXkFUPhflZ1DOieTNawqxbkmupN1GW7CSyYvbe/Ha3n4MuQLVXFJnxH6WVu7mr+cE8KtrivmeWVqBlUgeeK0BTd0uyS3L710k3JEKBsGXSuxqafmgNGYoT5W4iuuQgCQWEhAVm5EEpCI/A9/8dBUuXFIsz1In+Llv584TQ9h0cABvcxt7iheRfwZ2iwmfP70AXzmrUBMljmgY4MTj+U968ey2HnRywhlC+rMszbXgW58uw3kLcgVbqnF7/Xh8cwvWb2qB08MEULxfEhD+QLKTxhQSkoBoCRIQKZwztZnxxbMn4avnViLTpp2n14nQ7/Tjhj/X8b2eAoifARs896PLyzCrTDtVPuPB7RvBi5yQPPYea7T2qTrhCxfn4dsXl2lqgGB9pws/eq4Gu2r7BZvavU/ICfNBacxQnipxFdchAUksxvAshIzJRRlYf9tCfP2CKYYSj1vX10vEIwCTkM+uKsBjX52sW/FgsNLTddz7ePHO6bhpTZFqCer1vX24/uEabD0qdrFNNazzxZ9vmY+7Lq6C3WqM7xoRPfQfNxjLZ+bh6W+ehPmTs5WndM2PXmzG0dZQw3MA5mT/++oK3H1BCd9eYAQcnODfvKYYf//GdJy7IEd5Gu19Xtz5VD0efqudr97TAuyj/+JZFfjL1+ZjUoF+RZwYPyQgBoJ1yX3oq/ORq6Eqjnjwl82deP+I/Kk7n3uPv//SZKxdFO5kjcCkfBt+/plK/PKzlfz0JVJYTclj73XiG0/U8R0OtMLCKdl4+o5FOH1uvvIUYVBIQAzCmfML8IsvzDVcNQLr1vvnTZ0yGxOPh2+YgsVTMmV2I7JmXg6evX06J5ThDeif1Azihj/VorolOAWJBmAzFvzuK/Nw9aoy5SnCgBjL26Qpi6fm4JeceLDpN4wEa/dgVVfSqhpWXfLTayp03d4xXlij+U+uqcS9l1Ugwyb/H7OBmTc/WosPqwdk9lTC/kffv3I6vn7hFF32/COihwRE5xTn2HjxyDBIY7mU/32lBa198iqa288vwYoZ2pjuI9lctiwf62+eHjbZIhtHcvfTdXhpe7fMnmpYD8DvXTGDRMTAGM/rpBHsh/nj62ajPN94T+PvHOzHG/vFrqGM1XOy8cXVhTJbujGrLAOP3zIdy6fLRZRNkfLTfzXjyQ86ZPZUc82qMhIRA0MComOuXFmO0+cWKM26p9/pwy9ebZPZSnKs+OEVFTJbusKqtB78UhXWLZU3VrPG9Qc2tuKxze0ye6phInLnxfoe70CoQwKiU4pybLh73TSl2RD8dmO7bFQ24/uXlaMwy1i9yyaCxWzC/7uiEp9bXaQ8hd+/1YZHNmlLRL509iR84axJSjOhc0hAdMqtF1QhO9N4DpXNzvuvnT0y2yVL8/jqKyKcuy4sx03nlCrN+OPbbfj7NnnvtVRzF/fAc/aC9K6CNBokIDpkSnEmrlppzG6Sv9zQKut1xUodd18Y7iAJkVvOLcWXzypRmvGrDc349x65GKcSvgfd52bzMyUQxoAERIfcsGay5mfUjQU2Vce+BrbmhMg31pYi14AlrXjz9U+V4Quri2U21iby4xcbsaNWO1OfZNktuPeqmUozoVNIQHRGQbYNl64w3hM560X0p3fkPYhOmuLApYqGYiIyd15YjkuWyjtVsAWh/vMZNgGlW2ZPJavm5GPFzDylmdAhJCA6Y92yUsONNme8tKMb9V2ik2PdPtmCSsT4+MHllThzrnzUOluv/u4nayXrjqSea0+nHnVGwHieyOBcYcC2Dy/3lLz+PXmDL1v74mSNLOuqJ1jV5s8+M4Wf3l5KTbsLP36xQWZLJWsWFvLVWYS+IQHREdPLHJhVbrxR2Kzto6VXnKadNe987dzwRmEiOtgU/r/63FQUZssnYXxrfy9e+LhLZksVrBS9dEb4/F6EviAB0RHnLZI3khoB1tD7xAfy0senFuVheqnxRtcnk0kFNvz8uqqw+dH+b0OTZiZfXDKNBETvkIDoiDMN2Id+67EBvnpFypfPMp5QpoJTpmfjtvPLZTa3dwT3PlfHVxummtkVxitNpxskIDqBVUssrjLeE9s/tsknAFw1Kxuzy2mcQLz40pklOG22fM2UY61OPLpZPlVMKqgqMf50/EaHBEQnLJmeF1YdoXeauj1h05B/9jTjlbJSzX1XTUGRoj3k0XfbcCTFVVlsOh5C35CA6ISTphpv5b1XdvXIRp2zacpXK56WiYlTlGPFf15SKbOxKqyf/jO1vbIKs0lA9A4JiE6YV2k8x7pht3yajcuXFdC03wni/EX5OGehfPDevoYhvLIzdb2y2P/aaKXqdIMERCfMn2ysyQR31Q3xVVghWNfddUto1Hki+d6lk8OmhXlwYwuG3KkbYOigsSC6hgREB7CpuysLjdWw/Oa+PtnxKdOyUJonr6cn4guryvqaoldWR78H6zXQoE7oExIQHTCJEw+jTZ646aB8tcG1i2lupGRw7coizCiVP4w882E7eofk668ki/7h1FyXiA8kIDqATd9uJPY3DqOtT159tWa+8booaxH2IPIfF8sb1FkV1hPvJ38BKp+0BwWhS0hAdIDRujtuUXTdXTjZgeIcqr5KFqfPzsXyGfJOGc9s6UDngCjqySBVpR4ifpCA6IDSPGNN67HtmHx9itVzjNfDTOt8/VPy2XBdHj+e3SqfTj/R9JGA6B4SEB3A1gAxCoMuf9iiUafOMFYPMz1w8tQsTrjl1YYvfNQJtzd5PbJYAz6hb0hAdACbxsQo7KkfktV9Z9nN/MJRRPK5cY18aYAerkSwYZd8aplE0tYrnwON0B/G8UwGJjvDOH3lmYBIWTA5E2b6FqaEpdOysaBSLt7JrMZq7tHOKolEbNBPVwdkGUhA9tXLq6+o9JFarl8tX/WxumUYBxvlIp8o6jtSOxcXMXFIQHQAG0hoFA40yQWE9cAiUscFJxWE9YB7dWdyqrHqOuTfBUJ/kIAQSaO9z4O+YZ/MNoumbk8pbC6qdacUyWz/3t2dlPVCattJQPQOCQiRNI62yRtNWeeAKYXG6qKsRy5dJp9CnzWmf3RMPlNAvOns96BnkLrx6h0SEB3g8SWva2UiUa48OKXITrPvJhi/fwRdA14cb3PyS9my7Wirk2/AdnoC36sZpZlYNEW+OuCmg72y43hzpFk+FojQJ6aREbYqtf45/a6X0NzFGv9M/F+AQEA8lHqrYFjFFjApPVt4voGg9Brh9uCBZCfaTZHy5A/F4x9fNxeXrpB3udQjv9zQjL9v6wq8bwSmL/nl9VWKWOOjo59zju1udA76OGcZqJKpyLdidpkd2Rnp9XzUzn0W244N8D3djnJCUd/p4koToSrDEf4vEBJ/8hlWE7/YFBOT7sHguIwRNnjVite+s1iIF2/Wb2rEbzfUBe9E4oJk7ijcLouvFpffiXb+vQqH4fkFD8RXFbsyTz4sZDt6ntK0wmvw1MN3nIWLV04NHOgUEhAVm9YE5N6rZ+Pq0+Qjh/XIXU+ewAfVA4H3zfG504tx10Xy2WFHo77LzTlHJ/Y1cE/SrS7UdnjQ7/SHfa4sbOG0Y15FBs5bmIPLluYi32FMMWFtFa/t6cU/d/TwwiH8nCM4vUAoOqf3xO3zsHByYtYtv+evh/H23i6Zaw0EVe6HD0pjhu5TJW7w3kXriOQwPL/ggfiqYlfmyYeFbEfPU5pWeA2eMoKAGPNXZTCMMmdQU4985LGy948SNuBw67FB/PRfrbj8/hpc87ta/PifrXhhey/2ciLCi0cE2FjFg80uPPRWFy57oI7fD6dw3YtEsHFfH6564Bj++6Um7K5j4qGMMTFY1Vei2F2b2DYWIjmQgOiA+k5j9JcXq1MCRBKQ6hYXfrWhDRf+6hi++WQDXtrRi5be2Ke9cHlH8Nctvbj+j42c8Oh/9POQy4/vPNuIe59rnNDnMhZleYmZQqexy5X0iRuJxEBVWCo2rVVhnTqrAH+6NXH10cmANeauuu8AHw5VYf3m81NxxlxxIsV3Dw3gqS1d2HUi/P8oBsf+XPn4ET5Xm9WMH15WgrUL9Tn/FhPhbzxRjyMt7KEiVB0iVkqxqrvl07Nw5txcfpT59NIM5GWa+WncWRdqNhfZkMvHi+oAt2e9odo4EWrocuPFT4Kj0IN5Pv2N+Zg7Kf7jdDbs7MC9z1RHXw3EBxXVQBJb8ECyE+1UhZVYSEBUbFoTkIqCTLz2/RWSk/qjc8CLi355mA+H5OAPX5mOZZyze/dQPx55twOHm6WlA/lnIwZN3JOxFbPK7JhWnMGVYiwoyLIgn9tCcZhzPNDkwvvVQ6jvUlTDcOnZuMyfXFWGc+cnpn4/UXh8I7htfR32CKP5Q85ohO888JlVRbiO2yYVjL/k0DXoxQU/2xc4COaZKAH52Ys1+MfWluidMB9UOGGJLXgg2Yl2EpDEQgKiYtOagJi58NafrYbNorwn/dDU7cbl91fz4ZAc/OCKSryysxc760JTZyg+s+BhRb4NZ8zJxqkzsnjBYYIRLR8cHcL9G7s4IQlWmQQ/V7vVhMe+UskJ0fidbap4YGM7nvqwU2IJOKOlUx344ZWVfLfoWGElkCt+HSghhpzeC3cvxNSS+A/0vO7+Pahm3XijdcJ8UOGEJbbggWQn2klAEgu1gegA1iDc2KXvdhBWdaKENf7u5KurwsnJNOOq5QX4841T8fJdM/GddeU4b2HuuMSDccbsLDz9tck4X1Fl5eZKKT96uYP/bPVAbYcbz2wNn2Lk+tOL+JKcUjxYB4TjbS7srB3E3vohtI8xdTqr1lKSiG7QbAnbY600At0oxP8bQiSEEzqf9iHaHlCluVbcsbYM/7p7Fr57STmWVE28CoWV3FiV1QWL5AtXVbe68dJOffQGeuy9zrAlYG84sxh3X1QuzGbMTm/Y3YPb1tdizU8O4boHq3HLozW48c/HcfEvD+FLfzgqW0pYyoBTRUAyxyfW0bDtaB/fHkYYAxIQnVDbpm8B8Y7hNNjT7h1rS/HSXbPwxTOKon76Pdbmxm/f6MDNjzXimofq8NVHG/GTV9rxMicMyl5f37+0BNOK5VVWT27p03wphJXe3jogF7q5FZm47XxxcKnLM4JbH6vF/3uhEZ/UDPIrDCo52DiMDbt6lGYe5WflsJsTsg7NB4fVr0/ok/h/Q4iEcLxVvarHCHz65Hw8fwcTjuJxtfO8ursfn/9DHZ7a2oM9DU6+nWNfo5MXj5++2o7LflvH7TvQNxxwpmzU9Z2fkk8c2NTjxSe12q4eZGNhWJWblBvOLOI7A4R4v7o/YnWglCXT1DsONHbL1+Yoz4+9PWU0th4hATESJCA6oUbnVVhqsJ5TP7tuMu67qhJFEcaEjMY7BwdkTZtKmNNlYnL7X5uF6p/Vsx2oKpKXQt6rHtvxppJddfL/PSsZsGlgpLBlgSONqwmxbmkhTpmm3n2Zjc2QkogxIKzto7WXFpEyEiQgOqFG5yUQtUWxHvjCVJy/ME9pjprl06NrHzna5pZ15z1nnvwpfHe9tgcXHm2V39+Cyky+F5mUPIcF//e5qogictWpRfjhVVOUZgHWC0vKtAT0vtpCpQ/DQQKiE1gjZ3uffp/e1No02OC2iXD1qfmYXT52VcuiyRmYXiI+US+YJE/DBKY3WM2lRdr65GNZIo3zWDTZgefumI3bzy/Dqlk5mDcpExcvKcAjN83E9y6dLKvyUqKswppemik7jgcfUvuH4Qj/VROa5ZiOSyFqAsKm5JgIdosJ93+uEjNLI4sIm5n3f66Uz2TMSi5SZ8pqt7Yd1247iLKHFOupFomcTAu+cnYpHrxhGp68bTbuu3oKlkxVb/cIwXpFKdcnj7eAsF54O2r00eONiJ7wXzWhWQ436XcNhWx7+FeNTaUxUZgzXX9TFb58ZiFyM8VrsF5EVy7Lw+M3Teae2OUOl83Mu6hSXkWz7bh225iUPdiU1VcTpbnHE7YCYVVxfKuw3j/UDbd3Yg8MhPYI/1UTmoUfvatTMmzmsLXdJ1oCCcF6V912bhE23jMDf7u1Cn+/vQpv3jMN37m4JOI07qtmydtPdmq6HUT+uSmd/USp65S/d9YTrqIgcqkuFt7eFz4IktA/6r8uQpMc0XEJhKGsxoqXgIRg+sSqs9hYD6VYKVlSJa+iYd15OwYmXiJKBIXZ8g4Ig1EOyowWtvCUlMpC+6jtJeOFlTzeO0jtH0aEBERH1LQN8xPq6ZUwAYmzIxwPJ0/J4GeulbKvUZulkELF9C2tcZ7CXdkDK97VV9uq+7j/tTbFmZgYJCA6go1lONai34Z0JcMqo6WTBav2mlEir6apbo2vY44X5fnyNhxhYsg4wWbilVKWr97LK1Y27pVOAEkYCRIQnXGwcUBp0g12q7a+bvMqwrvzapGZpfISASsxKOfFmgjKFS/zHZF7eY0Xdp9UfWVctPWLJsbkQIN+BYQ99WuJ2Yqp3Gs64vtkHy9ml8sFhI2wl6+dMjF6FfNgsRkC4sWW6l70DSduaVwitZCA6Iz99foVEK0xpVAuIC29Pk1OrDh/UviYDHFRqYnTq3DwhdnxK4G8uiO4yiFhSEhAdEZ18xD1p48TU4rkjpJ1UFCO+tYCbAVG5ejz7bXxawvrU5RA2GDEeDDo8mHTAeq+a2RIQHQGq1PW84BCLVGeF+4otdqVl61zLuXj44Oa75HHxn6oTStPGAcSEB2yr46qseJBlt0c1i7TNahNh8eW85XCukBHM317KnltF/W+MjokIDpkT50+5xRyKda00ALKMRa9w9osgZw5N1tYeTDE24pFpmJFufJgPP5PHf0efHS0V2kmDAYJiA7ZVRsfx5FslG03rASQarIzFdOruCfuPBNBLufkldVYbx/oi0t3XuX/QW199PGyYad+1psnYif1v2Bi3LT2uLhNm2MWRmPAKReQDA2MC3Eolm1N5ej4sVgzX76mO1uGdtuxibeHKQWELaE7UV76uF1pIgxI6n/BREzsrO1TmjSPU9Gg6rCnflyIcmZb/8R9Z8JYuygPVsWSv6/smng1UZ6iGq9bMTJ9vLAScm27dqfHJ+IHCYhO2aWztRVGRgLdZKXEq7tousAmVTxtlnxJ2ncP9nMOf2JVTqW58i7CExWQ5z+i0ke6QAKiU/TWDsLGBChR9oBKBUzY9MS6pfmyYybKr+ya2FQhyvXo2/tiH5Hf7/ThjT1dSjNhUEhAdMrRlsGwOYy0zLAn3FNnKtofUoGyvj/TlnpRG40183LCpnd//uOuCQnhJMXaH02K5W3Hw4adnWGdJQjjkvpfMBETrIfLJ8cmXv+dLNSqRQoUjjAVKBvN2UqGWoa1gVyxrEBma+r24N3DsZdIJxfGT0Be+KhNaSIMjLZ/LcSofHJMPw3pnQPhAlIUxzmXYmVQ0W03J0PbJRDGlSsKwsaEPLMl9moj5fofrAQRi4jsqh3gSsbxm6OL0D4kIDpGTwO1uhQCwpZNzXOktgTi87OSkbxtpiCOM9Emiop8G86Znyuzba8dxL6G2Jw3q8JSduWtjkEIntnSqjQRBocERMewFQo7B2Jv8EwmyhKIsuE2FXSp9F4qzdW+gDA+f3qR0oRH341t5lsTWwq4TD7j75Hm8QlIa6+b1j1PQ0hAdM7HOimFKNtASjQgIA3d4eJbphMBOanKgSVTHTLb+9X9ONIS2/iLWeVyATneNr58/r61LS6j4gl9QQKicz48MrEunMmioz9xa07ESkO3/J4Kssxh67ZrmS+eUSw7Zj2x1r8XWymkLE8+FoSVKKKFzbj7Ao39SEv082shVNlyWB8CoqzCKs1LvYDUKlYgnFoU37XAE83Z83IxT7HY1Fv7e7n3Nf7VCksUgwl7VHrNRWLDrk706ahLORE/SEB0DmsDOaSD9UFYV1MpWuiBVd0qf8qeUaIvAWF86Ux5KYTVIj26efylkEJFlWLHONrW/vYBdd1NV0hADMCHOiiFhJVAclMvIEcUAjK3Qj4eQg98alEeZpbJu+G+vqcHR1vH14ahmGILQ1FOqLj5YA+OtY6vwZ0wDiQgBuDDw9puSGfTbSgnUizMSW1j9YlOD3qG5Pc0T4cCwnpQ3XZ+mczGSiEPvzW+UkF2Rmz/j8c2tShNRBpBAmIAdp/ox4AzvEuqVlBb1tTMPF8K2V0vbydgU5jMq9BfFRZjzfxcLJ4i75G1+VA/9tZHv2KhOYZ/x46afuyh1THTGhIQA8C6T75/SLt98E0pFgs1PqmVV7ssrMyANRYvqhFuV5RCGA+9Gf3AvoEoq6ykPPYulT7SHRIQg7DpgHYFRK1rrDeFYwbYpbcdlwvIimnydgS9cerMbCyfLp/qfXvNID44Et0cWcoSbJbK/0zK4eYhbKnWdtUpkXhG/5YQuoE1pGt5IFe+YoqQ1t7oe/nEm/1NLvQOy5+4V8+WVwHpkW+sLePbRKT8bmMr/FF8L/oUa8Er1whR8vi7rROaAZgwBiQgBoE9QWp5ckWlQ1J2600mbx+Ud3suyrbosgFdCWsHOW9Bnsx2rM2Jl3eO3UuvRTFwsCgnsoDUcHm+sTf2yRsJ40ACYiC0XI1VVSx30HWd0Y90jifsofmNA3IBOWdeFvTb+iHnjgvK+Ykqpfzx7VYMj7HWe73i/6EcmS7lj2818dWABEECYiA2HdDuU+EcxVxL+xqGUuKEttc60dEvr645b36W7FjPsLU9rj5VPtEim0bmuY86ZTYl9Z3yXmmzytWr9Fjbx5s0aSIRhATEQLT2uLFPo90qld1MB5x+HGke32C3ePDiDnmjckmuBcumycVN79x8TilyFevNP7a5PaydIwRbVEs5/cncSeoC8qe3mqntgxAgATEYb+wd/UkzVSyZmsWvpidl27Hkil3PkA+bj8jHRlxyck5MYyC0DFtn5cY1pTIbW6v8kU3qgwv31Q+FNbSrCcjhpiG8e3Ds9hQifSABMRhvarRxk3ULXVIlryrasDu53UD/8XEfPyo+BNONy5bmiBEMxHWnFYWtdf7ctk7V3m976uRtQuX5NtU2kAc3NlHpg5BBAmIwmrtdONSozckVz18k7yFU0+7CgcbkzKPk9o7g+e3y6ivWdbeyIPVzciUC1pD+9bXlMhsTz8feDS+FfFgt/1xOnyP/PzHYcrUfHtFuLz8iNZCAGJA39mizFLJ2cX5YD6G/f5ScBtkNewb4Kiwpn10V7iiNxIUn5YdN9/7PHd1o6BJ7XLGlhvfVyx84Vs8N/1x+vaFRaSIIEhAjotU++my98XMXyp3Tv3f3orZ9/OtXjJe/bZNXl80us+PU6cZqPFfj5nPlU5x4uVLIX98XF39691CvrDcca6daOUterbdxbzf2N2izVEukFhIQA9LQ6UR1c/QT6SWTL6wOX7/iT5vGv37FeGDTlrDZd6V85tTwp2wjsmZ++HTvL+/oEtpC/rVDXgI8e14eciQ9uJjgsLYPglCDBMSgaLUUsqDSgdVz5E+4bx3owyc1iXvCfWG7vO4+z2HGhYvl80YZma+cLe+RxdpCHni9GcdanWEN6Jctlwv8s1vb0diV+BIioU9IQAzKa7sS+1Q/Eb6xtlzWdZb17PnJy81RL2I0HjoGfHhP0XX30iW5yLAarO/uKFywOB9VxfJSyMa9Pdxn3iCzsWVtV8/JFY5Z19+/vEMz7hKRIQExKOypka0TokVml2fgmpXy0dKN3R785F/xd1b/3jsgq+NnwnX1ctFJpgNm7k3feWGF0syVPuTCetWpxXzcEGzQYKTBhwTBIAExMK/s0G4phK1fMalAPtbgjX19WP9efAdCvrZXPliRjTo3atfd0WBtIafOjDzmJdNmxnWnlQjHx9uc+PtW7X5/CG1AAmJgWHde6cA5LcEGFt539WTuiVduf/jtdrzwSXxGO1e3unGsTT5J4CVLIjtRo/OdSythj1B1d93pJcjPEoX15y/Xa3p5AEIbkIAYmL5hL97Zn5xxFrGwdGoWvqkY7MbaQ37+aktcROS1vfIqvNxMM86bnz6N50qmlWTgtk+FV2UxPr2kUAiz9pHtNcmdZobQJyQgBuelj8U+/1rkc6uLcNmyApmNicj/vtKK+19vi/kpmCXbuE/uBNcuyo74BJ4ufH51CZYpVi5k/OzlBv6zdnr8uJ8GDRJRQgJicD4+2stPb6Jl/uvSSWHTnDCe3tqN2x6vR71k5HS07Gtw8j2wpJy3INxxphtsxcKfXTeN73ElZfeJQdz/WhMeeacVbX3h82URhBokIAaHPYm/9Im2SyGs489PrpmMS5bmK09hV90wrv/9Cfx5Uyc/7Xi0bDkmn2OLjYJfNi18htl0pDjHil9ePy1sWpm/bWnHX98PnyuLICJBApIGvPhROz+iWMswEfnhFZNw63nyQW8MN3fvj7zbict+cxx/4oSkpderjBLGB9WK+Z1mOww3bftEOKkqC/esq1SaY64yJNITEpA0oLPfg7c13Jgegvmug02RZ+ftd/rxl81duPK3NbjtiQY8taUHh5pd8CqcHqu6Yj2w4WNzngAAHDBJREFUpJwx2zirDsaLq08txsVLxcZzghgvppERY8zwf/pdL6G5iw2MMgUWeuAJBMRD6SNoMKxiC5iUj6vh+QaC0muE24MHkp1oN0XKkz8MTy+/L/U8BaNwOhBYNiMXf/7aAkkc7fGjF5sla4TIPxsxGP65sK7AFfl2lOdZ4bCbOKEZwb7G0GqHgbSv/cdUvhqLkDPg9OEzvz0cbPcIugJ+J7qFERYWDqXuQt0udynqeYbSBiwSu1paPiiNGcpTJa7iOhHvXSVtIGm4XZknHxayHT1PaVrhNXjq4TvOwsUrpwYOdAqVQNKEHTX9OKjRdUIYv/53a8wLTLECSFOPBzvrhvHh0SHsbZAvlTuj1M4vofvq7gGs/6AXf9vWx7eRDHukP/j0wuXx4/U9PXzvq/G0LRGEFCqBqNiMWAJhfPqUEvzPdTOFY63w6OYO/OFt1tCveM+Sz0YMhn8u4Z+BSRLNxDcWCwMqJekdNjMuPyUXXz0rnx8jkg4Mc2LxxPvtePrDDgy6fGM+NQdC4lOz7Ik7gp1KIPyBZCeNKSSkEgihLzbuYdN4j79LbCJ5eUcP/vhOYnuJRRqNz0ogz3zUh2v/0IhNh7U5/X08OdQ0jOt+dwR/fqc1IB4EMUFIQNII1sPmyffiP2FhrLx7qB8//Vez/MEtBfQM+fG95zvw5FbjLtla3eLEbY/VoLkn8hiPouz0myOMmBgkIGnG8x+1o2sgshNJFrtODOHe5xrgT2L1O6vKmllqQ0V+uKNkGvbQ2z14bZ9224lihbV3fOfZOr7BXElFgR2fP6MUf719LjZ+bzF+fM1UTOJsBBEN1AaiYjNqG0gozy+fMwl3XDhFtCeZmnYXvvpIDd+wLb1X+fuQ28WgIo6wk9ulbSCMS5bk4o5PFSHfEXhmOtDkwm/e6MbeBpeQnu0cNhP+9rVKlOcZp8fW4++148E3WiTV8iMo5Eob37q4EheeVCD/SNl5Lt7O2gFs2NWFzQd70TnokVT1K+r5VeyjtYHkOqxYNTsP8yqzkWU346GN9Rh0Ssb1qKXlg4Gw9FU1bvA6olX9HtXSBpKG25V58mEh29HzlKYVXoOnjNAGQgKiYjO6gLCpu1/+9skoVkxnkQza+7248c81wpKq0nuVvw+5XQwq4gg7uV0qIOfOz8bPrpGvDc5gX/z73+jCsx+zSRfFa7DVCn90mXxlPr3Ceqit+9UhdPSLIpDLiejjt85BVVF0JY3qlmF8dKyfX72wpm0Yte3O4IBD0RlKHanUpVQW2jmxyMJ8TjBWzMzDkmk5/JojPYNe3PLH/Vze7DcrcUFqTpgPKpywxBY8kOwk9xLhHtXSBpKG25V58mEh29HzlKYVXoOnSEA0BAmIFDFfNQFhXHtaOb57eXK/vIMuP25+tAZHW6Rzc0X6DOR2MaiII+zk9lC02WUZ+NOXJ/FPu5H4znPtePfIsJCDhXNw/7yjEsXZ+i+F7KwdxC3cZy51XN++pBKfWRW7QLJZDZp63JwIeHghCCw6FcjcbjXz82yxh5OyPDscKp87m5vt6385iFpOjKJywnxQ4YQltuCBZCfaSUASS/h/l0gL2Cy99Z3Jm2SROZ3vPFvPN+Ymi5IcC/7vs+WjigfjWxcWcaIhHvv8wPvVybvPRLK9Vt6mw2YjvvSUiY0+t1pMmFqcgZOn5uDsBQW4ZFkxt5Xw2wUnF/GDVqeVZKqKx46aPnzxwX1cKSbyjAOEfgj/DxNpAeva+utX65XmhPE//2zCtmPJW2OCNZj/77UV/Oj0sSjLtWDlDPlEi/sakyeuieRYm/x9zK1wqDr2ROP3j+Avbzfilj8d1EQnDiI+JP+bRGiGzQd7sOVI4ruu/uGtVry6a+ILRI2Hey4qweLJGUpzRBZOkrcH7DGIgIhtTQGmFEfX7hFP9tUP4EsP7cdDr9fzQkIYBxKQNOcX/6rju3kmig27e/Do5sQOFFRyzYo8foT5eMgL9s4K0TWYuM8kmfTz7RMirPdVsmjodOHeZ4/hy7/fjwMNxuseTZCApD11HU48/GaT0hwXdp4YxP+81ChvW0wwZ87Jwn9cOP4G4rY+uaPNyTDGT8PlTeKHj0A78rajffjPp47iil/txoadHXxPMMKYGONXQkyIpz5ow+4T8W2fYKsIfvtvdRGnEUkEp8/Kwk+vqeB7UY2XnXXyRnM2HsQIWBUdyRLR6ZJlyUoYD21swLqf78ZtjxzCm3u7SDjSABIQgq+X/t4zNcHumBOH5XP3k7XoHYpPfmPB9OL6VQX49fWTkBHDmucf1zhxoFk+R1imQQREqRcvb+/GL15pxIbd3TjREVs7j9vrx776QX5Wgx/8vQaf+skufPGhA3j0nWbNzbVGJBYaB6JiS4dxILI0QfsZc/Nx/w2zJ7RyH+uu+43Ha4LdRxXXU7sniT1SfFkKxXtYPt2BW88rxslTMiX26GGrG97waDN6h0ckVzdh2bQMPPT58MGHeuOMH+/nHD77iYvjD/ixEUEyOcFlg/3YNqnAxvfQYgNNczMtfNsYWw1y2O1D14CXF4fWHhcau91RDySUXFQMhwxCcoldLS0flMYM5akSV3EdGgeSWEhAVGzpKiCMz55ehm9fWiWeGyf3vdCAV3Z2q9xXhHuS2CPFl6Xg7rUkx4rzFubgkiV5mDcp+p5WSnq4EtJN61vQ0MOm0pDelQlnz3Xg59eUiJF1CCsJnv+zg8Ej0XFJBWQspxcIiWmldmmesvhR5BlKG7BI7Gpp+aA0ZihPlbiK60S8d5W0gaThdmWefFjIdvQ8pWmF1+ApIwgIVWERMp7d0o4HX4+tUf13G5sD4hFn2EDAlTOzcPv5JVh/UxX+dfcMfOui0gmJR0e/D19/qhUN3errq2fapWKmTzoH1N8bQcQLEhAijPXvtuDXrzaMqxH0gX8344n3Jt5dly1Pu3iKA1csz8f3LinH07dOx9vfnY3ffXEKbjizCAsqMydUxcY43u7BzY8341hb5AFtrGpH7yjHgBBEvCEBIVR5+sM2fPPxo2M2irJqkm89VYsnP5iYeEwpsuOei8vxxrfn4NGbpuG/Lq3AlcsLMLs8Y8KCIeW1vQP46mNNaO4d/ek8FaO1400HlUCIBKP/XwmRMLZW9+PaBw7i9280oalbLiSsUfWJ99pw5W8OYfOhiY1mP7nKgWe/PhOfWVmIXEdiJjBkVVbf+Ucr7nu5I23WQudn4CWIBEKN6Cq2dG5EF+KH5WtCRaEdeZyDZ+t4tPR6hGkpTGr5qqRXvaeg/ax5Objn0xV8T6B40jfsx9+29eLprb2BQXWj3Kv0U7huZS7u+lSBYNEjP3+lCc991BU8EhtvqRGdBcPTBpKG25V58mEh29HzlKYVXoOnqBGdSCtaetw40jzMl0biPafRe4cHcO2Dx3HfS834pGaI7w48EdiCUb/8dwcu/20dHnu/J+kjsrUAtYEQiYYEhNAMbLzCq7t6cfvjdfjUL47i28804h8f92BfozM4liEyDd0evH1wAL98rQNX/q4ONz7aiOc/6Yu5uio3U/8/jZZR1j8niHhAVVgqNqrC4gOhF+GMeCi/XjyqsIRwBDsLFudYUcRtWRlmfv2OQdcIBp1+tPZ74ZENejdJ3pL8XlU/g+C9imdMuOnsfHz1zDzBokfO++lB9AvroItVJ1SFxYLhaQNJw+3KPPmwkO3oeUrTCq/BU1SFRRBJhI1rqG51YXfdMHbUDuNws4sveSRzvi29MOTyS8SDIBIDCQhBGJBmav8gkgAJCEEYEGr/IJIBCQhBGJCWMQaAEkQ8IAEhCANCJRAiGZCAEIQKgy59L2nbTAJCJAESEIJQIc7jJJMOmymAIBINCQhBGBASECIZkIAQhAoTnUollbB7b++nmXiJxEMCQhAqOMeYOkXLSCe6JIhEQgJCECrouRGdrVlOEMmABIQgVJDPraUvmrqp/YNIDiQgBKHCsFu/JZCmHiqBEMmBBIQgVBhy67cNgU0wSRDJgASEIFTQ8wJUyuWHCSJRkIAQhApsKVy9QgJCJAsSEIJQoc+pTwFh64D0DOm4BwChK0hACEIFtkhVrMvhppJGakAnkggJCEFEoFeHT/LUhZdIJiQgBBGB7iH9VWPRIEIimZCAEEQEenQoINSATiQTEhCCiEDngP6qsE50kIAQyYMEhCAi0KXDNpATnS6liSASBgkIQUSga1BfVVhu7whaaR0QIomQgBBEBLoG9VUCqe9y634lRUJfkIAQRAT01gurjqqviCRDAkIQEdBbIzo1oBPJhgSEICLQrbNG9BOdJCBEciEBIYgIsHEgPh3VYtVRCYRIMiQgBDEKbf1epUmzUBdeItmQgBDEKLT06qMai62gqMe5uwh9QwJCEKPQ0qcPp9yho5ISYRxIQAhiFFr79OGYG2gOLCIFkIAQxCg09eijBHKoyak0EUTCIQEhiFFo6NZHCWTniSGliSASDgkIQYyCHgSENaBvrx1Umgki4ZCAEMQotPf74NT40rZvH+jjJ1IkiGRDAkIQY6D1UsiLn/QoTQSRFEhACGIMDrdot4fTjtoh7Kmn9g8iNZCAEMQYvFetzR5OIyPAQ2+2Kc0EkTRIQAhiDD485tTk+uj/3NGDvfXDSjNBJA0SEIIYA49vBC/sGFCaUwpbPOr+ja1KM0EkFRIQgoiCpz8aQM+wNkohQy4/vvv3Rn5PEKmEBIQgomCQc9a/3titNCcdL1ca+s9nG1HdQjPvEqmHBIQgouSNA0N4bV/qBuyxAYN3PdWAj46n7h4IQgoJCEGMg//d0I3tJ5L/9N/U48Etj9WReBCaggSEIMYBG/H9nec6OBFJXtfeDXv68MU/nsDh5uQLF0GMBgkIQYwT1h5y9zPteG57v/JUXDnQ5MTtTzTgRy82o9+pj1mBifSCBIQgYoB17f3V692465m2uE514h8BNh8exF1PNeIrf67DJzU0ypzQLqaRETaeVf+cftdLaO5iPzYT/xcgEBAPhZBoVbEFTFJ78FiRbyAovUa4PXgg2Yl2U6Q8+cPw9PL7Us9TMAqnJedU8gwEFfcUCIRehDPiofx6JrV8R0kvu6eI+crtYjC6a4nRpHZ2GDm9eCbSPY3wf6FwKGgxjWDdyTm4dkUu5pTbQxGigpVm6jo9ONTsxM4Tw/jw6CBX2vBD/rMMhvmdwh60idax4spj88PZxQPJTpqjmDZSnrL4UeQZShuwSOxqafmgNGYoT5W4iutEvHeVtIGk4XZlnnxYyHb0PKVphdfgqYfvOAsXr5waONApJCAqNhIQPhB6Ec6Ih/LrpbuASB3HrDIbTpvpwEmTMzC9xIaibAscdhNfYukb9qO+y4ODzS58dHwI+xpcGPb4ZHkKoTGckWAI2iQpJTu1uPLYYzm9QEhMGylPWfwo8gylDVgkdrW0fFAaM5SnSlzFdSLeu0raQNJwuzJPPixkO3qe0rTCa/AUCYiGIAGRIuZLAiK1s8PI6cUzke5J/PGzgBgc3XEEQup2ZZ5CKIo8xbQkIJGuE/HeVdIGkobblXnyYSHb0fOUphVeg6eMICDUBkIQBEHEhGEExGJWPGkSBEFoGItF/z7LMAKSnWlTmgiCIDSLzaJ/96v/dxCkOC9DaSIIgtAsDrtVadIdhhGQySXZShNBEIRmyc8eX5dvLWIYAZk3pUBpIgiC0CzFeZlKk+4wjIAsn12iNBEEQWiSTLsFJfkkIJrhpBnFhigSEgRhfM5cVGGInqOGERCrxYSLVlQpzQRBEJpj3appSpMuMYyAMD5z9iyliSAIQlPkOGyGedg1lIAsn1OCJTOLlWaCIAjN8LlzZyMrQ/9deBmGEhDGXVcuVpoIgiA0QYbNgps/vUBp1i2GE5Bzl1TitPllSjNBEETKuYUTj7ICh9KsWwwnIIz7vriCb1QnCILQCpVFWbj90kVKs64xpIDMm5KPbxjsH0UQhL75+U2rDNP2EcKQAsL4xmWLsWIODS4kCCL13LB2Ls5ePElp1j2GFRBWhfXg188wxGhPgiD0C+sZ+v3rlynNhsCwAsKoKHTgj3ecyfd8IAiCSDblzAfdeRbsVmO6WmO+KwlsbMhvbj0NZtlSpgRBEImFDRhc/61zuAfZLOUpw2B4AWF8ekUVfnXzKqWZIAgiIbDJEtd/aw0WTDX2LOFpISCMK8+Yjl/fssoQy0gSBKFdWMnjiXvOwYo5pcpThiNtBIRx5erpfJsIezogCIKIN0W5GXj2e+dh5bz0GMycVgLCOH9pJR7nipYFNPU7QRBxpKo0Gy/8YC0WTStUnjIsaScgjJXzSvGv+9ZiQZWx6ycJgkgOZyws53zKhZhenqM8ZWjSUkAYU0qy8dy952HdSmNMq0wQRGq46aJ5eOKe9KzVMI1wKI3pxt82Hcd//20Xht1+/jjQ41fZ2G6SmCTngt2Dpa9Se/BAshPtpkh58ofh6eX3pZ6nYBROS86p5BkIKu4pEAi9CGfEQ/n1TGr5jpJedk8R85XbxWB01xKjSe3sMHJ68Uykexrh/0JhMSj9CQXD/E60C7EVdmWeQiiKPMW0knsZM648dtT3Lhyq5ymLH0WeobQBi8SulpYPSmOG8lSJq7hOxHtXSRtIGm5X5smHuT+2AurPb1yBC5dPkZxLL0hAghxv6cc3/7AN+0/0kIAEAqEX4Yx4KL8eCcjYTocERBIOGYTkErtaWj4ojRnKUyWu4joR710lbSBpuF2ZJwuvnl+G/7tlFT9YOZ0hAZHg8frx0CuH8PCGQ1xY+bFEcCokICQgUTgdEhBJOGQQkkvsamn5oDRmKE+VuIrrRLx3lbSBpOF2aZ5sMsRvXbUIX147hwYnc5CAqHC0uQ//tX4nPqnukFgjOBUSEBKQMZxOIKRuV+YphKLIU0xLAhLpOhHvXSVtIGm4PZTnmpMq8JMblmNysXFHlo8XEpAIsE/lmc01+NXz+9E94EJEp0ICQgIyitMRrep2ZZ5CKIo8xbQkIJGuE/HeVdIGkobby/Izce9nl+DSVdThRgkJyBj0DXn4aq3H3jgGrz/QyC5zKiQgJCAqTkfVkanYlXkKoSjyFNOSgES6TsR7V0kbSCraM2xm3HLRXNx68TzDreMRL0hAouRE2wD+9x/78PqOJsicCgkICYiKM1J1ZCp2ZZ5CKIo8xbQkIJGuE/HeVdIGkgbCl59Whf+8ejEqqbpqVEhAxsn+uh786vkDeHdfa8BAAkICouKMVB2Zil2ZpxCKIk8xLQlIpOtEvHeVtOx17dJJuPPyBVhk8EkQ4wUJSIzsPN6FB/55CJv3t/HHATcjcTajOCrRGslRscPw9CQgLBjdtUhAJOGQQTglsUdxnYhOOIJ9PPcesEjsamn5oDRmKE+VuIrrRLx3RdqzF5fjnqsWYfE0Eo7xQAIyQfbW9uCP/67Gv7c3ct9JibMZxVGJ1kiOih2GpycBYcHorkUCIgmHDMIpiT2K60R0whHs47n3gEViV0vLB6UxQ3mqxFVcJ+K9c2ktZhMuWl6Jr316LglHjJCAxIkTbYN4ZONRPP9BHVwe/6iOSrRGclTsMDw9CQgLRnctEhBJOGQQTknsUVwnohOOYB/PvQcsErtaWj4ojRnKUyWu4jpq985WKL32jKm46cLZmFqaLcQlxg8JSJzpGXTjH+/V4clNtWjoHApa1R0dCYjcHim+LEWU1yIBkYRDBuGUxB7FddScsBBWsY/n3gMWiV0tLR+UxgzlqRJXcR3pvU8pceBza2bgurOmoTAn/eatSgQkIAnCz32sm/a24a/v1OC9/e2B77rC0ZGAyO2R4stSRHktEhBJOGQQTknsUVxHzwLCeTictaAMXzh3Bs5bUk6jx+MMCUgSaOoaxvMf1OP5LfWo7xgW7CQgcnuk+LIUUV6LBEQSDhmEUxJ7FNfRo4BMLnbgytOrcM0ZU1FVQl1xEwUJSBJhn/S2I514jhOT13c2Y9jF2kpCZ8d2dCQgLBjdtUhAJOGQQTglsUdxHb0ICBv4d9Epk3D1GVU4fX4JlTaSAAlIinB6fHhrVyte3d6Md/a2hU/eqOLoSEBYMLprkYBIwiGDcEpij+I6WhYQq8WEsxeVYd2KSbjglAoaMZ5kSEA0QP+wlyuRtOD1HS14/2AHPyuwmqMjAWHB6K5FAiIJhwzCKYk9iutoTUAsZuC0ecW4hBeNSSjItonxiKRCAqIxhlw+vLuvDRu50sk7e9sx4PQi5MRIQFgwumuRgEjCIYNwSmKP4jpaEBCH3Yw1i0qxdmkFzj2pFHlZJBpagAREw7CSyEfV3di0r53fatsGITq0SM4zeCyclpxTc558UOo6I+Ubyamy5Cr5jpKeBEQRX5KnEIoiTzGtMQVkSnEmzuZE4xxOMM5cUAK7NW1X4NYsJCA6or5jiBOSDmze34FtnLAMc6WVcOcZPBZ8o+ScmvPkg1LXKXeqIpGcKkuuku8o6UlAwh2pEA6FoshTTGsMAWECsXJOIVfSKMGaxaWYWU6D/LQOCYhO8flHsPN4L7Yd6cKHh7uwq6YXbtZ2wiM6QBIQqZ0dRk4vnol0T3KHKQbHdpgkIJJw0GDh/hcnT8/HafMKsWpuEVbMKuR7UhH6gQTEIAy7fbygfHy0G9uP9WJXbS9vIwGR2tlh5PTimUj3JHeYYnBsh0kCwkoYJiyemoflswp40WCCkZVhkcQl9AYJiEFhJZT99f2cmPTwwrKTK6G09rolMSSOkQSEfxHPRLonucMUg+oOM8wJq9iVeQqhKPIU02pTQIpy7DhlJicYMwt40Vg8NZfaMQwGCUga0c4JyO4TfdjDbXtP9HNbH/qGvTKnSgISNKimlztMMRilE1axK/MUQlHkKaZNvYBkZZhxEle6YCJx8rTAvqrEIYlLGBESkDSG/efrO4dxsGEAhxoHgvtBNHe7VJ2yulNlPjmyU5bZhVPq9kjxZSmivBYJiCQcMginJPYorqMUkNI8O+ZPzuG2bH6/cEouZpQ7aOR3GkICQoTRO+TlBeVoy1Bgax5EdfMwuoc8wRhyR0ECEqUTVrEr8xRCUeQppk2MgOQ6rJhdkcWLw9yKbMypzMYCTjSKc2kmWyIACQgRNV0DHl5QjrUO40R7YKvrcPKbxxf6GkV26uIpdXuk+LIUowiA1E4CIgmHDMIp0W7h3t6UogxML3OgqjiT38/hRGMWt7GSBkGMBgkIMWH8I2zG4YCQNHS60NDlQmO3E41dbm5zob2PNd6LTpkERN2xy+JHkaeYdnQBKc61obLQjsmFGZjEbVOKMzCVE4tppQ5M5sSDrcxHELFAAkIkHDY+panbjZYeNy8mrDdYa68Hbdy+Jbjv5Eo3Hp80ldyJi8HIAiC1p4OAsDmhSnJsKC+woSzPhpJcOyq4MCs5lOfbeXGYxAlHBvV8IhIECQihGfqHfbyQdA14+X0nt+8e5DZu38edY20zfU629/HHbHOzWYwNICBsjESew8JvuWyfGdjnZ1k4YbChMNvKbyU5VhTw4f/f3vmuAAjCQDwtyfd/W0up/Twp6AVC2IF/dhM/7pAxJ87z1o4/4QLimBq1XT3/gpAUe+mwMs6mPX4K9Fmpjal9vPZzz+CE0DtKHsNGWvbtG6klCQTwPHzJngQxKq+QmBb6bxsXJBDUQMCnVd92wGFnO8O35A7HbLgBq/ZxdN5JMDwAAAAASUVORK5CYII=;" vertex="1" parent="RKjZyVbcrB04m-q0hB96-1">
                    <mxGeometry x="1650" y="-646.25" width="42.25" height="42.25" as="geometry"/>
                </mxCell>
            </root>
        </mxGraphModel>
    </diagram>
    <diagram id="6hGFLwfOUW9BJ-s0fimq" name="aws">
        <mxGraphModel dx="-228" dy="1574" grid="1" gridSize="10" guides="1" tooltips="1" connect="1" arrows="1" fold="1" page="1" pageScale="1" pageWidth="827" pageHeight="1169" background="#FFFFFF" math="0" shadow="0">
            <root>
                <mxCell id="0"/>
                <mxCell id="1" parent="0"/>
                <mxCell id="89" value="AWS Cloud" style="points=[[0,0],[0.25,0],[0.5,0],[0.75,0],[1,0],[1,0.25],[1,0.5],[1,0.75],[1,1],[0.75,1],[0.5,1],[0.25,1],[0,1],[0,0.75],[0,0.5],[0,0.25]];outlineConnect=0;gradientColor=none;html=1;whiteSpace=wrap;fontSize=12;fontStyle=0;shape=mxgraph.aws4.group;grIcon=mxgraph.aws4.group_aws_cloud_alt;strokeColor=#232F3E;fillColor=none;verticalAlign=top;align=left;spacingLeft=30;fontColor=#232F3E;dashed=0;" parent="1" vertex="1">
                    <mxGeometry x="1020" y="-750" width="700" height="330" as="geometry"/>
                </mxCell>
                <mxCell id="25" value="VPC&amp;nbsp;" style="points=[[0,0],[0.25,0],[0.5,0],[0.75,0],[1,0],[1,0.25],[1,0.5],[1,0.75],[1,1],[0.75,1],[0.5,1],[0.25,1],[0,1],[0,0.75],[0,0.5],[0,0.25]];outlineConnect=0;gradientColor=none;html=1;whiteSpace=wrap;fontSize=12;fontStyle=0;shape=mxgraph.aws4.group;grIcon=mxgraph.aws4.group_vpc;strokeColor=#248814;fillColor=none;verticalAlign=top;align=left;spacingLeft=30;fontColor=#AAB7B8;dashed=0;" parent="1" vertex="1">
                    <mxGeometry x="1110" y="-718.63" width="600" height="288.63" as="geometry"/>
                </mxCell>
                <mxCell id="85" value="Public subnet" style="points=[[0,0],[0.25,0],[0.5,0],[0.75,0],[1,0],[1,0.25],[1,0.5],[1,0.75],[1,1],[0.75,1],[0.5,1],[0.25,1],[0,1],[0,0.75],[0,0.5],[0,0.25]];outlineConnect=0;gradientColor=none;html=1;whiteSpace=wrap;fontSize=12;fontStyle=0;shape=mxgraph.aws4.group;grIcon=mxgraph.aws4.group_security_group;grStroke=0;strokeColor=#248814;fillColor=#E9F3E6;verticalAlign=top;align=left;spacingLeft=30;fontColor=#248814;dashed=0;" parent="1" vertex="1">
                    <mxGeometry x="1132.17" y="-690" width="157.83" height="250" as="geometry"/>
                </mxCell>
                <mxCell id="92" style="edgeStyle=orthogonalEdgeStyle;rounded=0;orthogonalLoop=1;jettySize=auto;html=1;entryX=0;entryY=0.5;entryDx=0;entryDy=0;entryPerimeter=0;exitX=0.929;exitY=0.353;exitDx=0;exitDy=0;exitPerimeter=0;" parent="1" target="96" edge="1">
                    <mxGeometry relative="1" as="geometry">
                        <mxPoint x="896.45" y="-568.644" as="sourcePoint"/>
                    </mxGeometry>
                </mxCell>
                <mxCell id="86" value="Private subnet" style="points=[[0,0],[0.25,0],[0.5,0],[0.75,0],[1,0],[1,0.25],[1,0.5],[1,0.75],[1,1],[0.75,1],[0.5,1],[0.25,1],[0,1],[0,0.75],[0,0.5],[0,0.25]];outlineConnect=0;gradientColor=none;html=1;whiteSpace=wrap;fontSize=12;fontStyle=0;shape=mxgraph.aws4.group;grIcon=mxgraph.aws4.group_security_group;grStroke=0;strokeColor=#147EBA;fillColor=#E6F2F8;verticalAlign=top;align=left;spacingLeft=30;fontColor=#147EBA;dashed=0;" parent="1" vertex="1">
                    <mxGeometry x="1310" y="-690.5" width="310" height="250.5" as="geometry"/>
                </mxCell>
                <mxCell id="26" value="EKS" style="outlineConnect=0;fontColor=#232F3E;gradientColor=#F78E04;gradientDirection=north;fillColor=#D05C17;strokeColor=#ffffff;dashed=0;verticalLabelPosition=bottom;verticalAlign=top;align=center;html=1;fontSize=12;fontStyle=0;aspect=fixed;shape=mxgraph.aws4.resourceIcon;resIcon=mxgraph.aws4.eks;" parent="1" vertex="1">
                    <mxGeometry x="1330" y="-662" width="30" height="30" as="geometry"/>
                </mxCell>
                <mxCell id="y2z3Kv9xKI0q1BXrAmaq-107" style="edgeStyle=orthogonalEdgeStyle;rounded=0;orthogonalLoop=1;jettySize=auto;html=1;" parent="1" source="88" edge="1">
                    <mxGeometry relative="1" as="geometry">
                        <mxPoint x="1370" y="-568" as="targetPoint"/>
                    </mxGeometry>
                </mxCell>
                <mxCell id="88" value="ALB&lt;br&gt;(aws LoadBalancer&lt;br&gt;Controller)" style="points=[[0,0,0],[0.25,0,0],[0.5,0,0],[0.75,0,0],[1,0,0],[0,1,0],[0.25,1,0],[0.5,1,0],[0.75,1,0],[1,1,0],[0,0.25,0],[0,0.5,0],[0,0.75,0],[1,0.25,0],[1,0.5,0],[1,0.75,0]];outlineConnect=0;fontColor=#232F3E;gradientColor=#F78E04;gradientDirection=north;fillColor=#D05C17;strokeColor=#ffffff;dashed=0;verticalLabelPosition=bottom;verticalAlign=top;align=center;html=1;fontSize=12;fontStyle=0;aspect=fixed;shape=mxgraph.aws4.resourceIcon;resIcon=mxgraph.aws4.elastic_load_balancing;" parent="1" vertex="1">
                    <mxGeometry x="1190" y="-587" width="37" height="37" as="geometry"/>
                </mxCell>
                <mxCell id="95" value="Internet" style="outlineConnect=0;dashed=0;verticalLabelPosition=bottom;verticalAlign=top;align=center;html=1;shape=mxgraph.aws3.internet_3;fillColor=#D2D3D3;gradientColor=none;" parent="1" vertex="1">
                    <mxGeometry x="930.5" y="-593" width="50" height="32" as="geometry"/>
                </mxCell>
                <mxCell id="y2z3Kv9xKI0q1BXrAmaq-97" value="RDS&lt;br&gt;Postgresql" style="sketch=0;points=[[0,0,0],[0.25,0,0],[0.5,0,0],[0.75,0,0],[1,0,0],[0,1,0],[0.25,1,0],[0.5,1,0],[0.75,1,0],[1,1,0],[0,0.25,0],[0,0.5,0],[0,0.75,0],[1,0.25,0],[1,0.5,0],[1,0.75,0]];outlineConnect=0;fontColor=#232F3E;gradientColor=#4D72F3;gradientDirection=north;fillColor=#3334B9;strokeColor=#ffffff;dashed=0;verticalLabelPosition=bottom;verticalAlign=top;align=center;html=1;fontSize=12;fontStyle=0;aspect=fixed;shape=mxgraph.aws4.resourceIcon;resIcon=mxgraph.aws4.rds;" parent="1" vertex="1">
                    <mxGeometry x="1660" y="-640" width="30" height="30" as="geometry"/>
                </mxCell>
                <mxCell id="y2z3Kv9xKI0q1BXrAmaq-98" style="edgeStyle=orthogonalEdgeStyle;rounded=0;orthogonalLoop=1;jettySize=auto;html=1;exitX=1;exitY=0.5;exitDx=0;exitDy=0;" parent="1" source="y2z3Kv9xKI0q1BXrAmaq-96" target="y2z3Kv9xKI0q1BXrAmaq-97" edge="1">
                    <mxGeometry relative="1" as="geometry">
                        <mxPoint x="1540.8000000000002" y="-624.8" as="sourcePoint"/>
                        <mxPoint x="1400" y="-634.9999999999998" as="targetPoint"/>
                    </mxGeometry>
                </mxCell>
                <mxCell id="y2z3Kv9xKI0q1BXrAmaq-116" value="" style="fillColor=none;strokeColor=#5A6C86;dashed=1;verticalAlign=top;fontStyle=0;fontColor=#5A6C86;" parent="1" vertex="1">
                    <mxGeometry x="1330" y="-662" width="260" height="212" as="geometry"/>
                </mxCell>
                <mxCell id="y2z3Kv9xKI0q1BXrAmaq-106" style="edgeStyle=orthogonalEdgeStyle;rounded=0;orthogonalLoop=1;jettySize=auto;html=1;entryX=0;entryY=0.5;entryDx=0;entryDy=0;" parent="1" source="y2z3Kv9xKI0q1BXrAmaq-102" target="y2z3Kv9xKI0q1BXrAmaq-96" edge="1">
                    <mxGeometry relative="1" as="geometry">
                        <mxPoint x="1501" y="-620" as="targetPoint"/>
                    </mxGeometry>
                </mxCell>
                <mxCell id="y2z3Kv9xKI0q1BXrAmaq-110" style="edgeStyle=orthogonalEdgeStyle;rounded=0;orthogonalLoop=1;jettySize=auto;html=1;entryX=0.005;entryY=0.63;entryDx=0;entryDy=0;entryPerimeter=0;" parent="1" source="y2z3Kv9xKI0q1BXrAmaq-102" target="y2z3Kv9xKI0q1BXrAmaq-109" edge="1">
                    <mxGeometry relative="1" as="geometry"/>
                </mxCell>
                <mxCell id="y2z3Kv9xKI0q1BXrAmaq-102" value="Istio&lt;br&gt;ingress" style="sketch=0;html=1;dashed=0;whitespace=wrap;fillColor=#2875E2;strokeColor=#ffffff;points=[[0.005,0.63,0],[0.1,0.2,0],[0.9,0.2,0],[0.5,0,0],[0.995,0.63,0],[0.72,0.99,0],[0.5,1,0],[0.28,0.99,0]];shape=mxgraph.kubernetes.icon;prIcon=pod;labelPosition=center;verticalLabelPosition=bottom;align=center;verticalAlign=top;" parent="1" vertex="1">
                    <mxGeometry x="1370" y="-593" width="40" height="40" as="geometry"/>
                </mxCell>
                <mxCell id="y2z3Kv9xKI0q1BXrAmaq-109" value="App Pod" style="sketch=0;html=1;dashed=0;whitespace=wrap;fillColor=#2875E2;strokeColor=#ffffff;points=[[0.005,0.63,0],[0.1,0.2,0],[0.9,0.2,0],[0.5,0,0],[0.995,0.63,0],[0.72,0.99,0],[0.5,1,0],[0.28,0.99,0]];shape=mxgraph.kubernetes.icon;prIcon=pod;labelPosition=center;verticalLabelPosition=bottom;align=center;verticalAlign=top;" parent="1" vertex="1">
                    <mxGeometry x="1501" y="-540" width="40" height="40" as="geometry"/>
                </mxCell>
                <mxCell id="y2z3Kv9xKI0q1BXrAmaq-96" value="keycloak Pod" style="shape=image;verticalLabelPosition=bottom;labelBackgroundColor=default;verticalAlign=top;aspect=fixed;imageAspect=0;image=data:image/png,iVBORw0KGgoAAAANSUhEUgAAAIEAAACBCAYAAADnoNlQAAAACXBIWXMAAAsTAAALEwEAmpwYAAAAGXRFWHRTb2Z0d2FyZQBBZG9iZSBJbWFnZVJlYWR5ccllPAAAFOJJREFUeNrsXXtwVNd5/7TvlXZXj9ULCSSBDRgCxnIDTYld7MZ1/4iLcZoMxXEMpnGHuPEY/+G2wbWHjqeua2daPJNgZvwAg0PCOIyx0iZpncQQO5kkfiHe4PCQhDCgt1ba96Pnu+yVltW993z33rMrge43s7O2uHvvuef8zu/7/b5z7m5JJpMBK6Z32KwusMICgRUWCKywQGCFBQIrLBBYYYHACgsEVlggsMICgRUWCKwYD8dUacjKlSs3srf/mmb9/3hbW9uWyW5EyVRYQGIAqGBv59irfBpOxNkMCOesdACwZZoCQL736c0EjAVuYW+fTPO0fCdjg/3TmQm2gBU7pm06YCywjr2tsDAAzVlhPL3SQVYMHsQOsDAgxRB7tbC0MDidmGCjBYCrAoXx5mnDBIwFWrIsUG6N/eRbxsligs0WAKaOSCw6EzAWuIO9vWuNtWbcx9hg3/XMBJYlnGJ9ZCsyC6AlXGKNMckyFk0kFi0dTPP1gSltGYvJBBstAOi2jFuuGybIWsKz1rgailbGBgevByawxOAU7ruCM4FoSzhcVgUnm2+GhMOleVzC7YXWsx9BoPe8mOtWz4Twyr8DRyzM5/Ff/Aicl7pEduNDjA12XMsgQDEorDx84NZ7GBAqucc5KoLgrKyGu3b+i5jrrt4EFTW1UOP3cY+1D/VB3dZ/EtmNHex1S6FEoq3AABC6PnCmcQEJAPZMGpKNcyDiZ6yx7Mvmr7vkLyQm6AYXpKN8JkiVByF0+0qhljErrK8tTZC1hMK8LtL/qSZiiaGB6VD7le2TZ9kAYmowfF322VNZIKUYaXYnS0ifG136l5D2lAp1V1mBfU0xwWaRlhABkHA4uce5IAOpmsbxQXR54ehtXzN+3aX3SOeQ43LaDonQEPdzaQae4bv+VrRl3HzNgCCL2MdEnS/s8bFUcBPp2PicRRP+1nXTFyQ6131df5Clgjsn/P2svYz2+cXLIVE3S2TXrs0K7WuCCYQq2YPzlpOOc7mYY/AFFP/tyO362eDgXQ8q/j2UTMPIEE2jDYllg4JYRlsBWGAVCNwydjE4C/rK6/hiMJ1SZAE5+hrmwsU59GWLvsZ50mfUQmKDRJzPTE3zIXzzF0V28ZLsGoywEP7wSU1NzfcqKipMncPtdkM0Gr1izWpvpd1IdT2kXG7NY07esQZus42SzvfJ0q9qD246A/3xJFQ5XdxzRe/8CixMDIEjEb3q3qiBDBeLxcZnrs32PRYzy8vLU+xcETN9nUqlPhNaJ9izZ8/Ply9f/ldmzzM6Oip11ovHLkgvXvg9bgjdcPOYI1CLRmcG3pudJLVhTZcDfh/hO4E/CzggTiDUe50jcI99CHw+H+jp83A4fCXNKQSeR8T4CUsHr7zySvOSJUvuNnsevCkEwHAiBa99eolm42pncQGA8VgwTW7HQ5W0Y89Face9kyyDsNcvDACS3hgaEjJ2wkDQ0tLyy3g8XmL2PMPDw9L7Mwc7IcSAwE0/5QGIVtRwj/tTbwa+GqCD4G5fWvoMLz6Lp8ED/POGMyWwN+wRBgA5bU4ZEGzduvWbCxYsuIHlKtNpoKysDI4NhmFvRx/pMz1BmgV7LJjS3Z6nammf+WSUdtyvYy44lnAIAQCG1+udOiBobW19wSwykSZLSq4QyTPttMWX6uoaVUuYG3/DGOALpfpz50J3Rvosd9BSGUgkaVpjV9grBABjolOnyCwICN58881XmpqaJDtQWmq8TBoKhaSb//G5Xvh9T4h7vMdhh966Fr5otOnTAkps4Cf00tFIGpzAB1pH0i4xgggASHookZhcEKAYXLhw4drcv8mzWU+g/UEAoRikuAEMZ80MkhhczwTeTKdxBR2w0VIJritciNHSws5Rr6QRzAIAg9nEyQVBXV3d6xUVFY78m9Eb6fSVmbqduYHuML8AI1nCGr4WQEtoRAsoAamRAKTOWBrcBDZAAPws4jYNADMTTwgItm/ffhtjgT+fUESJx3WdB92A0+mE86MxsiVMzmghHfdUTRpExQt1NDAdDtOO2xvxQE/aZhoAIqyiYRA0NDTs9ng8JWqzWk8awMA0QLWEuE+AYgnR5okKFJafd/PFH64rODK0624d8pgGgAiraAgEb7zxxsZFixYp8rHf7yefR2aN3zEhSLaEtUQWqE0JA8DIyAgkmfp/vpYmwqiW8WTaBceTTtPtM2sVDYGApYFn1f6NimxMA3LjnzlIs4RVdfXsjvnLuGjr0N6JCLmEjRa20ZGBBwN8NsB1hZEEDQgvR/xC2mnGKuoGwb59+3YyQeg1I1SwQ+U0gJbw+BBfTKIl7K/mi0G0cyJYQJ79+aB+tDLBrsEH2B+jKXAQRGIv0wX/GzNf9DFjFXWB4OWXX25maeABnvhDz8/rYIkN2GyhFoYyddT1gZRk60TN/omWMQObgvwOR8t4nmgZ34qVTrCMxbSKurqrtrb2dTYzShwOh6YLSGpUz7CD5TSAlpAiBtESxoIzSJZwfWVa+OzPj6/4knCTi3+d7hh9XQGBYDaMWkUyCF599dXbWltbV8h0rgUEtZUyeYUQAy0htTAUarhRqI3TO/uV4skgjX4PhWmgxJTQmTK3vcOoVSSDoKWl5a38AVUDQjAYVDzH4OD4lqwnPjxHum5lIEBaH0BLaGR9IBKJkGZ/fizzpOBLpXzQoWXMJGmAeSNaZgoERqwigp8Egl27dm2cO3dutdLM5qWG3JqAbB/RElLWBzAGqCxQn9JdrUTtgu03ujHjyWAcfCX8zx5hwp2yrnCC2cWfRYxbRr1WEQGA4CeBYMmSJS9oKX0lIOTmJzwmlRqfNU98QHs21T9jJvOcfHTjAhGuD1Bzojz7PR6P7o7u7++HgYEB6X5qM3F40E/YZ5jdisZV+KxN/zlorvBDtYroJmTm4IJg7969b+WvD1CAgJ2VO+Nkun2NuD7gZpYwVMUXg2gJH6pMkWeCntmPHYUDjrkWQYP/j2yGW8Tkyug3fDFosPPz/ulYBp9fUv13tJO4EnkhaYPvDxkHAtUq4v3IfWDjWcLFixffS7JweUCQZ2VuaVjPKmFJw2ySJcSaQK4lxEEzOvsxnSB4cTbJDgcHHNuvBhqsGTwSiJEsY6fGVjRcgUxlL7Ez5IRhgxqXYhVxTHCsSMKwoaFhn9L6AAUI8kVy1xKo6wNVvlLSlrEF7olbxiorK8mzP5facQbhQhbOdLvdrksnrCqLk9YVuuNpcGUm3j8yRFds/D5GMjZ4dsANfX19hvSKVlqUhGDeDjBVEOzYsWM1Y4Fb9DZABgLOHnQD2LEYuGVsO3GVsL92Num4p2pSqrM+f/ZTqN1M/AOBDTDaFSzjEYW//STihlOeoNRWBLFcYDNjFdVWLFVBwNzANqMdgjMLAYCI6+3tlV5Pf3iGRmf4zALBEq5wxWBupFfZ97Lr4toEdp4MBAq1m4mljAnuLeVrHdyKBqkc1kinJBupFC+NXNE4CGIUcTiI2K+89itZRZnpyHWC3bt3//usWbMq9DIAzjSkWMw52HBMCwHm8//AnNvHg3zV6mVicKh+DkEMZuBp3PbFZjJeI/+FAMB33LSql9rNxD9XRMFHWFc4GB7finZYo5j0UdwJbTmbT3AQ8Z4Q1AgGNQbLF8jYF1opQhEEzc3NG6gDjx2OuQvFFA58bgNkkfjsYZoYdOCWMYIlXBtISit6SoEdg+1ANsIXbx1DZCA4H/Tx2QDJoJ9po+FEUrKPWvHSiHI5GcGA94f9j3leyypin2hNBEN1SqRYvDjOckSnGs3oqWD5Z7ZAZd0MmOflV+6qNOr2OEOwg5D+EJD4wnyKfzO7DYsSscvdTOrznww7W1EN6SD/GctQuoRUIML7RTCgO8D7xP/HyYCTQMsRYd8oMkFHR8c2pRl26dKlsYdDEADUCtamxQ3aBzIrmKiqg54kjNkkrXg35pa2ZimhHwdbUtw5AkhmhkKzAjqfPWd6WM8Oa78iYbBX1ZDu9R8Do+Try6kChSH2PU5WvHccaPwbpmp5kQxBgkytWjG8//77v9PV1TWYn+flma837qoPwNKgel28evaNEGVNibBOGY7zix3S0zwRr6L/1SqhyqxQKI3w3PFLMJLkO42q5jnS/fLiT1wJWOmN6W4Hil8UkTgp5IHGe0dhjP+dnx5UW3L+/Pk1Snleb8h2ZdMiFTZgTqC3dNzbn4llVNVybrwXc8HxnKd5cHDzaU+pelYoVjgxHIW3zxO+s8BbBv2+IOmc3/Lpf+AY+wHHTa4FUKylKghWr17986NHj5r+EkW5MQvKvbBq1sRCTnXTxJpAOEF7mkeJDfJ9sVaqEskKzx27SDou2HID6bi/ZgzweRd9txBSP2oC2Q3JEwBnPg8Impx08eLFVQxVpnopd+MpsoHfaR+fldV10OuYqH7PJ4BUWTyedEhP8+BNKqUpnjAVxQq/vBSCD/sJW+Qqg9Dn5C8X48rkt3y0FVEcbLx/FIO5lcBcx8ADgiYIHnnkkY5jx469LYoyAwwAa+dUj4lB54wm1WMvx1Mk4YRskHC4SX65EKyAYP0PIgs4Z9IqoQ+URUmLUthmBLFSLSTfCWkBgatO1qxZcx/L60kzg5870749vw4amA3EZeJQibpDHUxhB/Mvixs130mY35pllBV2netnjpBP277GJna/fFE9gw3+10sjXOpHEaxVCFMqJKkBgbSf4MiRI0+Y6eD8Bj3XOhOSVfXcz52OprnFFIy3Ez7ozdi5ABTNCt1s8HeeJTwv4XJDkrBHUrKE/lHV3cwy9asN8lUFIIfyBFMCAgkE69ev33L27NmLRkGQ/7TysmofLPLQFm0G4zQS+mEsoClMjbACb6fS1k97SJYw2NRCtoR3euKqLkumfiqYVTGZBwRyD507d87wN0Iqibbnqmn+tytOs4yfpNxwIjWx2oje2GhgZ2FxTIkVPugbpVlCZoH7SquILDARdCjwkPqxLSLrG7lAIINgw4YN7x86dOiA0Yvme/YrT/PQLNAQlQ3iARAdyGJKrPB9xgKUULLAapZwvjN5VX/hNZHJjCx1UwAjA0EXV/b09Kw1ahmVFjm+XUF7mudSkmYZu9IO+E3Sa1oX8FhhH2MAiiV0q1hgJUuIWiC3vQi8Yqx1kDea5lrGw4cPv2bkYkqeHZ/mQSBQojNKs4y7GRuEMzbTukCNFQZjCVphiFlgl4YFzreEOBlw8OWtX2aoX88GFF3pYKzBDzzwTcYIuuuZakJlLUsJlKd5kH9ChHWFSKZEcguidEF+/KBjgCQG/TMaNS2wHPUlSVhr75OYEgdfxC6nZDJZWBBgnDp1apNIStpURftiC9yxS7GMWDdQs4xmAusB207TLGGoqoF0zqfLBidU+8yG3jRi6MpoGRkQTuv9nNpOYOrTPFJxKEpLH6/GyrmaRG88f5ImBiuaaesDtzrj0GqPCl/M0ssmhuHX3d29Tq9I1EL7piqaZfwsCSTLeJLZxVzLaJZmUQjuv0zItcwSDnppTwg/6e676vlMkY6mKCBAy8jY4Nd6PqO1Jx4tI1UkXjbABpRNMEJYoInGAl9zhmCG7UruRi0g4qvoxjSp3V4cEMiW0ey6Qm5g3YBiGQfTJTAQ56ePPqYL3kmUmW5X24VhOBXiM5W7tgEGHfxH29AS/r336hSQ+5hescMUCLKrjN/V8xmtUqz0BRBEkfhZLEmyjPuYU5AtoxFdgKnn+ROXSZawpJ74FbueASiDFNdCGw299tK0JF23bt13mD4g/1Qb7wnm+3xJWOrhzwq0gsOxOOm4H8b9hmfbtj/2kSxh5axm0vrAjbY4fNmpDEYR31puJK0I8SWnT5/eQD1W3giqFY8StcGZePZhDk5gFbEz7dQtmNAS/qBzgGQJBwK1pHM+7lUfaLO6xSjbCQHBww8/vIdqGSkbVdEyrvLRpAaFDTCQDfRukn3qCG3htGLOfNJxX7SNSpZQK8x+YbWRUrOwCkVXV9eXqJaRQlmPVtC+AAJ/pzCc5NM8WsaPU56x5xQplvCjAcKxaAldNPG5PtE5tmVfVD43WyMQCgIUie3t7f9nVhyO9e3ooFRTJ4nEKHXPgZ+cM186TftyTf/seTQAuIagLhOXBGDu1vj8kB+eNRpqm0k02UP0HnyRv42Mv056YPWTpK+xbYQ41Ae01wj0/Ibxb2++m/srbI7qOkg28J+d9Ib6YcWefwNnLCKqm1FYrGpra9s/6RZRzTCIOhF22qL33yQdi8vNvHUF//tt5GvP6T7OtYSZnF9i1Yr5f/hvkQDA2CgKAAUBQbZxB0Sdr/5MOwQvfMo9LulwwcV+dSXv6jwJpYd+Q79uXxcEh9S/TwH3CqScfG+PbZ914nciu7id9fGOKVMsKgYbYCx6j8YGPS6f6rqC/702/dc9/aEKv5dBrK6JyAL/I7pvhf96ekFAwJCKuuBFUecL9J4nz6ZLCmxQevi34GZMoPu6o/0sLZxQZAFKYJuD3adEdu3rItNAoZkAY3NWwAiJzzFt4Izz8+qQxw/94XFXYWO5OPCLHxm+7rzOdnDmfBmlnVnCWCUfBNjWeWJZYAiupV9Nz7LBoMhGo7CidmpXzjeBlX3wDtiiYePXTcYlIMhi0EbcMja7/VdQGuoT2aVbsgwL1xITIBDwF77bRZ1vDutYtFtckWh3Qk9oRLKERrSAklPwxkbBURmEhJf/+wTYRsFaoAMK8GvpY1YXCh8oZN4VdbJlP90GR27nPwIRdpdC+cc/FXYTy47uh/aGZrATnEoBxODmLLMWJEqK8aVOK1eu3Mfe7gUrjMQBBoA7CnkBW5FuZKM1llO374oCgqyg+VdrPA1ZwoPXBQhkdSvSMk6DGCoWgxYNBFlhY6UFfZZwsBgXKinWt33miMT97G2FNcbalpABoKVYF7NNwg1utsZ4agnpooMgW/t+3RpnTUu477oGQQ4bWCJROdYV+4KTAoKsZdxijfeEeLFQ6wNTkQlky9hhjftVlnBS9NKkgcCyjBNTZLEs4aRbRMsyTr4lnErpYFLskCUGpyAIsrXx6WwZ3y7ElrFrjQlkNpiulnHSmXBKgED0VrRrKB6fDEs45YShFZMfNqsLrLBAYIUFAissEFhhgcAKCwRWWCCwwgKBFRYIrLBAYIUFAissEFiRE/8vwABcmUOh+5re/gAAAABJRU5ErkJggg==;" parent="1" vertex="1">
                    <mxGeometry x="1501" y="-645.5" width="41" height="41" as="geometry"/>
                </mxCell>
                <mxCell id="y2z3Kv9xKI0q1BXrAmaq-118" value="ログイン、JWT発行のためKeycloakへのアクセスはJWTの検証無し。&lt;br&gt;Appへのアクセス時はJWTの検証を行う。" style="whiteSpace=wrap;html=1;shape=mxgraph.basic.rectCallout;dx=113.98;dy=20;boundedLbl=1;direction=west;align=left;" parent="1" vertex="1">
                    <mxGeometry x="1240" y="-520" width="230" height="80" as="geometry"/>
                </mxCell>
                <mxCell id="96" value="Cloudfront" style="sketch=0;points=[[0,0,0],[0.25,0,0],[0.5,0,0],[0.75,0,0],[1,0,0],[0,1,0],[0.25,1,0],[0.5,1,0],[0.75,1,0],[1,1,0],[0,0.25,0],[0,0.5,0],[0,0.75,0],[1,0.25,0],[1,0.5,0],[1,0.75,0]];outlineConnect=0;fontColor=#232F3E;gradientColor=#945DF2;gradientDirection=north;fillColor=#5A30B5;strokeColor=#ffffff;dashed=0;verticalLabelPosition=bottom;verticalAlign=top;align=center;html=1;fontSize=12;fontStyle=0;aspect=fixed;shape=mxgraph.aws4.resourceIcon;resIcon=mxgraph.aws4.cloudfront;" parent="1" vertex="1">
                    <mxGeometry x="1050" y="-588.5" width="40" height="40" as="geometry"/>
                </mxCell>
                <mxCell id="98" style="edgeStyle=orthogonalEdgeStyle;rounded=0;orthogonalLoop=1;jettySize=auto;html=1;entryX=0;entryY=0.5;entryDx=0;entryDy=0;entryPerimeter=0;exitX=1;exitY=0.5;exitDx=0;exitDy=0;exitPerimeter=0;" parent="1" source="96" target="88" edge="1">
                    <mxGeometry relative="1" as="geometry">
                        <mxPoint x="920" y="-470.144" as="sourcePoint"/>
                        <mxPoint x="1073.55" y="-470" as="targetPoint"/>
                    </mxGeometry>
                </mxCell>
                <mxCell id="102" value="React" style="shape=image;imageAspect=0;aspect=fixed;verticalLabelPosition=bottom;verticalAlign=top;image=data:image/png,iVBORw0KGgoAAAANSUhEUgAAAgAAAAG9CAYAAABjxM7MAAAABGdBTUEAALGPC/xhBQAAACBjSFJNAAB6JgAAgIQAAPoAAACA6AAAdTAAAOpgAAA6mAAAF3CculE8AAAABmJLR0QA/wD/AP+gvaeTAACAAElEQVR42uydZ3hcxdXH/+eWlWTLhQ4GF9nalWzZVJPQa6ihBkQztnfXRgGCKYEECEkQkAIkoZkq7N21TQuGQIDQwXRIMMVg2dKubLnTwV3S3nLeDxJ5CRissnP33tX5PY8/JGjvzD1zZs5/5s6cIQhCN6lZxX3a1tq76Trv6TLGakR7MiMMgHrw2A0AlgJYzsBCjWguHHvukIqiTC2RK1YX/E4ts7YknY2Qpo9l5j0IGAlgMIBhAPr04NEugDSY54LwNjSau77IeG/2YGoRqwvdgcQEQmepZtZLm+z9wDiGgcMJGAXA8Kj4tQDeBTCXQG+5pv5CqoxWS6sI+SbazAM1yzmUwXsBGAtgdwD9PSreBlDPwLNgPL4hYrwxm8iRVhFEAAi5GeAas3tq0KJMfCqArXxSLZuBN4jxNBM/lQqb80DE0lqCcphpUpO1q+vSkSAcBWBvD4Xw5vgcRA+45KZmlIfekcYSRAAIXWZKhovWwRpHoAvBGOP7MRn4iEBPEeOhIav052oPJltaUcgVtXPYWDbIOYwJJzP4KAJ2CECf+IDAN5WSed/UMLVJKwoiAIQfpGYV97HW2+eBcREI2wf0NT4B8HdmvidVEXpbWlXoLpMasz9yicYBOA3AtkF8BwY+0oAb15UYt8p+AUEEgLDpGc6OVpxBVwIYVECv1kjAva5jz0qNLFkiLS1sjni6dTiTfiYB45gRKaBXW8nMVw1bZSZlhUwQASAAAGKZ7O5guhPAngX8mi6AF5nollS5/oTsFxC+E/gbrf1AOJ+BnwHQC/U9GfhAI5ydCJtvSquLABB6KefWc2mL6VwP8M8BaL3o1esBnmqWmrPqBtFG8YTey/h53NcsscYz6Hy0H9frLbjEdKfVqv961i60QTxBBIDQm2Y7Ddmx0OneAlvi7Krzf+UC0wwybpkWphXiFb2HCYt4iO7a54MxCcDAXmyKRo349Onh0HviFSIAhF5ANJ2dQqC/AgiJNQAAbQAlHF2/duYIWibmKFwmLeChruFcDnBM/P///Z+Jf5kKh24XU4gAEAqU2jlsLNnJuYmYfyHW2CQWMT/gaO5VM8LFi8QcBTbjd+yLAdQAKBaLbCIYEN29LqufN7uKsmINEQBCAVGziAdkHfsxAg4Qa2yWLBHNcG3rT3JyINhMbmgps8m8gognADDFIpuBMSerGSfcG6a1YgwRAEIBMKmet3RN+0kAPxZrdG1FAKCkrem/m1VOn4o5AjTjX8hbGbpzJYPPlsDf5agw13SNo+oq6HMxhggAIcgz/0be2iL7FfSuHc657iRfuYw/bLCNW2V51N9MyXDReranALgCvXtzX09Z4DjGATNH0hdiChEAQgCpXs4lpRvt50HYR6yRC3gZsfa7RESfJXkE/Ec0Yx9LjBsBHiHWyIG3A/9xWoxD5JigCAAhaMGfWS/N2I8AOFaskXNeY+ZfSpphfxBLZ38MphtE6CoIEIRH15UbJ8sNgyIAhCANihl7KpjPE0uomyAR8z22a14ky6R5mvE380Cy7KsAnIfelcjK6zBRl4wYPxc7FB7SaQpyRmT9VoK/+lGRicbrmj0/mrbPEHN4Kb2Yohl7PFl2I4DzZRxTbvCaWKN1udhBVgAEv8+K0tZhBDwjbes5L+twz5kWKVooplDHpKbWcsfVbyPgcLGGtyqAmH6aqDCeElOIABB8yBlLeYuiNmseQIPFGnnBIuAG1zRqU2XUKubIobBt5mIta1/GhMsAFIlF8sJKzTJ2nl5FX4opCgNZOisgitrsOgn+ecVk4FKy7Heijdk9xRw5Cv6Z7F5k2e8z4UoJ/nllRzdkSbpgWQEQ/Ea80Z7AxDP8UBcGPiLgbQAfMPhTsPYZNP6YidcRUz+NYQCAS7QFXB5MhCFEGMqMoQCqUBg52m0A1623jKsld0D3mJLhonWuXUuEX6EwrufNApgPYCmAZSBeCmjLiXl1e3+AzcTrdFB/dml7hrs1gbYDsDMDYwnYwRdBg+jMRNi4VzxUBIDghxnSwpZhpBvzAPTPUxU2APwYoD2uk/5qT27Wq67nUF/D2oU0jAVrYwHeF0BFgJtnHjFPTFSE5omndp5YJrs7mGYAGB3g11jITG9o5M6Fi7nrHPODnojByRneyWFnf4J7HIOOA9AnT++12tGNXeTiLBEAgh8Gy7T1TwDH5aHoRoBvJNe8L1FJ61QVMrmhpczW9aOI6SgAh+Rx4OvJzO+aoSuNa2sPJls89vupmcum3c++ggm/QfBS+G4A8CKIn2LbeUrlPRLjMtw/BGscmC4CEM7Duz6SjJg/E48VASDkdaZkHQjGS96WysuJtd8Oiej31BK5nq52NHMxWc5PCO44Bh0PoCRAvW2uzu4EOSmwaSZm2qo01mYC2D1A1d4I8D81aPf2If35qWFq87Lwama9NO2cCXKv8Xr/DzH2T1SYr4nnigAQ8gEzxZrs/4Ax1qMSXRButDcaV/ohPei4DPcvYutnAJ3JwMEIxqbWjUR8fiIcmi4O/A0hm87+HKAbAyLoHAAvEtM9YP0RlatfneXcei5tMeyrQbjAw37wVjJs7CNpsUUACHkgmrbPILA3m3EYH4MxLllpvuhHW0xYxEM02z6HCGcB2Mr/PY//bmrmz+tG0Jpe7cPt2fzuBnByAKr7OQh36zBu78k+F5VMbLQO1Qj3AdjWEzcmOjURNh6U0VgEgODtwFlMlrUQoGEeFPe+Tsaxfh30vkn7BUjWOCaaQsDOfq4rg5oJ7unJSOjfvdGH4xlrb3b5fhAN9XlV5zHxLTDM+4KQ32HCIh6iOfbj3vg/LVpv6aPkpIsIAMFDYpnsRWC6wYMo9QaHjJ+mymh14ERSxjpIc3EpE470cTUtJvxuWLnxF6/3U+SLWmZtSdq+jAhXAe1HQn06Oj4F4Lpk2Hw5aDZuTwpmPwXgx+rHCJ6SrAjdKqOyCADBi1kus16asZo8mP3PZ9PYP4jB/3+FQHYvAv0ejKN8XM3ndMMYP204fVLIvhtt5u01y76HgUP9WkcG/qUzXz29IvSfINt6Uj1v6Zr2awBGql4FGBrWI71FwIoAEPJKPG2fxOCHFBezytGNvQvprG+8MbsLiK7g9u/NfvT9VdBQnSw33yhEv53YYO1LGmb7JaHNJnheY74i6IH/m7TnDrDeUH1CgImOS4WNx2V0DhaSCjiAMHiK4iJaHdc9qtASfSQqQvMSEfMUZv4xAD8u6w6CizmxTPacQvPZWGP2PE3DHF8Gf8YcV+OxyYh5WCEFfwCYFqYVGuF4AEqPJxLz+TIyywqAoJjowrYxpGsfKBYYF6YioZsL3ZbxtPUTBm5Ce/phv4m8e0OlZk3dINoYaH9tz9twG8Bx3w1+hLQL+m0qbMwudF+Ppa1LAPxFZRmO6+4ys7LoAwiyAiAoGrR0/SLFivCFVNi8pTfYMhExnzfXGrsR+OcAPvWXMqdx1nr79Xi6dXhQ7TthEQ8hy37Fh8H/SyZc1hfGzr0h+APA0LBxAwhKj/Dqmv4LGaFlBUBQN5saSJb9EYBiRUWs18kYGYTjfrnmjKW8RajN/j0B58FfO9O/AGFcMmw+EyhfbbKOJBf3AtjSR9WyiXCLaxjXBH1ja3cFme7YCwD0VVTERnKN7f2QGEmQFYDCa6ysc5zC4A8Q/tIbgz8A3DeUvkpFzIsYvCcAP53L3wqMf0Uz1qVBsWU8Y11GLv7ls+D/puO6eyTC5sW9MfgDwMwRtIwBlUeH+7iac6yM1CIABAUw8akKH7/K3mj8rbfbOBUJvZ8MG3sT00QAX/ikWjoxro2ns/dHm7nYr7abkuGiWDqbYsaffTS2rGbwhevDxv7yfRroYxnXg/GxsoBCXC0jdXCQTwABoWP5/xMAISWOQDxZ8tN/x+bba1nreiY60zd9hfGGrRsnzionX+1ZmLCQt9J1+2EAB/pocJutGcaUQs+t0FVimew5YLpd0ePbsmRse2+Y1oqlZQVAyNVglnWOVxX8AV42ZIU5Q6z8rdWAMvo4URGaAMJRAC/3SVTbR3edtyZm2nxzciG6sG2MrltzfRP8mZcScFgiYp4iwf+7mGvMaQBWKnp8kcnOMWJlEQBCTgd+PkXhw2+Te+q/n2TYfCZL5miA6vyhAbhMY+2taMbO+/fWaJN1JOnaqx7dSdGpWX9bsblbImI+L567aerGkgXgDmVBRT4DBCesiAn8T80iHmA59qeKVgA2apYxeHoVfSmW3jyxtH0Mg+t8ktDGYfDF+crZEG+0LmbCdQB0H9hiJTGdlagwnhIv7YQfZ3gbsL0MajYVt5ZYxja3V9F6sbSsAAg9xHKc/aHs2z/dK8G/C6sBEeMJ3TJGA3y/D6qjE+imaMa+tZrZsyBczazH0vadTPirL4I/8z1tRcYYCf5d8OMwfQaQKh8ubgnZ+4qVRQAIOYnSfJCyR7vuNDFw15heRV8mI6EzCHQygC/z7x78i9KMPbt6OZeoLqtmFfcpzdj/QHvypHzzBTH9LFkRGn/fUPpKPLOroz9PU+eTOFgMLAJAyE1nUiIAGNQ8PWK+LRbuHomI8bBOxi4MvOKD6pxY2mLPqWnkrVUVMKmet7Q32M8COM4H7/uyTsauiQrjEfHEbq4CjDDeBFjJfR/so9MgggiAwFKziAcwsKuaxucHQcRi5e4zLUwrNoSNQ4hxFQAnz9X5sUXOm5OaWstz/eDJDS1lrmm/wYx8L+06xLhqfdg4tLcmrcrdzIKYQf9Q9PSx4zLcX4wsAkDoAVnXOQCKvrM6Gs8WC/ec2UROosKsBeFQqDte1dm5V7nr6K/GMtndc/XE6MK2MY5mvAqgIs+mXqEBhyQqzNrZRI54Xg40gAZVY4BR5DqyD0AEgNCjDgpWtJTGS2aMMN8VC+eOZNh82WRjVwCP59lptgfTnImN1qE9fVQ8Yx1OuvY6gB3zq2vwT80ydpkeMV8RT8uhz44w3lQlWlnh3iVBBEDvwMXeiqT/87L8n3vqKujzZNg4noBfA8hnboX+GuHJWNo+vbsPiGXsM5nxBIB+eXwPmxkXJyPGiXJaRcU4QAziFxQ9fW8xsAgAodsSmgmE0Yqe/rIYWN2gmoiYf9GAQ1XmXe8EIYDvjaWz53d55p/Ong3mGQDMPNb/c5dxZKrCvEHEqsJhRt1YsDOYJdeMCAChO0xsahsOQMlGGkfTZSlVMdMj5isOjLEA3sqnHAHopnja+lVnfxDNWJcy6I58jg8EvKPZxtgZFeYL4klqMRxnjqJHD5i0EEPEwiIAhG6gu8bOiobXppkjaJlYWD0zK2hlKRkHAbglnyKAgevjaevazc78G61aYlyLvFaWZ60rMfafPoqWigepZ1plSTOYldjaMZ2dxcIiAIRuwBqPUfRomf17yNQwtSUj5gVgPgtAW978Cbg0nrZv2dSybC2zFkvbtzPhyjyaqpWJJyUqQhNmD6YW8RxPI4GazwCusjFMEAFQ4AKAoUQ9E7uy+z8PJCtC0wA+kIGP8icCeEosYyW/mTq4dg4bSzLWTIDPyaN5VjHzAalwKCGekpexRsmYQBrLCoAIAKFbnQe0i6InzxPr5kkEREL/dtnYk4B38uhZE0sz9iPRZi6urufQ0h3tvxNoXB7NMs/Rjb1TFSHJSpmvQKDRB2qUBYkAEAEgdJXaOWwAXKaiS7ohY75YOH/MrKCVxZZxEBEezWM1joVl/7OfaT8J4Gf5W5HAw3aLsa/sSckvtmV8oOjRI2qZJc6IABC6wpLtW3eCkgyAvDRVRqvFwvnl9ipanyg3ftaRQjg/6wDA4Qwcmkcz3DIsbJwyaxfaIB6RZ1E6kr6AmoRAoWWN2F4sLAJA6AK6big6PkMfiHV9AhEnKsxaZjodQGsvevM2YpqYjJgX1BK54gh+8UcoGRtc3ZKjgCIAhC7N04kGK3ku0CjW9RepCuMBYhwG4PNe8LqfEuHgRIUxU1reZ2MOqxkbNGgiAEQACF1SzS4PVSLymeVbqw9JVJivueTsBSBTsAEG1Ow4zv6JsPmmtLgvG2i5GmHBIgBEAAhdi9RqVgBI00QA+JQZ4eJFbBoH5PeEgCp/xlxH0/eaObI4LS3t0ybSlG3EHCzWFQEgdGm8VKSaXVeyq/mYVBl9bLUYB4LwVAG91nPkGIfMKqdPpYV9vACgaGwgknTAIgCErrKDks5om8vFtP5m1i60wVxjHA/iAvhOTsmhK42jE5W0TlrW3ximqWQFwGUMEuuKABC6pse3UPDQ9XKlajCoG0tWstyM5vOYYI9DP3BdMqxPqj2YbGlR/zOtDJ8CyHkKZo0wUKwrAkDo0uBJAxQ89WOxbJCcoP2YIDGfByBIx+VcAp+TiJiXyTW+wfI3MOf8Mw2zCAARAEKnqWXWGFAgAPgrsW7wSFSEbgPoTABWAKprgymeiITulJYLpAhYreCpIgBEAAidZckS9FfUNqvFusEkGTHuB+hn8HfCoDZiOiVZYcyQFgssKsaIUPVyLhHTigAQOkNrqxLFTCIAgi4CnmDCUQD8uKFuAwHHJCqMR6SlAgyrGSO2WCerACIAhM6h62o6C8kdAEEnFTZfYuZDAXzhlzoR8BURDktEzOelhQIOsZIxwjWyIgBEAAidiv+g/krEPfMasW4BiICK0NvULgI+yf+EER+R5h4g2f0KRgEoGSNsUrGpWRABUIAwEFI0U1sr1i0MEhWheY7jHABwHvM68BImZ//p5UVyvXThoGSM0JlCYloRAEIncDUYalYAIOexC4iZI4vTYP165OOgHTOI8NcZ4eJF0hIFNPkgNWMEayquNhdEABQguktKOguRCIBCItZgHQJy/wryOkq0OxMz3RDPWIdLSxQOxHCUTGpcNZMaQQRAIapwJQLAVdS5Be+JNmb3hIZ/AijyPvj/93+FmPHQxKbsHtIiBSIAFE0SNCYRACIAhE4GajWdhVgEQAEwqam1nIgeB1Dq+dT/u4n9+mkuPRVvaK2QlimAyYeiz4SqPmsKIgAKUIarWQEgWQEIPPEGHuS62nMAtsuHY2LT3xu2cTXjqZoFvIO0UNBXAFjNCoB8AhABIHRWLkP2AAjfoWYRD2DNfhKgYf7TrFxmGfazZyxVcomV4NXQo2iSIJsARQAInQ/USrZ1MXm+XUzIEdFmLrYc+wkAu/i4mqOL2uxHpmS4SFosoGMPqzlTQhJrRAAInQzUQJuiRxeLdYPoEEywrGkA9gtAbQ9c71oza5llbAnk5INU5exvFeuKABA6pwDUdBaXRAAEkFjGvp5A4wIURU5Z2mT/QVoukCgaI1gEgAgAoXPxn5WsAJDXR8aEHhNPZ2sAXBJAJ748msmeKy0YtGZTM0YQywqACAAhrysArgiAQBFttI9m0G1BrT8x3RLP2MdJSwap0RStALCsAIgAEDqHoaizkOwBCAoTm7J7EPHfgUAfn9KZ+d5Jmexu0qJBmXuo+UxoiQAQASDkWy3LHoBAzPwXtgzTHHoCnif6UUKpw/SvSQt4qLRsAHBlBUAEgJBvBaCks2js9hXb+pszlvIWpBtPgrB9obwTATu4hv1EzSKWK2H93lbk9lHxXJOL2sS6IgCETlBkFW1UIu6JthTr+pfqeg4Vtdn/ADCyAF9vtO3YD9fMZVNa2tcSQMkY4ZrYKLYVASB0RgCY+FLRTEwEgI8pNZ1bABxUqO/HwKHZfs4d0tJ+jv/YSkXTD12Br8S4IgCETjA1TG0ANuS8b6vp3EIOiGWyFwH8c48D8jXMuNbT+EI8KdaYPU9a3KcijUnFGLGm9mCSNOQiAIQudMUvc9+5ZQXAn8HfOgJM13s81atLRczfpyLGb0A0zdui6aZoo320tLwfFwBYwRhBX4plRQAI+e80W0iKVn8RbWyrBOMBeHncj/HPoSv1X3w9JV9frp/NwMMevrZOxPdPzLRViQf4h9o5bADon/uhjEUAiAAQujhIq+g0enoZZCe2T5hUz1sS6Y8DGOhhsS9xyDjtm0uys4mcDZZxBoDnPaxHf2L98ZpG3lo8wR8sGowtgdxfGMZqxjJBBEABx39S02lKrDbZB+ADauay6Zr2wwCXe1jse1kyjk+V0XeOmc6uoqypGycDmOdVZQhcZmn23+VkgD/QnayST4RELBsARQAIXRsc6QsVz3UcfQexbv7J9vd8x/9KnYzj7g3T2u/7g7oRtMa0jaMAXuad0sUhcjLAJ2MOa4PUNLH2uVhXBIDQlU7Dar6bEdFOYt38Ek1nLyDw2R4Wudol94hpYVqxuT+sG0UfscPHAFjjWeCRkwH+GHN02lGNsJAVABEAQlcHxY/UrCywCIA8MrHROpRAf/WwSIuA6hnhovrO/iA1suhDJpwAIOuhw98Yb7IOFg/JIy4PVrS0sEqMKwJA6Ioah7ZCzXOxo1g3P0xawEM1wv3wbsc/E9PkRMTs8ua+VNh8iUGxdpfxBINdzJ7c0FImnpKvYKBmBUDVWCaIAChYdHZVCQBZAcgD0WYuZsN+GMA2Hhb7+0SFMbO7P05FjPvAuMbD+m7laMY/alZxH/GYPEw6SM3qoA5XBIAIAKFLnZFNJZ2GRADkB8u5g4E9vCuQEsmI+YeePiUZMWoBnuGhpXa11ll3icPkBSVjgwtTBIAIAKErDKnAxwAsBY+WTwBez/4brV8SOOqdesSc9ZZ+Tm50BLG51jwLwHPeaRc6M5rOThHP8RwVY0NbshxyCkAEgNAVaolcQMlGwB3k3LV3xJusg4lwnXexHx9kNeOE2VWUsw18dWPJMnWjGsACzzQA6G+T0tYB4kHeMCXDRVDyeYpWgojFwiIAhC6P5qRi6Ux3BrYNFeOqZ8IiHsIu/g7vNv19rsE58YfO+ndbBIygNezYPwXwmUfvYrrAg5MzcmrFC1o4O1xNPODlYl0RAEL3Oo+ajYCOERbbqiXazMW66+mmPwuEkxOR4sWqCkiNLFlCjJ8BaPPonbZz2H6sejmXiEepxSVdyZjAisYwQQRA4UO0TE1ndyNiXMVNZ1t3gTHWO61IZyXD5suqi0lUmK8R8S88NOVufTc6U8WjFAsAV1FKaiZZARABIHSz9zSp0RVaudhWHfF09mwwTfCwyOuTFYZnO/UT4dB0MG70TgfzpGgmGxfPUmpkNauCGmfEuCIAhO5N1dV0Hmb5BKAq+Ddmd2HQDZ6N24yn14eN33j9nkMjxiUAHvfuPem2WCa7u3iYqkCgZkzQmZrEuiIAhO5gGIrUM4kAUEC0mQcyaf8A4NU364WGYZw2m8jx+l1riVxyjXEgfOhRkcVg7e81i1ius1YyJ1DzCUC3DVkBEAEgdIfkCKwA0KKguw+trueQWDinIyiRZScAHu5RiV+45BxbN4LW5OuVE5W0jm37OHh2MoDLLceeCWYSh8sdUzJcBDWXhK2vG4mPxcIiAIRuTdSJQVCxhKb3NbLDxcC5I56xLwFwokfFZZlx4oxw8aJ8v3dqZMkSDTgZapJWbYrj4k3WBeJxOYzSyI4AoCt4dJPkABABIPRo0qNEAEAjvUqMm6vgb+3NwB8904XgC1IV5qt+ef/pEfMVYr7Isy7B9Jd4o7WfeF6OcPUxavwUsvwvAkDoIao2Ao4R0/ac8U28LTNmA/AmuyLxzEQkdKff7JCoCN3GTNM9Ks5gwv2xDG8jHpgTn1IyFrCa1UtBBEBvWgFQc4yGCSIAekgts2a49j3w7n6Ff5fCrPGtQUL6eQz8x6PSdgLsB6qZdfHEHqNmLGA5AigCQOgRLtPCQHX6XsTSjH0VgMM8Ku4TnYyTp4apza/2SJVRK2nGyQA+9UYc45DSJvsK8cQeLwGMVvJUogaxrQgAoQcUmcZ8ACo20owYP4/7ioW7RzRjHQTgco+Ks0A4dVqYfJ9WNVlOy10XPwOQ9aRAxpWxBusQ8cjuEW/gfgCXqWiZNhj1YmERAEIPaD/mpSSftmYWWSPFwl0nluFtwLgPanZOf3ckJb7QizS/uWJGpfk6g3/t2RimYWZNI28tntkNdHs0AAXHKqlZxaVUggiAXggpSbbCmnwG6LrRmMD2dAJ28KTlmWelwqHbg2amVCR0M0BJj4rb0SJ7huQH6I47886KHvyhWFcEgJCTvoQPFE0tRQB0efZvXwzgWI+Ke9sN+XjT32ZYX6L/AsC7HhV3dDRjnS8e2lWFqY1W81yIABABIOSkkTSar6iT7ibW7TzRxuye8O68/+fQjJNSZdQaVHvNHkwt7NgnEfCVJ7EMdN2kTFZ8uks2YzX2YkVjliACoLdhO44qNT1WjlF1jnPruVTT6B4AXqRQdlnD+GR58K9STY0sWUKg8QBcD4orcll7sH1jm7A5auewwaxmEqCT84FYWASAkANanFAD1OyqLi1tylaIhTfPRtO6kxkRTwpj/CFVbj5dKLabHjH+xYzrvSmNy1mzporHbp4lO1qjAfRR8Oi2nVaGJAeACAAhF8yuoixUZQR09T3Fwj9MNJONE2icR8F/zvqIcXWh2XBDxPgtgOe9KY0mRjP2ePHczfqaqr6/oPZgssXAIgCEnHVWfk/JYzWIAPih4N/YVklMt3hU3Epbz8/1vspFLJFj2sYEsDe3wxHzbdFFrXLt9Q/ZiLSxip78vlg3GBhigqD0VrwN4EwFwkIEwPdQXc8hIvt+AF4kTLKJ6SxyYE5Y2BohU+ung/rDhe4SlQAoJoZBcPu1T95oIBOIXPQhQhEzQiDaRD3dUgKZm2769v0MRJv+vMRgC9DWfzdw8HowLGa0sYaNGsMFeA0AuKythQaHGC0EbnUJNhOvY8td16phA2tUYzA/AvU5FPqRq99XM5f3qRtLlnjzJltYTd8n922xrQgAIadqnd5mBfkACdhlSoaL/JxiNl/0Ne0/ANjVq77IxE/qsAFdB9z/T/9I32h4/kbOFuL2BuSOhtx0wkj6/jSS9PUzf+gPeFPC4b//mfjrv6CvxcF/f8IddSSm9neCrSan5ffGN4y1+ttXAvitePP/Em3mYli2kiOALnl2H4TQQ+QTQEBwDeM9qLlzvWgtWaPFwt8aIDP2scR8sVgi8Fwey9jHixm+NfDb9m5Qc4NlW3825QigrAAIuSRVRq2xtFWvYkaqMX4E4J1eMvMZyHZ2R93Vh0BzB7mgnQi0E5gHMbATgG0I2AYuGyBJLKd6iq4kC+23JznMj8bSls3AZ2j/t1wjWuWCVwK8HESrmN3lZIRWpspoda+wPPOeimz/gawmigAQFND+GYBzLgDgYh8AdwTdPjVz2Wwb0DYErj5MA5eBaBiIBwO0ExiDAAyBZfchaGBigKljCPzmIvbXxhZ/88CjPR3rOtI37wBgZ+avP6a0f0MhaIBlI5a2NgJYRsBKJl4JpuVgXuKCmnVymo21RcsLYk8BY18V5mciWf4XASCowHXdt4noLAWP3j8oNog38CAHdpmmUxkxlzGoDOAyMJdZZO+ksa63D2xff+CWSC50iT4AKhmo/K/vEEEDwNBh9bedWDq7HKAlADUTuJmJml2Hm3UYzYlKWhWQ2cR+Sh7rQjYAigQXVBBNZ3clkJLjgNCMIX7JPDclw0VrkS0n6KMAHk5Mw4m4ihk7A5Asb4KfaQOwiIB6AIsBXgymBW2a8YFfbsebmGkdobHepCaiuFXJcNECcQNZARByzLCV5vylO9otAEpyv7zg7Afgfi/fJ9bEgxl2leagiokiAEcYqFjP9g5ax5yrYxoPZml/IRAUARjFwKj/zrEICLGNaNr6iIBGgNLEnHZ11BOMeq+Ft87a/oq60/r15aFGcQERAIICag8mO56x3mXGvgoev78qAXDGUt6iuNWuAvEoBlWhfXDcBa69DeHrVfpNfIcXhALi//cg8EFMALkAYCOWttYSkAHzAlejeoAWhCx9bt0o+khFPZi0fRUp6rmFmMRKBIDgHxivAQoEAHGPvwnWzmFj8Q7ZUYZGuzNoVwJGMzAGbfa2TBLeBeF76M/AHiDag7i9k1uGjVja+oSA+S7wITG9z67z7rCPQwt7nGaXWcmeHwZelaYMnCgVgkQsbR8D8OMq+q9mGVtPr6IvO/PH7TvusxHd1fdg4j2IsEfHzWJ9pJUEQRkWgAwxv+MS3tGY3lnXx3hn9mBq6dT4keFtwPYnKsZ+Bg5PRcznpIlkBUBQRFuR/npRm+0i90mcCKazN4B/bWpmv3wna4wL7MWutgcR727BHq2xZnL7lEW+0Xd2iBTNLfQME8AoJhpFwHgmoLTFtmJp60Nmeo809x1mvDlspTl/UysFzM7+pMYJHc013pLmkRUAQTHRtDWPgJ0VPPr6ZMS8NNrM28N29tRc3oMJewDYD8BAsbwgkiwwbCDC+8x4h5jecV3rldTIkiXRtHUjARcqCCTvJCLmWPEoEQCCYuKN9m1MfK4Cd/gScNcDNEQGf0EoNIfnpSAaCGCAgr50UypiXiRGDhZyF0AQ+zHhNUVP3rK3BH9Rv0Lvm+7RUBXBv+PhsgFQBIDgBQ7rr4gVBEHwDab+hhhBBIDgATMraCWYl4olBEHIN0RIp8roY7GECADBq04HyCqAIAidR9FJHdeV5X8RAIJnTKrnLV0dGwI3UgiCkNdZg5IgQth4xlLeQgwsLiEoIp5uHe5CO5ZAxwA4EO3ngQVBEPyAQ8D7YDzh6Pz4jPLQO2ISEQBCN6lm1vul7b1BOIaB4wCMFKsIghCQ0LIYwPNMeGJDVn9mdhVlxSYiAIQfYFyG+4fY+SnBPY5BR0KS7whCXpAcETkNMl8x+Glm7TGN9X8lKmmdWEUEgACgZhEPyLrOccR8MoDDARSLVXoF6wBsBGgDgb9ygQ0aYyMI65hoDZg3gLCRgTUAoDGvAeC6pLUAaNVc2CBuH0hdXu0YYNPljS647dsFGXZRy/q+aO1K5Uo3oNg22r5z7bQGKrI06qPbIGjULlCZ+rkaDADFGrslADSXaEDHADMAjL4g6kPMA8Do5xL6aEBfBm0BcF+03x/RT1yiV9BKhKcBeqgN+uP3hmmtmEQEQK8i2swDKescD+KTARyG9jvEhWDPGD8i4leYta+I+CswviTir+BqX7oaf+U67pe6EfrKJKytG0FrxGKbFsMWo79jZ7fQdG1LzaUtoLlbMtMWIGzJTFsQu1tCowPA2F4sFnjaADzDRA+FNP0x6RciAAqWcRnuH3KdE0F8CoCfAAiJVQon+OuWMbqzNykKPWPCQt5K1+z5IBEBBSYGniOm2WD9EflMIAIg8NQya8sy9iFgnsBEJwIoFasUYCdi+lmiwnhELOEd8Yx9HDP/UyxRkLQS8LhLNCu0Rn+6bixZYhIRAIFhUia7m+vSeACnyyzFUz5joJmIm8mlAUw4Uv3sn1KpiBET03tPNJ29h0DjPCjqSTCvB1EZgDIAW4v1vYGBjzTC/S7zrFQk9L5YRASAP2ckDTyINftMAOMBjBaLKBoPmJeBKM1EabCbAWmLdXKai9pCS26vovXfaIt6qD9FsZJNY3SqjFZL0+RBaNfzlo5pzydgB8WD5FeuaYz6Ot1tvIH72ciWGbo+DHCHw9XCTBwBOALQYBlXlTEfwCxyjXsSlbRKzCECIK/8d4kfqGHgBEhynlyxmoBFABYDWAymBY7u1vdtMxu/DvI/RCxt/QPAico7D9PRiQrjKWmu/BFL28cA/LgHRT2UjJjVm/uj6noO9TPbdnLJqAJ4FDENB3g4gDEAtpMWywkugBeZqG7YCv2R2oPJFpOIAPCMCY28o0F2nJkndVyxKXSPtQAWENGHLrv1zDTfNI3504bTJ90OCBn7ZDDPVt5xiO5OhI0aaUI/iIBsCqCJHgi+Hu31iDbz9pplj3bBVUTaaDCPATAKcgSyB/ASgKaRayRlVUAEgDKqmfW+aecIAteA8FMAhn/6gO9bMgtgAZjns0bzdab5jmPVp0aWLMllITWLeEDWsReqXhIGeFmWzDFyhtkfRJt5IFn2fAA7Ki5qZZaMUTltd2aKNrQOJd0cTcSjXebRBKoCUAVZUewKNhGegEt1QyL6M7VErphEBEBugoptTyLiKQANE4tslhYA8wB6D+y+Cw3vrs+a871IBRrL2FPBfJ5quUXA4YmI+bw0tX+IN9pHMfGTHhR1czJiXqh8wlHPoT5F1hhysDuRthvAuwPYGUCJtPZmw9piIndqG8yEiHQRAN0bUNKtwxn6+QDikCW672MDA+8Q8B4xvUu68+7g5aGGfHyTm9iU3UNz6d8AdKXRn2l6qsKYLE3vP2KZ7AwwTVBcjAPiHyXDoXe9fr/aOWws2T47kjR9dxDvBmD3jn99pfU3yVowputsT51WWdIs5hAB0KlAoju4gIlOh5+W+X0AAx9pwGsu+HWN6Z11tvEfP1zyUcusLc3YbwD4sWIDfNxWbIy6byh9Jd7gPybV85auaS+A6s12hLnry429ZhM5+X7nama9T1O2Unf1PZiwL8D7AaiEXPX+TVwATxJws6zciQDYZCfqm3aqNeJLGNhDLPIdL8m0hYwf+zXwxdLZ8wG6Wb0AopNSEeMf4hA+XgVotE8F8QPKfYH4F6lw6Ha/CiHHdOYSuEw84rviDS79dWhEny37BHq5AKiZy6bdzzmdiS/vUM3C94x3jm4MmzmClvmtYtFm3p4seyHUn/l/PBkxjxNX8D/xjPUIM05QXMxaco2Rftx5PrmhpczRjMXiCT8Y+hYT3OuMtWayN2ca7JXLRNX1HIo32hOs/nY9E8+Q4L/53qI71gm+rFjWutmD4L/GYeMccYOA4Bi/ALBacSn9WbP+4svX14yTxAk2O6cZzqC7rH5WJprOXhBt5l55C2uvEgA1q7hPNJ29oNS0F3cE/rB0hE6H2hP9VqNYxjoCRKeoHyv4kpkVtFJ8IBgkKmkVgS/3oE+cEU1bh/mup5Ly1Y8CGtZoKIFuIsvOxNLZ86uXc686ZdErPgFU13Oor2n9nEBXQLJxdXtiATJ2SIbpMz9UZkqGizbA/oAZEcVFvZQMG4eAiMUFgjTBY4o12c+DcYjiIbSJTX1Mqoxa/fDakxfzdo5tr4JsAuym3+BjAv/BWGfW9YZPAwXtJLXMWjRtn1FqOgsJdEsvCP6NRHhF0bN1hnWsX150Pdu/9SD4t2iac5YE/0DO7NixnXPQnpdCZcQo17L2ZX55bde2TlQ4rr8MIFPgU+LtmehWq7+zINponwbmgp4kF6wAiKetnyzN2G8T+N6OXNwFOSsnwutMuAzkViUjZqVr2xPRnhtQwVhHP/NF2za0VgD4lRcacnp5cZNE02Ayc2RxGoxrlE8aCZdFF7X64nMig05Q9WidjDOTETNCcEYw+EIAz6M9y2chLgWUE/H9sYz9QTRjVxdqHyk4dRNtzO5JGl2rfukvbw32FYOfZtYeyxbrz2zqaF4sbb2D9gQhuSbbVmRsn+/jgLG09TSAIxQX8+7QlcaP5aKRYFM7h42lO9pvA9hVccd8Khk2j87nu9Y08tYW2R9BQf4SBv6TipjfybNxxlLeoqjNOZLgHgfQEQxsUaCu9Lyr8WUzykPviADwIe3fvqzrAJpQgMJmBYCHmfDosBXGa5sLSrG09VtAzcyHiCcnwqHp+RN49glE/IjiYlyA90lGQv+WEFogkwKiN6E6SyTRcamw8Xi+3jOWyZ4DptvVvBsuS4XN6zYntpYNtvdnFycAOAnq72bwfFkAoJSt6ZfNKqdPRQD4ROEv2dH6BYGuAjCggHxtOUCPEGP2kIjxRleSVkzMtFVprM1XVLHnkhHz8LwM5M1cDMtZoDrBCYGmJiLG+RI6C0gEpO07CHy24uF0MZt6Vb42BMbS1ksADlTyZq5TmagsbuzKbyZm2qp0V6tmojMBHlFA7rSawbXDVpq3BX2FMNACIJaxDgQwFYwxBRL0lwH0KDFmJyLG6z3ZfBZLWw0AKhRU0tENY8eeXNnbg/b+PRhXKdb4H3PIGJkqo9USNgsH726KxG+TEfOPnr/fAt7BMuzlilY56pMRc3RPHvANMTAO4PICcasGAqYEOb1wIDcBTmjkHePp7P1gvFQAwf9zEN0K8F7JsDksGTEvSFSYr/V05zkBjyqqr+5a1smeB/8mHgzGrz3QxBdK8C886kbQGiLywH9wRXRhyzCv3882rVOh7hNHjz+5zQgX1ScqzNpkWI8w8d5MdBuALwLuVpUMPBtNZ++pWcA7BPEFAicAohm72iD7QwadFmDHaQPwBBOdst4ydkyGjSnJSOjfuTxuxlD3nZyJTvV8bcS1b4T6W8+eS1YYf5dwWZgkw8Y9BLyguJgSTTeu97x/sMI+mcs9N0ScCofeSoWN89aHje0IOIyYZwHYGFC3IgKNswx7YTydrQnascHAVDbewINYs+8EcCyC6inAOy54VojNe+sq6HPVI0IsYy0FaLCCp7s6GUOnhWmFF3ab2GgdqhFUL7O1apozRo79FTYTFrZGdF3/AECR0oJcHJqsNF/0ZFK0sGUY6cZiNeM5L0mGzeGqc2FEm3mglnWOY+LxAA5FcD9PPwPNOCtZTstlBSBHgSyeztawZi8MaPD/hIDrNM0JJyLm2FQkdLPy4N+htEH0oCq/sV37FC+MVzuHDU3DjR6osz9L8C98OnIDXOfByDq1Zi6bnryUYZyqKmAy0wNeJMJKldHqRIUxMxkxD2PdqQBwPYAg7rQ/Aq79YTyTnRSE1QBfC4BJC3hoLGM/y6C7APQPkBMwgOeJaSKbxrBExLwsH8GFXVa3nE3w5DPA0p2sKR7s88iw4f2yrZAfSjXjTwAaFRczyh5g/cKL9yGGyuV/zz+JpUYUZ5IR89L1ljGY2+/6eB6qkpupYQAzTYtm7KcnLOIhfq6obxVKtNE+jYiDFvg/YUaSNWfajHDxIj9UKJa2mxQdwWHWnYrUiGJlqUE78po3QvHxTpfxkxkV5gsQeg3xjHU4M55RXMwa3TAqVJ6YiTa2VRJpC5UEB0I6ETYr/NBek5pay9nVJzMQRbBSuq9horNSYWO2rAB0gurlXBJL23cR8f0BCv5vA3SGudYYnKowL/dL8G/vxMoUPMHRx6usu2M7f1Id/Bl8rwT/3kcibD5L4AdUzwQ7fFhd/9a0Ccr6hosH/NJe08uLmxIR87L1ljGEiM4EYW5QVgOI+cFY2r7dj1cO+2oFIN7QWsGa/ncAuwSgYV0ATxJws5/PgUYXto0hXftAzQjBS5MRs0zFN8JoOrsrgd5RLFLXkWtUJipplYTE3ke0mbcny25UPNFwXY1/pCKFbC2ztjRjLVG00RcgtyoZLlrg1/ab2JTdQ3dwAROdDgXpjxVQ75J76oxwUb2sAHy7M2bs8azpcwMQ/NcBVEeuMyoZMY/1exKI1MiiDwGocTiioZMy9v5qlCn9RbV/EuMqCf69l1QZfcyEPykuRtNc+quKBzen7YOVBX9gnp+DPwDMKA+9k6gITdBdO0LAdQBW+9zlqjTW3oxn7HEiADqorudQLGPfTcwzAZT6tukYHwP4VZaMnZIR4+ddTYuZVwiqTgPAYcr5EmS80T4RwE8UWyXTVzNulTDYu9mQNW6E+g2BB8Uy9vG5VxasbPkfjMDkw5hWWdKciJiXmboxDMClAD7xcXX7MfM90bR9h2enRH4wNOSRSfW8pWvYD4FwsH/bi5cxcMOGErNu9mBqQQCZmGkdobGu6hTCWrPU2KFuEOUkkUd1PYdKTXs+AKXXqxLT0YkK4ykJgUI0bR1GwLOKh9pFpaRXTQ1TWy6eNn4e9zVK7I9VTZo0zQkH9VjslAwXbWBrIgO/VbhCkgteM9k40ZNj4X5bAZjU1Frumvbr/g3+vITBF7JpVqQioZuDGvwBoGNT4nuKHt8/u945IVcP62vY5ykP/oRHJfgLX5OKmM8BeEzxeDJiA6xzcvU0vY/zM6hbMX07yDkxpoapLREJ1a23zHJimggg49Oq7meR82a0sa2yVwmAeJN1sOvq/wZQ6b82oSYQjR+60gynIqGb83WzV87fCrhf3bNzsxQ5YSFvpRF+q9gUrZpj/1LCXvsFOTWLeIBYAiA4FwFQ29eZfj+pnrfMSX1Z4fJ/+wmswDO7irKJCmPm0JXGqHYhQIt9ONEsJ9Je67jYLh9xwePgn8lOYqY7AJg+a4lPmPjq0Brz7rqxZBXaANeRSnkZ1FwYkpPUwNGMfSsxq02ewrg6WWFe2RuCu8327uxyhIgizKgEMAKMASD0BdDvWz9ZB8YGEFYDWEyEBmZOM1GjBePde8O0ttBtFktb1wDKBegtyYh5QY+EciPvqJO9VFFfttk0BqfK6ONCa9/qeg71Na2fE+i3ALb1WfWyAJ+djISSBSsAYmnrEgB/8ZnhNxBwaxsZfyr0QS6Wtp4FcJgiR/p1ImJ2u207Epp8oFYY8nK7xRw5axfaUHABfxX3sTfY+4FxiAscTMAeOQwQDoC5zJijaZizrth4NcifxL43QCznktIWawFAwxQWY4PcXXqywz7WaF0OdacXnkxGzJ8W8jg4fh731fvY5xHjN/BfrhlPr5P2TADE09bvGLjaX4oLd4KMPyTD9Bl6AfGMPY6Z71H0+AXJiFnVbQGQtp4gQO3AQ1SdDBsPFUp71jJry9L2Pkw0HuDTNzGrV0ULAU+4RLM2lOtPziZyCkYkZ+yTwaw6a9vjyYh5XPc0LFMsYy8EoCRDHzOdnqowHkAvYHwTb2uw8zsw/xw+WpFmxhWpCvNPXpTliQCINVpXgfB737Q84UUX7vl+Ssjg1SzRWm9/rCxQaNg3WW6+0WX/aLAOgab4mlbCi8mweWhBtGMjb23BngLiWP53OfNyYkrYrjF15kj6ohDsG0tbTwM4QqnVgMM7Nh92iUlp6wAXeFlRtdauLzG2L8TVnR+cfCxqDWu2fgsTjvRPiMJ1iYh5mepy1G4CZKZYo3WDj4L/CmKamAybh/a24A8AdYNoI4MeVlaAS5O7M4uFjpsUv7rtwj2/EGYs8Uar1iJ7UXuf8sMRJxrMhCt13V4aS1s3T2jkHYNuZ5fciwHYigf462uZuzz+MvNkdZWiB3tb8AfaLx9KVJhHMdFxAC/xxSoAcGksbSn/XK5UAESbnKkgXOQDe7YycI1ZalQkKoyZ6MVoGit8fz4t2swDu/KLZRlrgurb/oipLsiCb1yG+0fT1o2Gay9jwpXw5x0ZfQGcr5PdFM9YfxuX4f5BtXe7r9DdiovZdWmTc0ZXflCziAcw0UnKeq/LvXpsTIWNx81Ss4ra91e0+aBKl0TTltKr0JUJgHja+p3yHd2dU9ovEJyqVMT8fa6S1QSZxAjjJQY1K3p8CVlWp68mjTZzMQNXKX7ldZqpXx3U9opm7GNDbM0n4EIARQGocjEzfmmy3RBvtCcE4U70TQ8c+pUA1qid5rnXTMlwp9vUsq3xAPooqsySVMR4rbePj3WDaGMibF7BujMGwEs+iF8XxhqtywMlAOIZe5wHA/vm2MiEy4aEjcMTkeLFEDo8ipjA9yl8fqeXKDXLngKQ6vuyr1Z5HasqJi3gofG09TwxP+bzbGbfN3DtwMQzYhn7Wb/fib4pOjYGK96IRcO6lByIaJKymjDNUHGpV2BXA0YUZ5Jh4xAC/xzAujx3pj/G09loIARArME6hJkTyGOaYQaedXRjZCpsXldL5Io7f8s+ujOj3UxKjD92Uia7Wydm/wO5PW+3yp6zuJSMqUFrn3jGPs417HcZKIRNiz/RHfuDWMY+OWgVX28ZNwGkNCMeM13RmWRM0cbsngB2VVUP23Xug/CdyVIiEqpjx94ZQD4vfSMG1cUyVs43puZUAMQy2d2h4Z8AQnky1FpmrkmFjSNnjqBl4sHfr24B/FvV8x1om5+pZO1LAWylWDlfmqvc615QO4eNeNq6lpkfBbBlAbncADA/GEtbN1fXcygolZ5dRVkm/EZxMVtbjv2rzcciTdnmPyK8PnNkcVpGxu8ZL0eWLEmGjcMJfE4eVwNMMB6MprM5FYE5EwCTM7wTXPoX8nSjHwHvaJqzR6oidLcsZXVm5sEJdXKVz6xZxd/7rTLewIOIoHZXPuONZLn+cFDaI9rMA5fsaL/QsSpCBehyBOD8UtN+Jkjph1NhYzaAVxUX88vJGd7p+/7j+HncF+DTFI4F02VE7NRqwJ2sO3sAeD9PtegP0JPxBh7kKwFQzaw7sGeAsH1+1kd41roSY/8gX2DhNX1s836FanZAdoPzvbuVXXKuhrLNTO1FMPjCoAjBaDNvT5Y9h4ADeoHrHWQ59muBOi5IfCEAlZ8SSxx2vjcFsdnHOg3qTn6sK7HM2RA6JwhHFGdKydgLwC15UtE7sGbfV82ckyyfOREA/Zrsq8E4JA/2WAum0xIVoQm98fxqT7i9itYz04Oqnq+1b575DrFM2ygijioesO9JVYTeDkI7xNOtw8lyXoXC77s+ZLRO1msTFrZGglDZZDj0LpgVfyPnSfGG1opNq1mqUdhZ7ru9itbLiNh5poapLRkxL2CmEwn4Kg9VOLBf2v6dLwRANG0dxozL8mCEebpr75qsMP4uLtnd1nenKRvOGPvGMtndv/sftD9DzSUmX9MCMn8bBPNPzvBODG0OwOW9z/lomK7rc6ILW4YFobYOzMsAqLxDwmBN/9N3BXN2dwJ+pKpQV3PvhtC91YAK41HAGQvCh16XzYTfxRqsHk+6eyQAJi/m7YgxEx5fK0yMp7NkHDCtsqRZ3LAHDhwOvaXSeQna2d/83xMbrH0BHKfYN65PltNyv9u+ppG3dth+zoNjkH5mEOnmc+ObeFu/V3RmBa0EcKPiYk6MZrJ7/a+Q1qYoLO+9GeWhd2Qk7D6JSPHikqyxD4DHvJ6+QcN9NQt4h/wIAGZybfter7/7E+GGdRHjmN5wPak3UpIVrgLwGd/MDKhp+LPad8HHxbbxV98H/1XcxyL7MQCV4oBcbrj2E+fWc6nfa0qucT2AT5UOb0z/7SMTFvJWBD5VmeVJXd/vTdxeRevXh42fMZSnNP8222UNO9WTZFvdFgCxtDPB43PKNjGflwibFxfS7WP5RrPMewC0Knp8X822ogDQcYZ1f7Uvw1f7/nsmM1nr7PsA7C3e91/23GjaKd/P9ippHZivUVzMQRMbrUMBQNftSQBKFJXTkg2Z94vr5YbZRE4qYl4E5rMAWJ6JUuDwaMY53VMBMC7D/Zn4zx7aN8tM1YmK0G3iarllehV9CfA/1MU77Re1zBpYbWZIIqTNNabvZzSxJutCEI4Xz/vOQHZSNJ2d4vd6muvMu1QnB9IIf65m1hl0tkIl+uB9Q+kr8bzckqwITWOmExROqr7bd5j/1t2jtd0SACE4fyRgB4/ebyMRjm3fcCEocSCNFAZOLl/W5P4OwI+VTqxBV9SNJcvPdo42ZvcE07Xicd8nAuhv3/4G7jfqxpLFjN8pLmbPfmn7dwQuUxc0SJb/FZGqMJ4kDUcDWO9Rx9k+69i13RTeXRzEFraNIV17F4DhwattgIvjkpXmi+JWKqMnUyxjNwIIKxrY1zCUJn95Oxk2fuznc//xBu7HmvUBQMPE4X7QWxaXWPouvv6Uw0zxjP02A3uoE7RYS+rO/jcmw8ZISZimlklp6wAXeAJAPw+Kc4h5j0RFaJ66FQBmIl27y6Pgv44Ih0nw92LMJQagbjOg2uAPJvza74MZk32VBP9OWWr4RtP+vd/7i8Nq77EglVc+E98lwV890yPmK66LozxaCdCZ6NaubgjskgCIpp3j4c3mJQuE6kTYfFPcyBscx5gOD79b5ZAnU2HzJV/PBJraRoNwnnhZp4PfRfHG7C5+ruOMCvMFBp4NoHk3allzhniZR35Sab5OTKcAsD0obr9ok3OMMgFA4F958BIM8M+TYfMZcR/vmDmSvgA4aEmVXMd1L/d1DZnJdbVbAZjiZZ3G6M5sxmt04sugNkWwitWL+9o3/gpekagwngJRDKpuYP1m8zJfoUQARDPWQSDs44G9fpeMhJLiNt6jMW4PVo151szKog/8XMNo2jkVwIHiXd2azfj6CuHp4dB7DA7YUTr3DnEt70mGjXtAqPWgqB/HG639ci4ACPi1+qk/35uMmH8Ud8nTgFYR+g+AtwNS3SzBvdrvs3/S+DfiWT2Yzfh8FQCO81sAwbhymvFGMhx6VzwrXyLAvBoeCEamzu9P6ZQAmNDQtjMYRyqud8Yi81xxkzwPuuBArAIwcHsiUrzYz3WMNTnHgTFGvKrb7NLVb5pekxpZsgTAXYHo2xrdLi6VX0osswZAg+JifjqpqW10zgSAQXQJ1N5R3krM1ZLeN//0JfN+AJ/5vJobDMPw/3l65kvFo3psQ99f7MSm8WcAG31ezc/6Qn9IHCq/3F5F6zXiM6B21YgcV784JwKgejmXMNGJimedF3X1/KKghqlhamMg1eP5uVqHuWXacPrE37N/ax9Iut8cNDV+FM9YvrZjqow+ZsDvWUrrpoapTTwq/0wPh94D8yWKY+rPos1c3GMB0LfFOQqAsos6iPB6ImzeJW7hH3TbuA2A0xP3U8gaLev/C3/g0gTxpFwtAtB43ze3Y1wHwK8rmI5mG3Ltr49IRszbwHhDYRH9yXaO6LEA0OBWK6ykDZd/IUkpfKZQR9FSAL48hsmEG/1+jCnazMUEPkU8KWetfuqUDBf5uYYzR9IXDNzsx7oR4fGOPi34p1GYXfdsKMwPwLz52K1tbiBj0NHq+jWmytK/b2ddflzS/MKCcaPvjWc7xzKwhXhRzthyHTs/9X0tTeMGAnx3wY4buOO9vYPUyKIPAXVtQ6DjqpdzSbcFgJZ1joK6lJSrTcO4StzAp84Z0Z+C+t2qXZ39/yUIG0U15mrxoBzbVO1KZG76TBmtZuAGn1WrPhU2nhcP8ulEyzSuBLBG0eP7lbY6h3dbADC5yq4tJcLtdSNojbiATyFiJp7qoxp94mw0bvV/j2Zi4GBxoBybFXSI73MCACixjJvgo1M0zHyzfGL1uWhk3KGu/XFC9wUAtAMU1avVNYyp0vz+JtTXTAH4wid65NpZu9AGv9ssnrZ2BrC1eE/O2XbSomyV3yvZcYvh9T6pzmcb+pj3iOv4G8M0bgLQomTcBPbrlgCIN/AgdfdR04xUGX0sTe9v6gbRRlJ4S2AXWLWuOBgnRVjDIeI5anBdCoRt2TRuBbAy7/UA7pw9mFrEc/zNtOH0CREpEmpcPnkxb9dlAeBqzl7KZnPMokoDgkbGrQCszQw0amf/4GsCM5Ax7S9eoyqg0QFBqGeqjFrBnO9EVW0h25C8/4Hxbb5XmXB2nB93WQCAeIyaF8VHQyLGG9LkAVGnYVoB8EM/HKCVdo3l6ywzESCTjRavUSUEURWUunLInJbfVQB+oG4UfSReEwyGlhuvMqCkvVyXR3dZABB4pJIZJeihWiJXmjw4uBr+lrdBn3Hd7CrKBsFONXPZBDBMPEYZIzpsHIhVACLOW8IqBm4SdwkOtUSuxvSIkjGUuKrrKwBMFUqCCeNpae5gMaM89A4RXs/DKPbxuj7Bmf1n+2VHADDFY5RhZrdoC4zAcg3zTlWzuh8e8fFiKhJ6X9wlYGiqkq9RZdcFADBIyZAe0mX5P4gweZ6AhzS+LkibmEjTK8RRlEfVyqBUNVVGrRpwY2/oq0LPMVxFsZG/P5ZvUgB0LLMpOMrEK1JltFqaOnisC+uPAuTl9bufF2fNaYEyErvbi6coFlmuu12Q6mu1GLfD27wAmaFh/UnxlOBRV0GfK1kxImxbO4eNTgsAuxTboJNXBXetIpSRZg4ms4kcItfL3A1/6ThTHaTw1E88RbHGAvUPUn1n7UIbwN6tAhDzzbLHKsACF2hU8FhtybBNT+g3GeTJaOuj5O1cXiVNHFw6ZuReXMTzRYllBC5/ObG6WzOF/45YgRNZWc24zaN+85nRz0yKkwRa4iqJkZq16Zj+PbN8KlbyapomqX8DzO1VtN6je89vDN7sP5jBKYAzpMDZ+N4wrWXCLR4UdUvdINooXhLg8A9NyV0nTJuO6dqmJ+oUUjNDYluaONjYhnEvmBV2ALBmGIFMFMVMJeIhqo1MfYJY7T5kJKA0ZxbDcYwHxUGCLnC5TdGTOy8ANOKsmr5LhjRxsDFtezyIFHYAkGvb4wPZeYkl7apyI3MgZ7itjj0JSnNmETTDPl0cJOgrAFSk6MmtnRYANisayNgdKE0cXOIN3A/AOR4UdWFHWcHCxTrxEtUDZPBsPC7D/UE4X702wnk1q7iPeEmQVwDcAWp8owsCQHeK1NxMRLSDNHGAB1/dmgxgSw+K2srV7XMDZx/CevESEVnfJsT2FAa28KCora11VlycJNASYJCSbmMWbey0ABjyET4FkPujJMxhaeBgUs2sM2tTPOsGjEvOreeA7apnWQFQPkPitUGq7/h53BfABd6JUO2X1cy6eEpQZ1lQkUzM2TBs07koNikAag8mG0qSV9BOk+p5S2nl4NG3yfmZuuuhNz2b2WjYNYEKTqTJ5SvKjawF6hpxvY99HoBtPBRIZaVNzjHiKMEjluFtQMh9MjHGZ7OJnE4LgA5UnEck13T2kaYO4LjLfJH3sz38qno5B2dnvWM3iqeoRdPshqDUtWYV9yHGL72fRXrfV4WcDCBKYiPR999K+UO3AaoZzAhHSEMHi3hDdiyAvb1XHdi+b4s1OSh2MtYXLQZgiccoIzt4edGSwFR2nX02gG3zUPSB0cbsnuIuAZtkuThciR78gVj+vQKAiRYqeUuXT5ZvVEGbduHivHUK0K+nZLgoCGaqG0sWEZrFYZSxqOPzpO+JNnMxCJfkr8tiirhLcKhl1lziE5UIAKb6rgsApvnKZnVpWz4DBIRYEw9m0Ml5rMJO62BNCoq9mFEvXqPItsCCwMzmLKuGgLydemKiU+MNPEi8JhgsabIPUOUvmvb9sfx7BYDm6m8p6xxEZ0qTB2TQde0pAPKbwInpt0HZC0DEr4jXKHOEl4NQy3ZfpUvzXI0Qa8E7SttrcdXFRE3X/91lAZCopFUMUrScyRNrFrDkBPA5Nau4DwHKZt+dzYtKwA6lrdbZQbCZ7fCL4jmqdGAwbFvaYk8B4IfZ9zkdxxAFHxNt5u2JeJyix2emDadPuiwAOlCluIuyun2+NL3Pg9k6KwaFiX+6lBeV6bIg5AWYWRH6EMCn4j0559MZ5SHffwLoyGD5K59UZ0uzxBonruNvyLIvAlCs6Omv/eDqwA/+lPCospcmnBNt5oHS/H6dbjExkZ82Em3bYtj+39hExGB+SRwo5w75AojY97XU7YuATd+9npf6gH5Zy6yJ//h29j8QgLLVTSY80m0BUAr9aQCqMm8NIMuuFRfwJ7GM81NASVaqniwZXFKziAf43niaNls8KNd6VPP9TXdnLOUtwPDbGfyKpU32YeJBPp0v2M41APorevxaGPpz3RYAU8PUBvATCt//vGg6u6u4gQ8dk/kXPqzWlrZt+z7Jyfqs/hiAL8SLcsaX/TT9Kb9XsqjNvhjAQP+pJ8hmQF9OsrK7g1nd5WrEj6bKqLXbAqBDeauczejEdBuYSdzBP0zMtI5gUpOUosdjGeHiWIa38bP9ZldRlkGyCpCzcYweaJ+M+JeaRt4agF/3NR0zuaGlTDzJP9Qya2C6FYC6nDidiN2b/zYU0p+Gyis4CfvE0tYvxCX8gw793E75Rn4oZdf+pd9tqBHPFE/KDa7mzvJ7HS3NvgyAX6+w1mwyasST/MOyJut8qM2uuqaUfnj5vz38dmapIp1NATRRYWVbNeJ9podD74lr5Jfq5VxS2mKvgDfX/naXDbphjPih4y1+INZovQ6CJL3qGf9ORsy9fD37X8A7WIbdBKCPj6v5OZvG4M0tCQvqiTdkx7JGrwMIqSuFEsmIsdkj3J2a5bHDf0Pnj213h2KXtQfHZbi/uEd+6dtqne7z4A8AfR3bvtzvtmSNrhWP6uHUFXSN72f/pvMbnwd/ANgatlMtHpVfzq3nUuh0r9rgD3bJuaFz/asTpEYWfcjAk4qHy/Iitu4SF8nzgMsUlA1D58TTrcP9XMFUuf4EgHfFq7rN+9PD+pN+ruDkhpYyMAdieZ2YZTNgXmcETK2mnWBGRHFJj88IF3UqJXnnv/MyrlNuH9Bp0Yx1pXhKfohmsnsxsEdAqhti1q7y94hLzCSrAD0YD67x+9l/V9P/pHg2l0v26rjZU8gDsYx9NQPqV2G0zsfqTguAVIX5KhFeV69SURvNZEWp5mP27wbsuBDRGfHG7C4+XwV4CIw54l1dDf54JRXWH/H3gJ7dnUGnBsqumnaOeFceJleN2bMA/NaLfpMsN9/IuQDoGHGv92RcZ7ollrGPF7fxjppG3pqJgvaNUAN8PsMmYldzpwCwxMs6TdaAe7bvM/8xXYcuZrT2QaVPn7CQtxIX845JafunRHS7hz7ZlQG08yTK9ce9WAUAoIP5nnijtZ+4jzfYmj0ZyvJRq/R3HBlrsA7xcx07vsfdLF7WyTZl3DAtUrTQ1zO6tHUYgJ8E0LwlmmZPFC/zKvhbB7jgB+HNjaqvpiJdS5jVtRUAIiZyzwZge/AypUx4Jp62fiJupHzEJWZSdusfCKsVy8Xr/J5MqsQyrgJosTjbZp2lyWk1/uD3/kKA0pUnAtYoezahRpKvqSeWsQ50gX/BmxMiNjFP6eqqWZeTvUwvL5oP4HaPbNiHgSfiGfs4cSd1TEzbhwBcrur5LuNvagdkjI03+fuI0+1VtJ5c91QAbeJx30sbyD111i60wc+VjDc5ZwDYXWkhrtI+UxFN27K6qpBok3UkGE8B8OQGUyLckqgIzevq77qV7S1Lxu8ArPLIlkXMPDveaJ8obqVoAk08WeHjMzPCxh8BvKV2UoY/V9ezr3djJypDcwH+tXjc97Qh8S+T4ZCvj01W13OIGWpPnzDeSFQYfyBCWlnA0JT2+V7NpLT9U3LxCIASbzoOPjY04+ru/LRbAuDeMK0F0aUe2jTExLOj6ewUca/cMmEhb8WgE9T5Jk8FETPwe8W9YHjfkOX7QS0ZNqcC+Id43ncU3IOpcOh2v1ezr2mdA/AIxQP670DEcFGnUG1Vn7GUtxDHy/HMvzF7lgt+BJ7up6IL60ZQtz4ZdTvfe7Jcv5eBZz2dqIJuiaWtm6uZdXG13GAY1niFzrohpJszASAVMZ8D8LLSbsD0+3PrudTXBidis9QYD8Yb4n1fxzv8x241436v57gM9yfQFYqNMSdZab4IAGQbSQAtikoqKW61zhDvyw3VzHo8bd9CRHUATO/GEzyVrDD+3t2fd//CFyJ2NGM8Ax95bOvz+2bsJwNxL3wgJl6kcNZM935TmRLhcqhNKb1dq2Ff4neb1w2ijY5rHAdgoXggFuiWcZTfv/sDQIjtXwNQeRMlg/i/Ka6nV9GXAN2vbhGAzhL36znxBu5XmrEfZbDXK9SfsGH0SDj36Ma3WeX0Kbk4E4Dr6SQKONxy7NcmNbWWi/v1wHEz1t4AqlQ933Gd2775vxNh800AjyoVNIRfT1jEQ/xu+5kj6QudjMMBXtaLXXClZhtHtwc6fzM5wzsBuEjxuPZQMhL69/8M0OTeqrDIXSQzYM+ILmoNs2a/CeAYj4t2mHBaqow+zpsAAIBkpfkiA3/Mg+1Hu67+bixtny5u6MfZP16bWVn0wXfLdH8DtcdIS3TXuiYI9p8WphW66xwEINPrfA/U7DjOIdNH0dIg1Ndh6zqoPc5l247znUxxHTek/ltZO2iarAJ0dwKVtk8iR/+PyknUD6jFq1Nh86WePiYnd74PCxu1BLyQhzboB/B98cbszJpV3EdcsvO0fytndUfniDZ5sVOqoqgBoITa6ELjo43ZPQMhAipLmtk0DgDQe67CJnzosr7/zJHF6SBUN5bO/hggxRMNuvv77cEKL0njM+IN3E9GxC7M+pu5OJa2bmbwQwAG5qEKL68vN3Iy6c6JAKglcuEaE+Dd0cBvjfc03lpvvxFvaK0Q9+wcLaY1rl1AKWG12Vf/3p3upq3XAlD5zZeI6OagJDtJldHHpm4c3BvuDCDghSyM/WZW0MoA1fqvUJvyd4Np69+7amW3mA8CWKuo7FJXt+Sa4M4G/8a2SrLt/wA4P09VWGnaxumziRzfCAAASFTSKgb/VKGjbo5dWNPnRjPZcyXLVacGtZjC8HtP3SDa+H3/uW4UfUSkPDXu3rEm56SgtEbdCFozdJVxOLWfMXcL0OEYwC3GWuOoe8O0NiiVjmfsUwCoTppzY90o+t7N1O0bJNVtBiRXYRbQAqGWWYums1OItLlgjMlTNdY4rnv0D/lKNwR5jjtMk3Uwu3gKQFHeQhvhdVdzYqkRxRlx3e8yYWFrRNf1RnUjPe+WioTe/0E/aeB+rNlNALZVVw9q7kf6yKlhClT2vVjaPgbgFIBCubTlCw00cXrE+FeQKl1dz6FS01mg+Nz/51kyRmxOFMUbsmNZo7fViQCnMlFZ3AjhO0xuaClzyJgOwsF5rIbFwE87jlPnDC3XtUyUm3M6Zpd5u8mLGfuSo8+LZqxLa5k1ceH/xTB0lZeBvL254A8AiUpaB2LF+dS5bAPb5wetfZIR4wlHN3b3OM+GKp6BZuwWtOAPAP1C9i+VJ/0BX9OZFZH2LJLq9okw6ZIT4LuBhOLpbI2jGR/kOfgzMU3OdfBXIgA6BrD7mdXffbwZSohx7dKM/eKEha0R8eZ2apk1Zj5TYdCd1tm/XZ81b1N9QQ4Dv4s28/ZBa6eZI2hZKmIewUTHBfSo4CpimpiMmEcmy2l50Cofy/A2zLhM8bi+pJTMTm/wI+bpCusyUT6d/j/RxrbKWMZ+hUF3waN8/j/AZYkKY6aKByubHacqzD/BH1egHqjr+gexjPWn8fO4b2937Oa0fTBAqs7Jb2gj84HO/vHsKsoyoVb1RI4s5/dBba9U2Hi8xDKrGPgL1GWFyyUtAK4vsYwKVYOWN3Mu5xoASpONMbQruvJ5yjDMewBsVKPcaeikjL1/bx8fz63n0ljauo5Imwf1ez860Sy4IRkxr1f1fKXL48mIeSEAP1ztWQTG5UaJnY432hN6s4NrxOMVuuvfu7rBa1i5fi+A9xWP5mdNzLRVBbXNbq+i9amI+WuQMbRjk+AaH1ZzPYBbyDXKkxHz0turaH1Q7d3uK6x6Y9x7w8L6A135Qd0IWgPih1RVyAVNRC8mmrGPbTGtegC/BuCHi8WuT4TNi5UKDG8Ma11KrPb+7C7ykqa5UzquNu41jJ/HfY0S+yMoOv5HhH06sv11iY6Noy+qldJ4MRk2Dy2EdpxUz1u6Ifs8ME9SuJrTSW3FS6FRQssatwYho19niKWtpwEcoXjgPSwRMZ/v8ljaaO1PhFcUVWutWWrs8EMneAqRjk3Rt6hu8y76x3WJiHmZB+V41qmu8MlqwNdYxHS3ZupXTxtOn/QShTuemFUty9YnI+boHvjHYwCOVevtVJ0MGw8VSnvWMmvL0vY+TKgGMA7enRpYS8z/BNHMIWHjxVqigjm2GMvYJ4N5tlrRhH8mK8wTetBXFgKoVFM1GpeKGPf1hvGwZgHvYBnO7wCeDC8v8Nn8ROryRNj0ZMLs6aaPeKN1MRP+4nW5m2EDAbcauvHn7l6pGKCZzXMAfqLEkRiXJCrMv3X39xMzrSM01hdA6dIbL7dbzJFBuHimq1Qv55I+G+19dA2HMOMQAGMBGDl6vA3gbQAvuow5FDJeT5VRayHasLTFWgDQMJUTD8dxRvckC6LKFVViPJ2oMI8q5HHw3Hou3Riyf0GMK6AuGVo39RdfnAyHbvRwpcHrIJSNAXQn/PGN5Zt8xuA/brDMO2ZXUbbQnH5CI++ok70UgIqrlB3TNgb3NEFFLG3dDMUZthi4JhUxf48CJ97A/Vi3d2eXI0QU6ZgxlgPoj/Zdzf2/PatH+3f8tWi/m6CRmdM6USO7xnuJSlpX6DaLpa1rALWnlxi4KRUxL+ph2w5izV6mqC+7DhtDgpWpsXNMyXDROtf+BRF+A//l2GgjphqvN87mZSYey1gHgvEwfJnohJcAuNpca95TN5asQnF+pfswCE8lw+bRPRYpC3krQ7czDGyh0BStBKcqESlejF7O11dqF/rKV2foWIGaD6BYYTFfapYRzsVeiVjaehbAYYpWAXq0muc3qus5VGpYE0D4Xd73zGyaz4lxYqLCfM3rgvOSJCcZNl92yfkxfHkfOg0DKGH1t5qi6ewF1cu5pBA6ATFOUyaZXMqJap05kr4A8dWKTVHMrN8AAXUjaI0E/46BkPUbFQd/MPjqnG2UJFI3UyQUxA2r1fUcijfaE0pNZwGI7vZp8M84jrNvPoJ/3lYAvuaMpbxFcZs9mwE/787+lBh3tGnGDUHKYf4/s//GtkoiTZXYyunO4Zq5bNoD7PnMUJq8iZiOTlQYT0noE+IZ63BmPKN4qF203tJH5erzouoTPaw7kaCmUh8/j/vqJdZkAv0KwI4+rupzbBqnpMpodd6Ebz7f/r6h9JWx1jgKoDt83EjbMuHKENtNsUbr8mgzDwzc7Aaastk/iB7M5bGhurFkMejXqm3ChFumZLgIQq+mup5DzLhF+UyL8Mtc7i2atQttYNDDyurr6KcGrS3PWMpbxNLWFUaJvYRAN/k5+BNo6tCVxtH5DP55FwBfD/jJiHEug04CsNrH/rUNCH8iy14eS9t3RRvbKoPSMZhwirJnu7k/VpgMG/8E8Lxiq5QH8Z4AIbe05/uH6mvEX0qEjcdyHkRcnqUyngalDSdmWkfE0tbNRW32crQfNd/ax9Vdy0ynJyLG+bUHk51/IeIjogtbhpFuPADgxwHwOxfAi0x0SypsPO7XSkbT2V0JpOgSEV6SDJvDQZTzi5/ijdldmOgdqNnp/DXryDUqE5W0SkJh76PjZEwD1OZ6d12NfzSjPPRO7rsfUzTjLCJwmZKKkzt6Rrio3q/tF2+09gPhfAZ+pnicyBXvappz6vTy4ia/VMhXN+WlRpYsKSXjQCa6LQCNqQH4CTE/Fktb70Qz9vjqeg75rpZMypbyiGmGiuAPAImK0DyAZqieALJm/VVCYe9Eh3UDlF/0QiklwR8AiJjAypL2aKzw02E3mZLhong6G42lrfeZ8CoD1QEI/gzg5vWWsbefgr/vVgD+R92l7ZO4/Wa5gQEaUz5jIAXdudsXG2iYKZZxmgAeruLpLjnhGeHiRaqqP3kxb+fYdiOUX8qCw1VctSn4l1jGOgKMpxUXs0Y3jAqVmUbjDa0VrOkNih6fSUZMX9ykOmFha0Q39BowJsLfS/zfDrBfuUzxVIXxqE/r519qFvAOlm7fAcLxQRtgCHgH4Lp1Jeas2YMpL7e4RTPZvYjpTUWPfysZMfdWP1BnLwKT4mN71MSmPqYQs9sJm55FboD9geqTJgy+MBUJKb8RNZ625jKwh4pnuxqPVbaCsRmq6znUN+QcT8w1aD8pFqzriglP6TBqpoVphV+rqPnZfnWj6KP2nNkch783CG5qVrkHg+4qbbGXRtPW9dFFrWHvK6Fw+Z/47168wtAV5lQQPlRsqHIta18GoVewnu3fqg7+ABaE1pq3e/RKyvoiueT5aYDootZwNG1dX2raK4j5QbSnLw9M8CfgK2KamAybR/s5+CNIRo028/aabd/BjBOCOvAQ8I4LnkVk3pcM02cqy6pl1pZm7KUAdlIxMfAyXWiswToEGl5QXEyb4zg79yRHu+B/OpbM5wFQegSUNBySKDfnePFOExbxEN2xlygZz5mXJiNmmaq9Pt8Y3wdqWec4br+uPHiz/f/nSZ2Mn/s98AdOAPzXUTJ2NTHfAV+mEe40WQDPEtPsdX302So+EcQz1t7MeENR/V9KRsyDvTRYLG3NBnCy4mJeToaNg1UPdkIeBUDael554jHivyfDIU830MUz1mvM2FfNKgDvmagMzc31c6dkuGgdnMM1161mopMBBDnr6moCX5qIhOqCVGktaFZOhY3ZbBqjiXkW2ndXBpEQgGOYeEZpi70ilrZvjzVZ+4A5Z4LMZZyoTjV6s/z/v55q/BKA6lv8DoxmnIJIgypscvIw3oOsoxs1y7zU63dzWWGf1Cl3YwkzxRut/WJp+84NbH9EzI8x0fgAB39mUMrWjIqgBf9ArgD8T4duzO4JolsJ+FGBjFErAPyDGLOHRIw3enLPejxjNSr6zmnbmrHjrHL6NA+zt98xoPqugE/YNCrznaFLyC01i3hA1rEXErCD4mhwRarC/JPnY2Ezb0+WvQIKjsQRIZ0Im91OllTLrC1L2/uAcAyDqhWdSsoH77suzptRab4e1BegoLdAu3M5ZzLx3xCg4yGd4DNiftrVtNnDVuhPdSVr1ISGtp11TZunqF7PJCPmkfkwyJQMF61n+0MASjdUMtFtqbBxnoTNwiGWtu8E+OeKh9NFbOqj83WaJJaxXgDjEDXCxh2Zqijq9HHDr4M+E6oBnAR/5+TvKqsZXLshbN46m8gJ8otQwXTwDG8Ddq4FOIoAftrYDKtA9A/X5UeL1hmvbO6a4mjGupIYtYrCYzwZCSXz18728WB+VHExLhPvmwqH3pLQGXyijdk9iegt1eOCBjpmesT4V77eM57O1jDoLjXdHr9JVph//qE/qa7nUD/TPsAlOgHMP1O92pIHXBAlTFe/vK6CPi+EF6JC6+yTmtpGs6v9viNDVCGyAcAcAj/umuZjqTL6+LuzHes9ALsqKLuNTWP7fC+Pxxutp5igehXivaErjR/5IV+30H1q5rKZ7W/PJWBnleUw8K9UxDwmn+86YSFvpev2RwBMBY9/Oxkxv/OpdVI9b+mEnEM11z2WiY5FsBK3dYXnQXxpMhx6t5Beigq1409ssPbVdVynamesT3AIeB+MJxydH59RHnpnckNLmaMZixWV93gyYh6X75eesLA1ouv6B1B9lItweSJsXithNLjE0tYVaL8gRiWtmuaM8UOa11jGehKMo5RoHM0Ymiyn5fF063AX2rEEOgbAgYoEh194Gy4uS1aaLxbiy1FB935mijc51cz8Byj+buyT5lxExB8rEz1M0WSFMcMPbxprtK4C4feKi2ljdnftyrdPwT90CMV5AIoVj6JXJsPm1f7oF9nJILpb0TLHayAaVECb+H6IRhD9NlmuP1zIx4K1gm5CIk6EjQfNtUYVgc9h4KPC9lkeoXDFwzGh/8svb1qqGX8C0Ki4mCIi7c5cHs8UvKGWWdN1fZry4A9k2DCu98t727r5GAA1G9MI+/WC4L+SwD8futIYnQwbDxV6TpBeNbBFm7lYy1qTmPBrgIbIMNklT3kxGTYP9VOV4hnrcGY8o/7V+edBPOPbm4lmsucSq79V1GX8ZEaF+YKf3j2Wtl4BsL94QVfmTrwUGq4rhZmYGqa23vLaWm9q41QZtSYqQreZa81yYppIBEn72tkg6PI//FanRNh8lsAPKB8bQH+ZnOGdxAuCQbyBBxHTHz0IGvf4Lfi3d1Z+RLyg0327mcEXlmpmRTIcuqM3Bf9eJwC+pm4sWYkKY+aQcmMkE50CYKF0hc0Mde1Li77DNc2LoP6iqP4O23eIGwTEWcm+Hep3o68xHfPXvnx/23kEwc2S6hULiGnisJV6JBUJ3dzbAn+vFgBfU0vkpsLG7KFhYzQTncLAf6RfbGpARcZ00OLHuqXK6GMw/86Doo6JZeyTxRv8TSxtn+7F9eEEvqxuFPlyTxEZxRsAahZv2CRvEejkoWFjTKLCmNnbj/nK5qZvMbEpu4fu4AImOh2AIRb5hhAAPtKA11zw6xrTO301420/KOeOmw9fB7CXYgN83FZsjLpvKH0l3uA/Os7BLwCwreKi3h4aNvbqSarunPn+HDaad8pW6K6+BxP2BXg/ACNlbP8fXABPui6uDXLaXhEAHjJpAQ91Dfs8AGcBGCAW2SQbifAemN4F3Hdtl98d/lFoQT5U9cSm7B6aS/+Gglzo3+oyiWTEmCRN78PZf2N2FojOVFyMoxHvOT0ces/r96uZy6bdzxrFhN1B2u4E3o0ZuwHoI62/SVYzcLerG7fOHEHLxBwiALpMvIH7uZoVJWjnA1wuFtksrQA+BOhdgvsuXLzbVzc/9GKlIJ62b2HwFNULIUQ4MhE2n5Wm9g/RRvtoIlZ/TJVxY7LC/KXy92nmYmStMUTYHdB2B/HuYIyB4uRXnTOB3wMHNYHdm0tsM3V7Fa2X3iECoMfUMmvLmuyfuIwaAo6Dr7Jf+b5LWiA0gHk+mD4kjerB9vxEuKg5l+dsx2W4f4jthQAGKbb3clM3x9SNoDXSM/LPGUt5i6I2+0Oov3BmBbnGqEQlrcudKzHFM21lIGO06/JojXgMg0YDqIR8guzaGAP8k4G6YWHjBT98nhEBUKizjWbeHlk7DqLJBC4Ti3Sb9QwsIKIPCG49mOa7pjF/U/cbdLptMvaxxOzBiQX5FOAX4o3ZmR13yquVfUwnpiqMR7v7+5oFvINt2FVMPIZdrYqId0b79/pSacVu98PFYJ7GISPZk3FDBIDQvVWBjH0IgBoGTkBh58T2klYAiwmoB7AY4MVgWgA25nVm9hVLWw8D+JkHAeGnqQrjSWmuPIpxrwQf8d+T4dBpm/uzKRkuWotsOUEfBfBwYhpOxFXMGA3ZS5QrHABzmKhuQ7n+j6BfySsCoADoUPdnMmF8x7c6QQ0rQEiDKUPMGZeoWSe32THM5q9vKexoi3oGtlBcl5VtRcYYORWQHyYs5K10zZ4PwvaKi/pCN4yqacPpEwCINvNA3bbKHNbKCDwcoHIwR0CIoLDuvfcVDHxAwCw2jXtkti8CwLfEG7O7QKMJLuP0ArwT28/O/BUDzQw0E6EUjCPUTwx5VqIiNEGsn4d+ls7ez6DT1DsWPQXmFgBlHf8GivU9YxWA+xzXnTWzsugDMYcIgMBQy6wtS9v7tH+f5NMB9BOrFOLMhE5KRYx/iCW8I5axjwfzo2KJgqSFgCdcolnDVuhP9fZkPSIACoBz67m0JeScAOZTABwOHxzn6Q2h2SMX/8zWjNGzyulTsbl6ahp5a4vs+QC2E2sUDK0AngXRbHuj/sisXWiDmEQEQEEyLsP9i+Acyy5Xg3AE1F9ZKqjuSIRPmPEqEX3FzF8x4UuN+SuXtK/Y5S81jb/SHeerjSXFq60hWCsbl/6XambdXIb+fVpaBzq6voXr0hak0ZYau1uAaEtmbEFEWzDzFgAOgPpsf4IHQZ8ITwP0UBv0x+8N01oxiQiAXkV7oiHnWAKfDOBIACVilV4z49kA0BqA14GxAYQNBKxm0HoQNhDzBhBWuwCDeaMGtDFgMWntyU2YV2sAg7DBIc6SxVlN5+/MnFyH3Wyf4i7lLAhtbB2g6aR991nUl00K6UwhMPq6AIFoIAAQu6UEmC5QBKI+5EIjwgCXqBSMvhq4LwMDwegLQl+A+gE8AEBfEcG9hhYATzHTbI31f+U0p4IgAiDInFvPpa0h52iX3eMIdBSALcUqgiAEnC/A/BRr2mPORv1JWd4XASBshmpmvc8ia1fdoWNBOIaBPcQqgiAEJLQsBvgJAh431hov140lS2wiAkDoJpMbWspcTT+MQccCOByMkLSeIAg+wSHCWy7wuMHuY9MiRQvFJCIABAXULOIBtuv8iZnPVVIAi2cIgtBpbjZ140q5GyN4aGKC4FE3gtaw6/YXWSgIQteUvZIBo78EfxEAgpcQDhAjCIKQf2XP+4ltRQAIHjE5wzsBNEQsIQiCDwjXLGBJeS4CQPACmx2Z/QuFD4sJgoJlOvuKFUQACN6wv5rH0hftx3cEwQfIXpRcG3QRA6vViDX5DCACQPCmGxMrUdsEnpaMGCNM3RhIwGHEuArAEwTIdbeCECw2EOF1ALcw0Sm2ZmyXjBjlxEgGa1IiiMYW/ssZS3mLojb7cxXijZl+mqownvz2/1/NrPdLW6OZsBeRtgeYd2dgDICQtIgg5J02AuYz6B2C+47t8lstFaH6Td03EW+0T2RiFTdXOqZubCWnAYKFISYIFqGssx/UrNy4uq2/tan/0DGQzOv4BwConcNG807ZCt3V92DiPYiwBzN2RXted0EQ1JAF0ETM77iEdzSmd9yQMTdZRq2dG/D1Vy3YKjJ96JZr7wXgGWkiEQCCIjTmfVXsjWJg/vQq+rKzf99xR3d9x7+ZX68U9GnKVhL03TXwrswYw8BoAmSHsCB0nVUMzCfChwC978J5b2N5qKEnN0nWVdDnsbTVCKBSwSCynwgAEQCCQpixv4oPNxrTaz19RsfA9LUomPX1/x9t5oHsWCN0R6ti4j0AjAKwM+RKV0EAgDUENIF5gUt4RwPVa4bx4bTh9ImKwojoVWauVPBo2QcQMGQPQIComcum1d9eAwVXBjPT6akK4wEv32dyhndyYFexiyoiioA5AkIEwI7S2kIBshKMNIjSzJwmDfU6jPppYVrhZSVijfZEEKcUPHrj0JXGgI7VQUFWAIRcYg2wxoCpRMWzSddf9/p9Oga+FfjWsuGUDBetRbacoI8CeDgxDSfiKmaMBjBAPEHwMa0AFlP7KthigBeDaQHYmJeopHW+mPWR/SpDV/HoPssHZysBzBc3EAEg5Hyajj0VPXhJspyW++U1p4apDf//KeF/Vw0W83a2Y5URa2XMXEYalRFzGYOGATwEgCmOIqjU4QAtA7iZiJrZ5WYGNRO5zbZmNs8qp0/9/gKJSPHiWNpaAWCnXD/bdWlPEQAiAAQl0l0bC879FkBivBoUE3R8F/0EwHdOLFQz6/0XYifHtMuIuQxMw5hoCMCDqH2wGwygnziS8AOsBbCCgRUArSLmZSBewkTNumU0rx2JFT3ZhOefyQS/AaJTcv9gbU9AWa4BQQRAb14B4LFqhAXeKATzdAzMSzv+vbSpv4k3cD/Ws4OZtR2JaRARD3FBgwi8E4BBALYDaBuAJcdBIWlnIMvAZx3icRWDVhB4JZiWE/FKDe7KkBVafnsVre8VQwnhNQJyLwCI9xRvC1S/EIJAzSruY62316gQbRrx7tPDoffEyv/PhEb7KJ34cUDNx1LBs0DnQMdRqeHmc2KN/yeWzv4YoLcUPDpbSkb/js94gs+RVMABwdpo7wo1Kzat+hpTvtl9i5kVxlNEuE4sEfABzsUfJPhvQhiZ5jy0JxXKNaF1rrWzWDgYyCeAoODyWEULNvPqxpIlBt5E51hj1Nr97SMY2MOD4mxiOs4N6e+x3dYXpA3UHSoBodjVYICpfe+C6w7UCMSEvgwKaYwQgL4MEEADN/UaBN7kvgdu/y2INh0IGLQOwCaOdPFqar+rb4NLyBI4S4wNLoOhaasBAMTrNBc2GK2Ozi1gdzUZRRvQ6uxJOj8Cb1ZW/j1klfEH8eTvkiqj1ljamg9gdwXTyj0BvC1WFgEg5EyyY08l8Z9IOur3UDeWrAkLW8/Qdf0dAKWq+6JLPB3A7jPCxYsK0Z7xBh7EOt/tUfBf65IzrvZgU86kf3/nfxvg3AsA1mQfQECQTwCB6au0mxpdgf+Icb+fmSOL08T0C0+aGNiBLPv+2jlccMK8dg4brNkPANjOm+5C5xaqkMqdjdy31fgx7ybWFQEg5Ijqeg4BCCtxAMcWAbAZEhXGTGKe5VFxBy3byb6q0Gy4dEf7z/AoVSwzTU+EjXvFc38Y22FVq3+VNXNZ8nGIABByQYmerYSaq3fXDKkoyoiFN4/Vap4DoNGbAIbLYxn7+EKxXSxtHwPgYo+Ky2isXyQeu3laKkL1ADYoeHSRNSAbFguLABBygKHrY9REGrxbS+SKhTfPrF1oA4jPAODF8SYCc2LSAh4adLvF063DAZ4Fb44ctxJztV9S7vqdjrwZSo7/sqvLSQARAEKOpoRjFLX+u2LczpMMh94F8eUeFbela9iP1qziPkG1V/VyLgH0BwEM9KI8Yr4kURGaJ57aFaVJSgQAEY8W64oAEHIyUYcaAeDSh2LdLoqAcvMmAI95VNyu2fVWXVBtVdpi3eHREUow8K9ExLxdPLSLQwC7qsaAMWJdEQBCboY3JZ3J1V1JANSNqY3JxiQAqzyaoY2LpbPnB81M8UbrYoAmelTcCtcxJoKIxUG7HAGUCAAGiQAQASD0lJpFPACgnRQ82inqYy4UC3edugr6HIQzAHh0KQz9LZqxDgqKfWIN1iFMuNarSSxpmDBzJH0hntmNQWCj+SGAnO8DIvCwcRnuLxYWASD0gDbLHg0FG6iIsKhuEG0UC3ePZNh8mRheZZkziPH3WBMP9rtdJi3godDwALxLMvb7RLk5Rzyye8zahTYAtESFai2CXSUWFgEg9KSBiEcqmTYx5Pt/DxkSMa4G8IxHxW0L1/5n+8Y6fxJt5mLXtB8CsI0nBRKeGho2/iye2EOY1XwGYK4U44oAEHo2VVdznpZEAPSUWiJXs4wzwLzUoyJ367fRusu3rmo5t4Mx1pvSeLnpGhPkGGsOLEn4IFBjlyACoBcRVtTrRQDkgOlV9CVrOA1qblbbRLPR+Hhj9hd+s0M0nb0A4JhHxVnQ6LS6CvpcPDAngVrJWECMcjGuCAChZzN1JZ1Ic+16MW5uSIVDbzHDq/wAYKIbYxnrQN8E/4x1EIH+4uGc9ZJkufmGeF5uMNhRchqIgYhYVwSA0O0exAQ1KtpZ5xQ1i4FzKAIixo0MPOxRcSYYD09qas37DGtyQ0sZMR4EYHrUJx5MRkK3iMfljhIKLYaaEy3lYCaxsAgAoRvEFmEnAAo2fdGS2VWUFQvn0qTEmmvE4NF9AQC2cl398WgzD8zXK4/LcH9HMx6DV5v+gExWM88SZ8stU8PUBuYVCh7dt2YhthcLiwAQuoNtK/n+T8xyAZACEpW0znHdUwB4dbyykiz7gWpm3et3rWbWTbbvA+BVytdWBp9yb5jWiqcpEbBKxgTHsGUjoAgAoXutw+EgdXYBmFlZ9AGYL/CwyCP6NdnXe/2e/TLOjQT81LP4BD4nFQm9Lx6mzMJKxgQmFgEgAkDoZqdU8o2X4TaJbdWRrAhNAyjpVXnM+GU8k53kVXmxdPbnDJ7iYT+oS0RCKfEslSZ21UwKWI4CigAQusswJX2dNVkBUB2UTf1cBv7jnQigO+JN1sGqy5mUtg4AyMtNeG+Vkn6+eJRi/4HWpOa5PESsKwJA6B47KhEAui0CQDGpMmoN2cYJDHzkUZEmu5it8mRAPN063G0/6RDy6J0+cdg4eWqY2sSj1GKwo2hVUMk9JoIIgF6hy1UIAFtfXbRUbKueulH0ERFOB2B5VORWrqv/U8XJgEn1vCVDfxLA1h69i+W6OGlmBa0UT1JPx1HAnGdVZBEAIgCErtO+s5sGKRAVH9WNJUss7A3JsPkywJd4WOQosuxHp2S4KGe+WM8hN2TPBlDh2VsQXzCj0nxdPMgb2o8C4tOcNyN4kOQCEAEgdFWRp7E9lNyoRivEuh6LgEjoFoASHhZ54Aa2UjkZeJmpn2FNA+MQ72I/z0qGQ3eI53geDVSMDUXjF3mWJ0IQAVAY6GQpWTojQARAHmBT/wWAtz0rD3RaLG3X9vQ50bT9JyYa76Gp3lvXx/y5eIz3qBobDLbkM4AIAKFrA7imZAMgswiAfJAqo1ZoxklA7pdZf2BE/308nT27uz+PZ7KTiHCZh2b6RCfjuNmDqUU8Jh9jjprVQYImAkAEgNC1TuOqWgGQTVV5IllOy4lxEjy6ObBjUL8lnrEO7/LMv8k6kpnu9NA8NginTgvLJ6r8jTmsZGxwFY1lggiAAu6NpCSHNssegLySqDBfA/PFHhZpMmP2hIa2nTv7g0mZ7G7k4kEo2YPyPX5JfEH7hkmh4FYAmHYQ64oAELqkxknJcStXzaUfQldWAipCtwLk5Sa3/rqmPRVr4sGb+8MJjbyjy/gngH4eit1bU+HQ7eIZ+Z5zsKLVQdpKrCsCQOiKGmfeQsVzdc35SKybf8y1+gUEvOBhkYPYtZ/4oRwBk+p5S53sZwAa7GG9nhu6Qr9IPMIH2M4qNfHf3VKMKwJA6BpKVgAMvegLMW3+qRtLFlnGKURIezbDA3Ymy35q/Dzu++3/Vr2cS1zT/ieAKg/N0NhWZJxaezDZ4hH5xyBFYwOTCAARAEKX+gygotPYdcMh16n6hOlV9CUc5zgCvvKw2L2MEvuB2jn83+/7NXPZLG2xHwKwn4di5CvHcY67byh9JZ7gD76K4CsoyAZIasYyQQRA4aKo03wJIhbr+odEZXGjC5wKwMtZ8DFLB1lJMBOYyerv3AXgaA/Ltx1G9cyRxWnxAP8wm8gBcj9BcCErAH7FEBP4FhUbZ74Us/qPVMR8LprO/pK8vGWP6Mx4xl7JBANAzFt1y+fPiIRekJb35dTjSyC3d0kQWDYBygqA0FmizVwMoCTnD2YRAP4VAaGpHp8MAAOXguHlkUQQaKqk+fUzrGIfQP+auWyKbUUACJ0g1AIlJwCYIN9bfUweTgZ4zTNDVuq/lJb2NUomCdYADBTTigAQOkGb2dZHSWMzywqAj6kbS5ahGycBmF+ArzcvS8YpsuPf9ysASsYIzUIfsa0IAKFTULGKp7qkbRDb+lwEjKA1DhtHorAubVoFzTj23jDJCRTfDz1qxgjW2orFuCIAhE51QlLUWbhVjOt/ZlbQSnbcowGsKYDXWcfgnybLabm0bADm/0CbImEhAkAEgNApbEUCgCECICCkRhZ9yBpOg7fHA3ONRYSTU5HQ+9KiAZl7KJokMEEEgAgAoZO9sFhRY7eJcQMkAsrNp4n47J4+h/Pmxnx+Imw+Ky0ZqCUAJQJAAxWJcUUACJ3AUPUJQJMVgKCRCIemg/DnngXivASSqxOR0J3SgkGbe6iZJMgKgAgAofMztmI1z2VZAQggyXLjCmKeFZwgwg8kI0attFwgUTRJIBEAIgCETgqAULA6t6A2ohL31cyzALzcZU/yPvq/uM4yJ0rK6YCOPcwtih4tAkAEgNC5Tqhm5CaGDMoBZWqY2rJkHAfgva5EY4+F6wdsGCfNrqKstFhAxx5S4zSs4JIhQQRAobaKo0hYyN0PAebeMK0FGUd4eYVwF8TGIpjGEakyWi0tFVyI1IwR7EISQIkAEDopl9UIAIIuxg02yTB9BnaOAuPjTU2z8sQq3bUOS5XRx9JCgV8CUDNGKJrUCCIACq9RSJFaVtW5BU9JRIoXs+seDmD1/wT/vGz3x1oG/3RaZUmztIysAHzvmCYrACIAhE52QkUrAJqsABQMqZFFHzLhRACtAAP52XPXogHHSqKfAloAUPSZ0CUWASACQOgMjsayB0DYvAgImy8R+KL20O/x9J8BJu2S6RHzFWmJAhIAiiYJmiYrACIAhM41iqLlMlXLe0J+iGXaRjHod5SPtX8CiJ3L4g2tFdIShQMpmiSQK3sARAAInR1blRyjYsIAsW5hMLEpuwdYexnAoDx66mDW9Fei6eyu0iIFQ38VD3WI5WioCAChU4GaWdEtcCQCoACINlr7ay69AGBrH1RnWwLNmdhg7SstUwgrALyFkge7vFqsKwJA6EwndEw1nYV5oFg32MQarEOI8CTgq9WcgZqGZ+MZ63BpoYBPPojUjBGhkAgAEQBCZ9CLoKqziAAIMPGMfRw0/AtAqQ+r14cZj8fT9knSUoFG1RghAkAEgNAZ6oZjLaBg0wyJAAjszD9jn8nMD8PfOdVDDP57LJ2NSYsFFDVjRFuqjOQeEhEAQuc6ITEBa3P+XFa0vCconvlnLwTzTCAQpzh0gKbFGrPnScsFEJdVbAKU2b8IAKFL/RAqcqrz9mLZAMFM8UarlpluRL7y/HV3XCGaGktbN9cyyxgTIH8D0XYKnvyVGFcEgNCVRQCwik5TOmEhbyXW9T/V9RyKZax7mHBlgF/j/GVpK1Uzl01pUf8TXYLtoOYT0xqxrggAoWsouVhF063BYlp/c249l5aa9mMAnRH4SSXReGuA/fS4jJKlZSGH6FlriJLJDOEjsa4IAKErAydomZIGJ22IWNe/1CzgHVpM+xUARxSQMx8Sgv3ahEbeUVrYv7iamrGBGcvEuiIAhK6oZmYlnYZdVwSAT5mcbhtp6dabAHYrQEU7RifrtWhjW6W0tE+byGU1KwAiAEQACF3sNJqaFQAQDRXr+o9oxjrIgfZaYbcPDSPSXos3WvtJi/uwdQhqJgcaLRfrigAQuoDrsirVLDMw3wX/bJwYzwDYshe87lZMeCGezkal5X22AgCMVPJcdpeKdUUACF1AdwxFAoB3Fuv6ZcRtP+ZHTNMBhHrRm4cYlJRjgr5jjIqHmrYpnwBEAAhdYfAnWAmouBaYBkeb5U6AfHNuPZfGMvY/83zM7wlmPJ3H8s9f1mQ/fG49l4pH5JeaRt6agB0UPLpt0Eh8IhYWASB0gdqDySbCYgWPJt2yZRUgj0xo5B1bTfslAMfmrRLEfzfXGj/bYBvHEzA7X9VgxgkbTfv1SQtY9qbkkTbYuyh6dFMtkSsWFgEgdH1w/EDNc3mMWDc/RDPZvXTYcxnYI2+xn+ju9eXmuLqxZM2uouy6sHE6QMm81QfY2THsNyc1Zn8kHpIvn+DRatqWPxTrigAQujcwqhEApO0u1s1D8G/MnkVML4GwfR6d6m+Jcv3ns4n+e9nUbCInGdYnAbg5j76+g0v0cqwxO1k8JR8CAErGBGb6QKwrAkDoBi6TKvV8oFjXO6ZkuCieseuIqA5AUR6D7HXJsHkJiHhTU8BkxLyQCZfl0VTFILo73pidWb2cS8RzvBxs1IwJGokAEAEgdAuDrXlqnswjJixiSQjkAbEmHrye7ZeZ+aw8VoOZcXEiYm42uKfC5nVgngKA81ZZovGlLfbrkxtaysSD1BNPtw5XlX/C1XQRACIAhO4wraJ4CVRcCwxAcx1ZBVBMNGMdBNeeC+DHeayGQ8RnpSrMGzr7g2RF6FZiikLJKZROs5ujGW/HM9bh4kmKJ/+kHaTo0auTI7BCLCwCQOgOREwEJZ8BiHGQGFjZfJuijdZviPE8gG3zWJM2EJ2WCIemd/WHiQpjJpjOBJDNY/23YsaT0Yx1KZhJHEtREHCVjQUfbvJzkyACQOhsLMGbinT/T2RQzT3jm3jbeNp+kgh/BKDnsSqrQTgiGTYe6u4DkhXG3+HiKOT3OledGNdGM/bjsQxvIx6WW2qZNSY6VMkkA3hDLCwCQOhZN3pZ0XOHTEpbe4p9c0e8yTrYcO33mHBknquyisEHJ8Nmj30nWWm+qGnufgDnNZ87AT8F2x/GMtYR4mm5Y1na3gfAICWTF8IcsbAIAKEHmLr+KgBHyRoAUbVYOAezqDlsxButWnbxvKrBtAsscHRj71Qk9H6uHji9vGg+ueZerOhYahfYDoynYmnr5pq5bIrn5SRIqxoDbHIMWQEQASD0hLoRtAaE9xR1/1PlM0DPmLCIhyzbyX6pI6VvvvvTm45jHDBzRO5vkkxU0qpskXEQA6/k+R0JwPnZ/vZr8XTrcPHAHgjX9nsYTlL0+LcTlbROrCwCQOhxnMZLisbSwbGMJdnXukm00T5Nd+x5zNg3/z7CD5aScfDMkfSFqiLuG0pfwTSOAPCPfL8uAT8C9LnRjC2rWN2kudHeG8COihroJbGwCAAhJ41EyjoTs3aWWLhr1DTy1vG09SAR3w9gYP71IW4aGjFPnxqmNtVlpcqodX3YOAVEt/rgvbcg5gfj6ez9ExbyVuKZXYzRGinLusgs3/8D4QNiAv8zLsP9Q2x/BjVXxraYbAypq6DPxdKbJ95on8jEdwDYzgfVsZn4glQ4dHs+Co+ls+cDdAPye9rhazXwMWtUkwobj4uXbp7xTbyt4drLoCYzZYtZamxdN4g2iqVlBUDoIfeGaS2AZxU9vsSCLasAm5v1L+IBsbR9FxP/wyfBf50GOiFfwR8AkpHQLUQ4GrkUsQsAAAuvSURBVMBqH0xltifmx+Jp68FJ9byleOwPY7B9tqLgDwaelOAvAkDI5fjGNFvhw8+pncOGWPn7Zrr2MZZjLwC4xife0MTs/mh6xPhXvmuSCJvPgtx9AVrsB8swUO2a9rxok3WkeO6mqa7nEDPOVtcI9JBYWQSAkEPaNP1RAK2KAsrgpTtak8TK35r1L+Ad4o3ZmQA/jvwf72tvKcLrIH2fVEVRg1/slAwXLXAc/UeAbzZ+7UQunoqlrcdjTTxYPPl/KTWsGgJ2UPT4lj62/oRYOSATSzFBkGai1mMAjlX0+E+zZIQ7Pjf0amqZtWUZazKD/gKgv4+6a2K9pZ8zu4qyfrRbdT2HSk3nToBjPqrWGgZfuSFs3vrNK5B7K/EG7seanYGiz1gMPJyKmCfLaC0rAEKuOxcp/AwAbBty7Yt7u40nNmX3WJax/8Ogu3wU/B1iXJKMGJP8GvwBYHYVZZMRIw7gUihKXtUNBhDoptKM/WYsk929148hmn0pVO5hkeV/WQEQ1FCziAdYjv0RAFV3pW9wdGOUikQyfmfCQt5KN5xaMJ8DP+xq/38+J+D0RMR8PlAzzYx1ODPuA+Cn43kOgNs0y7hqehV92dt8PLqwZRjpRj2APqrGjxLL2P72Klovo7WsAAg5pj0rIN2rsIi+umPfU82s9xab1sxlM57O1ui63QDm83wW/N/TXftHQQv+QMfmQM3YjYH/+KhaOoDz2bSbohnr0ikZLuotfl7LrJFuJBUGfwA0U4K/CABBZYORczMAlVds7t8vbV/YK2ZEGftYq7+zsGO5f2s/1Y2YZ60vMfadVlnSHFT7JstpeT8yDgDRND/Vqz2BEK5dz1Y63mhP6A3psJc12b8GlF4BzjqcqTJCBwv5BBBAYo3WiyAcrLCINo147+nh0HuFaL+JDda+moa/ANjbh9VrY+YpqYrQ3YVk83g6ezaDboKis+c9GgQJrwP4VSJsvlmI/h5tzO5JRK9BTSKxr0XVs6mIKTc1ygqAoH4GQ7coLqLIYfrXpAU8tKCEU5O1TyxtPa5peM2nwX8FEx9UaMEfABKR0J2uxvuCeanv+hNjX2a8Ec9Yr8WbrIMLye6TG1rKCPSYyuDfbkS6WUZmWQEQPKCaWe+bcTIELlNc1ALNMvYP+oapeKO1X8dtfT/xcTWfBBnRZJg+K2Tf7UhBOxOAb2eLDDzLLq6eUWm+HmRbT1jIW+m6/TqACsVFZYaGjcpaIldGZxEAghez2fY87F6o7n+3FRlH3TeUvgqUgZgpmrF/QoTLwDjExzXNMuPyVMS4EUTcK5yXmeIZ+xIG/gjA9HFNn3cZ186IGC8GrW0m1fOWjmk/1X5rouoowucmw6E7ZFQWASB4xJQMF61jZ6EHqwAA4UPNMo6dPoqW+t0u4+dxX7PEGs+g8wGM9Hn3ayLXPT1RGZrbG314UmP2Ry5p9wM83OdVrQd4qt1i3jNrF9rgd7t2HPd7AkCVB8VlzLVGVd1YsmRUFgEgeNnRG+3TOq6k9YJPXcYZMyrMF/xoi3i6dTiTfi4Yk+CDK3o3OwkG36u55jmJSlrXm314XIb7F7F1F4NOC8Bg+RUD03XXvt2vpzOiaeswAu4FsI03RqHqZNiQ5D8iAATvowhTNGO/5ckyXzsuGDeX2Mbv/XDet2YRD7Bd62RmGg9gfwRjU+t6Ak9JREIpceBvBK5MNk5MtwDoG4DqugBeYeJZIc18uG4Ercl3hc6t59IW0/4DgPM9HNffTIaNfXvNpysRAILfmJS2DnCBlz1WHssJ+P26sDnL6/zq0WYu1mzncDCfye33IhQHqLn+7TjOhJkji9PiuZto28a2SiJtJoA9A1TtVjA/xpp2Dwz9uVQZtXpZeDWz3i9jjWfgaoA8vfjIdbFf0DdKigAQAk+s0XoUhOPz4D5NTO6NIc28V+UsKLqoNQxHO5KIjgLjQCjNZqaENiLUris3/iIX0vwwtXPYWLqjfSmA30P10bXcsxHAS2B+StPdp6eXFzcpFMIDKWudCdIuBHhEHt71H8mIeZJ4rAgAIc9MWMRDdMf+AMCAPFWhhYAnQPRPW9Nf7cldAtXLuaRfq70rM+9JjLFM2j55GuByxbua5k6cXl40Xzy1Cz7d0LazrmkzAOwa4OG1CXBfB2Mua5i7odicN3swtfSkn2uucyAxHwfgGORv9Ws1NGPnZDktF08VASD4YRUgY58J5lk+qc6nAOYS8CGIPwa0z8D8iUu8XmMqBQAwmdCwpQveCaDBxDwEQBmASgBGATSJxYQ/htYYf5Id0t0Ug/Uc6mvavyXg8gLxCRuEhWAsYaJlAC/XQCsA/gwMFwAYvI5B/TWibQF3GzBtz8AYAGMBbOuTsHFGMmLcLx4qAkDwlQjIPgCmU8USee9VH2rgiYWaStlr4g3ZsaxRCt4caxN+EL4vGQmNEzsUBpIKuJC6pmGeDfAysUTeaCHGVaUw9pTgnzsSlaG55lpjNwZfCGCDWCRvrGgrMs8TM8gKgOBTJjZah2qEZ0Xcea2+MIfYOSdRWdwoxlC4GpBuHQ7Wb2PCkWINT3Hh4rBkpfmimEIEgODnQTJjXcaMP4slvIj7+EhjuixRYcwUa3hHtNE+DcQ3ELCDWMMTLk1GzOvFDCIAhAAQS1s3oz0piKBqRgSaliX9V/eGaa2Yw3tqFvEAy7GvBvALALpYRJXIpTtTEeMcsYQIACEgVDPr/Zrsh5hxglgj57wE4ouT4dC7Yor8M7Epuwe5dAMBB4g1ch388fCwsHGK3PQnAkAImghoP1P/HDP2FWvkoLMQ0i7ot6mwMVus4T/iaesnDNwEOS2QK/5tlhqH1A2ijWKKwkQ2ihUwswdTi20bxwNYINboEZ+DeYqxxhgtwd+/JCLm8+ZaYzeALwDwhVikR1PDDzXLOFqCv6wACAGnppG3tjT7KTDGijW6RBsDt8A0/pQqo9VijuBwxlLeoihrXwHGeQCKxCJdm/lrlnH09Cr6UkwhAkAoAMZluH/ItR8F4WCxRicCP9E0A/q108K0QswRXNrTZDuXARwXIdApni+xjBP9cNunIAJAyCG1c9hYtqNzA4OniDU2SRaglE76NRL4C4vJi3k717Yv4vaTMSVikU2GgzpzrX6epK4WASAUMNFM9lxiukFmRP+lBcDd5BrXJSpplZijgFcEGnlHg5xLGXwWgnWVtEraAL4gGQndJaYQASD0AiZlsru5TPeh/fKd3srnRKgzLOPWulH0kXhF7yHewINcsqcQ4SwAW/ViUywk5tMTFaF54hUiAIRexPh53Ffv41xHzOegd50IeZ+Jp8Iw70uVUat4Qu+lejmXlG60xjHRFAJ27kWv7hLoNqNUv0x2+osAEHoxsUx2dzDdCWDPQh7wADxJwM2JsPECiFhaXvgmE5uye+gOLmCi01EY1w9vEgY+APHPU+HQW9LqIgAEAbVz2FgyyIoR0ZUAdiygV6snwj0ajHtkY5/QGSYs4iGabZ9JhHEARhXQq60A81VDV5mp2oPJlpYWRAAI/0P1ci7pt9E+lwm/BDAooDOcjzTC/QS+R67lFXpCLJPdHS6dCeB0ELYP6GusZMYNCBm3yycvQQSAsHkhUM+hUsM5HcQXAtg1AGF/OZH2NMAPrSs3XphN5EgrCjnrD8x6aZP9E4BOBvNRCMYq2XvEdNM6W39gdhVlpRUFEQBC92ZBTBMBnA5gG59UKwvCa8R4mjT3qenlRfOlpQSvmNDQtrOuaUeCcSQI+wEwfVK1TwHcz+BUKhJ6X1pKEAEg5GwW1KfR3kvTcByAwwCMgXebpb5kYK5GmAvQv4uz+ouSrUzwA/EG7gfdOZjBe4ExloCxDGzhUfEWgA8JeI41PDZ0hPGW3NwniAAQ1AuC9tsGd3WZxxJhLJj2BFCBnh0pXA1gBYAlABrANNfV7LkzwsWLxOJCUJiYaR2hucZYaLwnMyoJGApgMIABPXisA6AB4LnEeJsJ/7cz/1lZL47O648CcgEAj2+6oFX1QeYAAAAldEVYdGRhdGU6Y3JlYXRlADIwMjItMDEtMjVUMTI6MTg6NDYrMDA6MDCT25IyAAAAJXRFWHRkYXRlOm1vZGlmeQAyMDIyLTAxLTI1VDEyOjE4OjQ2KzAwOjAw4oYqjgAAAABJRU5ErkJggg==;" parent="1" vertex="1">
                    <mxGeometry x="850" y="-590" width="46.02" height="40" as="geometry"/>
                </mxCell>
                <mxCell id="105" value="keycloak-js" style="verticalLabelPosition=bottom;verticalAlign=top;html=1;shape=mxgraph.basic.layered_rect;dx=10;outlineConnect=0;" parent="1" vertex="1">
                    <mxGeometry x="840" y="-530" width="70" height="30" as="geometry"/>
                </mxCell>
            </root>
        </mxGraphModel>
    </diagram>
</mxfile>